<svg width="942" height="746" viewBox="0 0 942 746" fill="none" xmlns="http://www.w3.org/2000/svg">
<g id="undraw_fast_loading_0lbh 1" clip-path="url(#clip0)">
<g id="BackPage_1">
<g id="Group" opacity="0.5">
<path id="Vector" opacity="0.5" d="M382.15 0H56.82C54.3347 0 52.32 2.01472 52.32 4.5V500.88C52.32 503.365 54.3347 505.38 56.82 505.38H382.15C384.635 505.38 386.65 503.365 386.65 500.88V4.5C386.65 2.01472 384.635 0 382.15 0Z" fill="url(#paint0_linear)"/>
</g>
<path id="Vector_2" d="M377.86 3.70999H61.1C58.6147 3.70999 56.6 5.72471 56.6 8.20999V494.37C56.6 496.855 58.6147 498.87 61.1 498.87H377.86C380.345 498.87 382.36 496.855 382.36 494.37V8.20999C382.36 5.72471 380.345 3.70999 377.86 3.70999Z" fill="#F2F2F2"/>
<g id="Group_2" opacity="0.5">
<path id="Vector_3" opacity="0.5" d="M149.83 94.93H93.68C91.1947 94.93 89.18 96.9447 89.18 99.43V149.07C89.18 151.555 91.1947 153.57 93.68 153.57H149.83C152.315 153.57 154.33 151.555 154.33 149.07V99.43C154.33 96.9447 152.315 94.93 149.83 94.93Z" fill="#F66641"/>
</g>
<path id="Vector_4" d="M346.97 94.93H176.7C175.143 94.93 173.88 96.1925 173.88 97.75V98.63C173.88 100.187 175.143 101.45 176.7 101.45H346.97C348.527 101.45 349.79 100.187 349.79 98.63V97.75C349.79 96.1925 348.527 94.93 346.97 94.93Z" fill="#E0E0E0"/>
<path id="Vector_5" d="M317.29 114.47H176.7C175.143 114.47 173.88 115.733 173.88 117.29V118.17C173.88 119.727 175.143 120.99 176.7 120.99H317.29C318.847 120.99 320.11 119.727 320.11 118.17V117.29C320.11 115.733 318.847 114.47 317.29 114.47Z" fill="#E0E0E0"/>
<g id="Group_3" opacity="0.5">
<path id="Vector_6" opacity="0.5" d="M149.83 186.14H93.68C91.1947 186.14 89.18 188.155 89.18 190.64V240.28C89.18 242.765 91.1947 244.78 93.68 244.78H149.83C152.315 244.78 154.33 242.765 154.33 240.28V190.64C154.33 188.155 152.315 186.14 149.83 186.14Z" fill="#F66641"/>
</g>
<path id="Vector_7" d="M346.97 186.14H176.7C175.143 186.14 173.88 187.403 173.88 188.96V189.84C173.88 191.397 175.143 192.66 176.7 192.66H346.97C348.527 192.66 349.79 191.397 349.79 189.84V188.96C349.79 187.403 348.527 186.14 346.97 186.14Z" fill="#E0E0E0"/>
<path id="Vector_8" d="M346.97 205.68H176.7C175.143 205.68 173.88 206.943 173.88 208.5V209.38C173.88 210.937 175.143 212.2 176.7 212.2H346.97C348.527 212.2 349.79 210.937 349.79 209.38V208.5C349.79 206.943 348.527 205.68 346.97 205.68Z" fill="#E0E0E0"/>
<g id="Group_4" opacity="0.5">
<path id="Vector_9" opacity="0.5" d="M149.83 277.35H93.68C91.1947 277.35 89.18 279.365 89.18 281.85V331.49C89.18 333.975 91.1947 335.99 93.68 335.99H149.83C152.315 335.99 154.33 333.975 154.33 331.49V281.85C154.33 279.365 152.315 277.35 149.83 277.35Z" fill="#F66641"/>
</g>
<path id="Vector_10" d="M346.97 277.35H176.7C175.143 277.35 173.88 278.613 173.88 280.17V281.05C173.88 282.607 175.143 283.87 176.7 283.87H346.97C348.527 283.87 349.79 282.607 349.79 281.05V280.17C349.79 278.613 348.527 277.35 346.97 277.35Z" fill="#E0E0E0"/>
<path id="Vector_11" d="M190.61 296.9H176.7C175.143 296.9 173.88 298.163 173.88 299.72V300.6C173.88 302.157 175.143 303.42 176.7 303.42H190.61C192.167 303.42 193.43 302.157 193.43 300.6V299.72C193.43 298.163 192.167 296.9 190.61 296.9Z" fill="#E0E0E0"/>
</g>
<g id="BackPage_2">
<path id="Vector_12" d="M580.65 165.7H269.95C267.465 165.7 265.45 167.715 265.45 170.2V448.93C265.45 451.415 267.465 453.43 269.95 453.43H580.65C583.135 453.43 585.15 451.415 585.15 448.93V170.2C585.15 167.715 583.135 165.7 580.65 165.7Z" fill="white"/>
<g id="Group_5" opacity="0.5">
<path id="Vector_13" opacity="0.5" d="M361.03 227.52H301.34C298.855 227.52 296.84 229.535 296.84 232.02V284.84C296.84 287.325 298.855 289.34 301.34 289.34H361.03C363.515 289.34 365.53 287.325 365.53 284.84V232.02C365.53 229.535 363.515 227.52 361.03 227.52Z" fill="#F66641"/>
</g>
<path id="Vector_14" d="M568.62 227.52H389.12C387.474 227.52 386.14 228.854 386.14 230.5V231.41C386.14 233.056 387.474 234.39 389.12 234.39H568.62C570.266 234.39 571.6 233.056 571.6 231.41V230.5C571.6 228.854 570.266 227.52 568.62 227.52Z" fill="#E0E0E0"/>
<path id="Vector_15" d="M568.62 248.13H389.12C387.474 248.13 386.14 249.464 386.14 251.11V252.02C386.14 253.666 387.474 255 389.12 255H568.62C570.266 255 571.6 253.666 571.6 252.02V251.11C571.6 249.464 570.266 248.13 568.62 248.13Z" fill="#E0E0E0"/>
</g>
<path id="Vector_16" d="M568.62 322.92H292.95C291.304 322.92 289.97 324.254 289.97 325.9V326.81C289.97 328.456 291.304 329.79 292.95 329.79H568.62C570.266 329.79 571.6 328.456 571.6 326.81V325.9C571.6 324.254 570.266 322.92 568.62 322.92Z" fill="#E0E0E0"/>
<path id="Vector_17" d="M568.62 343.53H292.95C291.304 343.53 289.97 344.864 289.97 346.51V347.42C289.97 349.066 291.304 350.4 292.95 350.4H568.62C570.266 350.4 571.6 349.066 571.6 347.42V346.51C571.6 344.864 570.266 343.53 568.62 343.53Z" fill="#E0E0E0"/>
<path id="Vector_18" d="M568.62 371H292.95C291.304 371 289.97 372.334 289.97 373.98V374.89C289.97 376.536 291.304 377.87 292.95 377.87H568.62C570.266 377.87 571.6 376.536 571.6 374.89V373.98C571.6 372.334 570.266 371 568.62 371Z" fill="#E0E0E0"/>
<path id="Vector_19" d="M499.93 391.61H292.95C291.304 391.61 289.97 392.944 289.97 394.59V395.5C289.97 397.146 291.304 398.48 292.95 398.48H499.93C501.576 398.48 502.91 397.146 502.91 395.5V394.59C502.91 392.944 501.576 391.61 499.93 391.61Z" fill="#E0E0E0"/>
<g id="Group_6" opacity="0.5">
<path id="Vector_20" opacity="0.5" d="M597.64 273.88L598.81 268.66L597.17 273.76C554.518 262.24 510.55 256.31 466.37 256.12C148.05 254.24 0 535.57 0 535.57L301.66 694.73C301.66 694.73 338.66 579.99 470.07 583.73C479.109 583.976 488.125 584.764 497.07 586.09L457.09 710.62C455.381 713.052 454.178 715.802 453.553 718.707C452.927 721.613 452.89 724.614 453.446 727.534C454.002 730.453 455.138 733.232 456.788 735.704C458.437 738.176 460.566 740.292 463.049 741.926C465.532 743.56 468.317 744.679 471.24 745.217C474.163 745.754 477.164 745.699 480.066 745.055C482.967 744.411 485.71 743.191 488.131 741.467C490.552 739.743 492.602 737.551 494.16 735.02V735.02V734.96C496.235 731.588 497.364 727.719 497.43 723.76C497.43 723.09 497.43 722.42 497.36 721.76L526.26 592.62C612.36 619.1 638.45 694.72 638.45 694.72L942 542.97C942 542.97 828 336.44 597.64 273.88Z" fill="url(#paint1_linear)"/>
</g>
<g id="Progress_Chart">
<g id="Vector_21">
<path d="M466.43 259.24C152.17 257.41 6 535.13 6 535.13L303.82 692.24C303.82 692.24 340.36 578.96 470.09 582.61C479.228 582.857 488.341 583.665 497.38 585.03L596 276.78C553.756 265.327 510.199 259.431 466.43 259.24V259.24Z" fill="#F66641"/>
<path d="M466.43 259.24C152.17 257.41 6 535.13 6 535.13L303.82 692.24C303.82 692.24 340.36 578.96 470.09 582.61C479.228 582.857 488.341 583.665 497.38 585.03L596 276.78C553.756 265.327 510.199 259.431 466.43 259.24V259.24Z" fill="url(#paint2_linear)" fill-opacity="0.5"/>
</g>
<g id="Vector_22">
<path d="M596 276.78L497.38 585.06C605 601.41 636.35 692.24 636.35 692.24L936 542.44C936 542.44 823.41 338.54 596 276.78Z" fill="#F66641"/>
<path d="M596 276.78L497.38 585.06C605 601.41 636.35 692.24 636.35 692.24L936 542.44C936 542.44 823.41 338.54 596 276.78Z" fill="url(#paint3_linear)"/>
</g>
</g>
<g id="Vector_23" filter="url(#filter0_d)">
<path d="M477.402 645.075L52.9338 472L459.94 682.493C462.021 684.582 464.503 686.23 467.236 687.338C469.968 688.445 472.897 688.99 475.845 688.94C478.794 688.889 481.702 688.245 484.395 687.044C487.088 685.843 489.512 684.111 491.52 681.952C493.528 679.793 495.08 677.251 496.083 674.477C497.086 671.704 497.519 668.757 497.356 665.813C497.194 662.869 496.438 659.987 495.136 657.342C493.833 654.696 492.011 652.34 489.776 650.416V650.416L489.717 650.406C486.777 647.833 483.199 646.099 479.358 645.384C478.687 645.21 478.051 645.134 477.402 645.075Z" fill="#535461"/>
</g>
<g id="Man" opacity="0.7">
<path id="Vector_24" opacity="0.7" d="M533.25 258.71L530.63 258.22L535.8 239.22C543.94 178.22 513.19 172.03 501.66 171.82C500.334 171.335 498.982 170.924 497.61 170.59V163.39C504.864 161.6 511.435 157.723 516.509 152.238C521.583 146.753 524.939 139.901 526.16 132.53H526.26C528.09 132.53 529.58 129.74 529.58 126.3C529.652 124.477 529.144 122.677 528.13 121.16C528.263 119.827 528.33 118.493 528.33 117.16C528.333 111.776 527.242 106.448 525.122 101.498C523.003 96.5493 519.899 92.0827 516 88.37C515.468 85.7099 514.516 83.1513 513.18 80.79C510.35 75.79 505.64 70.61 507.56 65.2L495.13 66.48L495.01 58.29C491.13 58.99 489.5 63.48 487.2 66.68C481.66 74.38 470.55 75.45 463.2 81.45C460.7 83.45 455.08 89.69 456.15 93.76C451.213 100.551 448.559 108.734 448.57 117.13C448.57 118.463 448.637 119.797 448.77 121.13C447.756 122.647 447.248 124.447 447.32 126.27C447.32 129.71 448.81 132.5 450.64 132.5H450.74C451.961 139.871 455.317 146.723 460.391 152.208C465.465 157.693 472.036 161.57 479.29 163.36V170.56C477.918 170.894 476.566 171.305 475.24 171.79C463.71 172 432.96 178.15 441.1 239.19L446.27 258.19L445.04 258.42C443.211 258.761 441.466 259.46 439.907 260.475C438.348 261.491 437.003 262.803 435.951 264.338C434.899 265.873 434.16 267.6 433.775 269.421C433.391 271.242 433.369 273.121 433.71 274.95L454.14 384.14C454.349 385.258 454.993 386.247 455.93 386.89C456.868 387.533 458.022 387.777 459.14 387.57L462.73 386.9V389.02C460.738 390.004 459.06 391.526 457.887 393.413C456.714 395.3 456.091 397.478 456.09 399.7V401.05H480.17V399.7C480.169 397.638 479.633 395.611 478.615 393.818C477.597 392.025 476.131 390.527 474.36 389.47V384.72L477.64 384.11C478.758 383.901 479.747 383.257 480.39 382.32C481.033 381.382 481.278 380.228 481.07 379.11L461.93 276.53H515L495.88 379.12C495.673 380.238 495.917 381.392 496.56 382.33C497.203 383.267 498.192 383.911 499.31 384.12L502.59 384.73V389.48C500.819 390.537 499.353 392.035 498.335 393.828C497.317 395.621 496.781 397.648 496.78 399.71V401.06H520.86V399.71C520.859 397.488 520.236 395.31 519.063 393.423C517.89 391.536 516.212 390.014 514.22 389.03V386.91L517.81 387.58C518.928 387.787 520.082 387.543 521.02 386.9C521.957 386.257 522.601 385.268 522.81 384.15L543.45 273.59C543.758 271.943 543.739 270.252 543.393 268.612C543.047 266.973 542.381 265.418 541.434 264.036C540.487 262.654 539.276 261.472 537.872 260.559C536.468 259.645 534.897 259.017 533.25 258.71Z" fill="url(#paint4_linear)"/>
</g>
<path id="Vector_25" d="M474.9 373H463.72V388.18H474.9V373Z" fill="#FDB797"/>
<path id="Vector_26" d="M513.24 373H502.06V388.18H513.24V373Z" fill="#FDB797"/>
<path id="Vector_27" d="M525.23 248.4H451.74V274.76H525.23V248.4Z" fill="#4D8AF0"/>
<g id="Group_7" opacity="0.05">
<path id="Vector_28" opacity="0.05" d="M525.23 248.4H451.74V274.76H525.23V248.4Z" fill="black"/>
</g>
<path id="Vector_29" opacity="0.1" d="M451.74 253.19C451.74 253.19 479.16 259.58 488.48 259.58C497.8 259.58 525.22 253.19 525.22 253.19V249.19H451.74V253.19Z" fill="black"/>
<path id="Vector_30" d="M525.22 252.39C525.22 252.39 497.8 258.78 488.48 258.78C479.16 258.78 451.74 252.39 451.74 252.39V208.46C451.74 198.716 455.611 189.371 462.501 182.481C469.391 175.591 478.736 171.72 488.48 171.72V171.72C498.224 171.72 507.569 175.591 514.459 182.481C521.349 189.371 525.22 198.716 525.22 208.46V252.39Z" fill="#F55F44"/>
<path id="Vector_31" d="M479.7 153.34H497.27V174.48C497.27 176.498 496.468 178.434 495.041 179.861C493.614 181.288 491.678 182.09 489.66 182.09H487.32C485.302 182.09 483.366 181.288 481.939 179.861C480.512 178.434 479.71 176.498 479.71 174.48V153.34H479.7Z" fill="#FDB797"/>
<path id="Vector_32" d="M477 378.46L461.25 381.4C459.907 381.643 458.523 381.345 457.399 380.571C456.275 379.797 455.503 378.611 455.25 377.27L436.47 276.63C436.058 274.427 436.083 272.164 436.546 269.971C437.008 267.778 437.898 265.698 439.165 263.849C440.431 262 442.05 260.419 443.928 259.195C445.806 257.972 447.907 257.131 450.11 256.72L454.17 255.96C455.513 255.717 456.897 256.015 458.021 256.789C459.145 257.563 459.917 258.749 460.17 260.09L481.17 372.42C481.295 373.091 481.287 373.78 481.145 374.447C481.003 375.114 480.73 375.747 480.343 376.308C479.955 376.87 479.46 377.349 478.886 377.718C478.313 378.088 477.672 378.34 477 378.46Z" fill="#4D8AF0"/>
<path id="Vector_33" d="M499.92 378.46L515.67 381.4C517.013 381.643 518.397 381.345 519.521 380.571C520.645 379.797 521.417 378.611 521.67 377.27L540.77 274.95C541.515 270.947 540.64 266.811 538.338 263.453C536.035 260.094 532.493 257.788 528.49 257.04L522.75 255.97C521.407 255.727 520.023 256.025 518.899 256.799C517.775 257.573 517.003 258.759 516.75 260.1L495.75 372.43C495.626 373.1 495.636 373.788 495.778 374.454C495.921 375.12 496.194 375.752 496.581 376.312C496.969 376.872 497.463 377.351 498.036 377.719C498.609 378.088 499.249 378.34 499.92 378.46Z" fill="#4D8AF0"/>
<path id="Vector_34" opacity="0.1" d="M479.7 166.66C485.471 168.08 491.499 168.08 497.27 166.66V154.14H479.7V166.66Z" fill="black"/>
<path id="Vector_35" d="M488.48 159.73C509.655 159.73 526.82 142.565 526.82 121.39C526.82 100.215 509.655 83.05 488.48 83.05C467.305 83.05 450.14 100.215 450.14 121.39C450.14 142.565 467.305 159.73 488.48 159.73Z" fill="#333333"/>
<path id="Vector_36" d="M488.48 166.92C508.771 166.92 525.22 150.471 525.22 130.18C525.22 109.889 508.771 93.44 488.48 93.44C468.189 93.44 451.74 109.889 451.74 130.18C451.74 150.471 468.189 166.92 488.48 166.92Z" fill="#FDB797"/>
<path id="Vector_37" d="M464.22 87.06C471.29 81.29 481.98 80.26 487.3 72.85C489.51 69.77 491.08 65.44 494.81 64.77L494.92 72.65L506.92 71.42C505.07 76.62 509.6 81.62 512.33 86.42C514.336 89.967 515.432 93.9559 515.52 98.03C511.37 100.52 506.22 97.8 501.6 96.35C496.98 94.9 492.33 94.79 487.6 94.66C485.186 94.4921 482.761 94.6265 480.38 95.06C478.32 95.6128 476.312 96.3456 474.38 97.25C471.2 98.58 461.15 103.61 458.2 100.37C454.88 96.7 461.49 89.29 464.22 87.06Z" fill="#333333"/>
<path id="Vector_38" opacity="0.1" d="M466.22 111.75C468.228 112.852 470.44 113.532 472.72 113.75C482.132 115.037 491.717 113.962 500.61 110.62C502.07 114.31 505.61 116.85 509.4 118.05C513.19 119.25 517.21 119.31 521.18 119.37C522.052 119.468 522.934 119.301 523.71 118.89C525.48 117.7 524.62 114.96 523.59 113.1L518.47 103.82C516.96 101.08 515.4 98.28 513.06 96.21C510.12 93.61 506.22 92.39 502.38 91.62C493.292 89.8103 483.908 90.1217 474.96 92.53C465.39 95.06 453.1 103.81 466.22 111.75Z" fill="black"/>
<path id="Vector_39" d="M466.22 110.95C468.228 112.052 470.44 112.732 472.72 112.95C482.132 114.237 491.717 113.162 500.61 109.82C502.07 113.51 505.61 116.05 509.4 117.25C513.19 118.45 517.21 118.51 521.18 118.57C522.052 118.668 522.934 118.501 523.71 118.09C525.48 116.9 524.62 114.16 523.59 112.3L518.47 103.02C516.96 100.28 515.4 97.48 513.06 95.41C510.12 92.81 506.22 91.59 502.38 90.82C493.292 89.0103 483.908 89.3217 474.96 91.73C465.39 94.24 453.1 103.02 466.22 110.95Z" fill="#333333"/>
<path id="Vector_40" d="M524.83 136.17C526.597 136.17 528.03 133.488 528.03 130.18C528.03 126.872 526.597 124.19 524.83 124.19C523.063 124.19 521.63 126.872 521.63 130.18C521.63 133.488 523.063 136.17 524.83 136.17Z" fill="#FDB797"/>
<path id="Vector_41" d="M452.14 136.17C453.907 136.17 455.34 133.488 455.34 130.18C455.34 126.872 453.907 124.19 452.14 124.19C450.373 124.19 448.94 126.872 448.94 130.18C448.94 133.488 450.373 136.17 452.14 136.17Z" fill="#FDB797"/>
<path id="Vector_42" d="M479.84 174.16C479.84 174.16 433.36 166.92 442.95 238.81L448.54 259.42L464.54 258.78C464.54 258.78 454.16 234.78 460.54 218.84C466.92 202.9 479.84 174.16 479.84 174.16Z" fill="#F55F44"/>
<path id="Vector_43" d="M497.12 174.16C497.12 174.16 543.6 166.92 534.01 238.81L528.42 259.42L512.42 258.78C512.42 258.78 522.8 234.78 516.42 218.84C510.04 202.9 497.12 174.16 497.12 174.16Z" fill="#F55F44"/>
<path id="Vector_44" d="M457.33 270.76C462.185 270.76 466.12 266.825 466.12 261.97C466.12 257.115 462.185 253.18 457.33 253.18C452.475 253.18 448.54 257.115 448.54 261.97C448.54 266.825 452.475 270.76 457.33 270.76Z" fill="#FDB797"/>
<path id="Vector_45" d="M521.23 270.76C526.085 270.76 530.02 266.825 530.02 261.97C530.02 257.115 526.085 253.18 521.23 253.18C516.375 253.18 512.44 257.115 512.44 261.97C512.44 266.825 516.375 270.76 521.23 270.76Z" fill="#FDB797"/>
<path id="Vector_46" d="M467.37 381.79H470.46C473.112 381.79 475.656 382.844 477.531 384.719C479.406 386.594 480.46 389.138 480.46 391.79V394.53H457.33V391.79C457.33 390.473 457.59 389.17 458.095 387.954C458.6 386.738 459.34 385.634 460.273 384.705C461.206 383.776 462.313 383.04 463.531 382.54C464.749 382.04 466.053 381.785 467.37 381.79V381.79Z" fill="#333333"/>
<path id="Vector_47" d="M506.51 381.79H509.6C512.252 381.79 514.796 382.844 516.671 384.719C518.546 386.594 519.6 389.138 519.6 391.79V394.53H496.47V391.79C496.47 390.473 496.73 389.17 497.235 387.954C497.74 386.738 498.48 385.634 499.413 384.705C500.346 383.776 501.453 383.04 502.671 382.54C503.889 382.04 505.193 381.785 506.51 381.79V381.79Z" fill="#333333"/>
<path id="Vector_48" opacity="0.1" d="M459.73 212.45C459.73 212.45 456.53 229.22 462.13 236.45Z" fill="black"/>
<path id="Vector_49" opacity="0.1" d="M517.24 212.45C517.24 212.45 520.44 229.22 514.84 236.45Z" fill="black"/>
</g>
<defs>
<filter id="filter0_d" x="25" y="472" width="496.376" height="228.281" filterUnits="userSpaceOnUse" color-interpolation-filters="sRGB">
<feFlood flood-opacity="0" result="BackgroundImageFix"/>
<feColorMatrix in="SourceAlpha" type="matrix" values="0 0 0 0 0 0 0 0 0 0 0 0 0 0 0 0 0 0 127 0"/>
<feOffset dy="4"/>
<feGaussianBlur stdDeviation="2"/>
<feColorMatrix type="matrix" values="0 0 0 0 0 0 0 0 0 0 0 0 0 0 0 0 0 0 0.25 0"/>
<feBlend mode="normal" in2="BackgroundImageFix" result="effect1_dropShadow"/>
<feBlend mode="normal" in="SourceGraphic" in2="effect1_dropShadow" result="shape"/>
</filter>
<linearGradient id="paint0_linear" x1="219.48" y1="505.38" x2="219.48" y2="0" gradientUnits="userSpaceOnUse">
<stop stop-color="#808080" stop-opacity="0.25"/>
<stop offset="0.54" stop-color="#808080" stop-opacity="0.12"/>
<stop offset="1" stop-color="#808080" stop-opacity="0.1"/>
</linearGradient>
<linearGradient id="paint1_linear" x1="565200" y1="403757" x2="565200" y2="164166" gradientUnits="userSpaceOnUse">
<stop stop-color="#808080" stop-opacity="0.25"/>
<stop offset="0.54" stop-color="#808080" stop-opacity="0.12"/>
<stop offset="1" stop-color="#808080" stop-opacity="0.1"/>
</linearGradient>
<linearGradient id="paint2_linear" x1="301" y1="259.231" x2="301" y2="692.24" gradientUnits="userSpaceOnUse">
<stop stop-color="#FFF3E0"/>
<stop offset="1" stop-color="white" stop-opacity="0"/>
</linearGradient>
<linearGradient id="paint3_linear" x1="716.69" y1="276.78" x2="716.69" y2="692.24" gradientUnits="userSpaceOnUse">
<stop stop-color="#FFF3E0" stop-opacity="0.5"/>
<stop offset="1" stop-color="white" stop-opacity="0"/>
</linearGradient>
<linearGradient id="paint4_linear" x1="68490.8" y1="164526" x2="68490.8" y2="47034.9" gradientUnits="userSpaceOnUse">
<stop stop-color="#808080" stop-opacity="0.25"/>
<stop offset="0.54" stop-color="#808080" stop-opacity="0.12"/>
<stop offset="1" stop-color="#808080" stop-opacity="0.1"/>
</linearGradient>
<clipPath id="clip0">
<rect width="942" height="745.6" fill="white"/>
</clipPath>
</defs>
</svg>
