<svg width="605" height="471" viewBox="0 0 605 471" fill="none" xmlns="http://www.w3.org/2000/svg">
<g id="Group 1" filter="url(#filter0_d)">
<path id="Vector" d="M504 449.687H4V451.927H504V449.687Z" fill="#3F3D56"/>
<path id="Vector_2" d="M531.681 44.277L539.704 67.008L526.332 93.751L503.601 54.974L531.681 44.277Z" fill="#A0616A"/>
<path id="Vector_3" d="M599.207 319.061C594.808 325.225 560.884 360.9 538.193 384.594C531.895 391.16 526.466 396.816 522.776 400.653C519.54 404.01 517.641 405.975 517.641 405.975L507.385 384.527L502.932 375.221L502.999 375.141L505.794 371.57L532.443 337.473L560.43 301.678L537.698 256.215L565.778 252.203L584.445 253.3L588.51 253.54C588.51 253.54 605.893 309.701 599.207 319.061Z" fill="#2F2E41"/>
<path id="Vector_4" d="M520.315 428.707C518.577 430.445 515.555 428.226 512.279 424.428C505.5 416.566 497.584 401.964 497.584 401.964L488.224 381.907C489.226 375.916 498.399 375.154 502.999 375.141C504.564 375.141 505.607 375.221 505.607 375.221L506.382 376.371L522.776 400.653C522.776 400.653 525.664 423.358 520.315 428.707Z" fill="#2F2E41"/>
<path id="Vector_5" opacity="0.2" d="M522.776 400.653C522.776 400.653 525.664 423.358 520.315 428.707C518.577 430.445 515.555 428.226 512.279 424.428L507.385 384.527L506.382 376.371L505.794 371.57L532.443 337.473L538.193 384.594C531.895 391.16 526.466 396.816 522.776 400.653Z" fill="black"/>
<path id="Vector_6" opacity="0.2" d="M541.295 263.409L537.698 256.215L565.778 252.203L584.445 253.3L584.498 253.54L541.295 263.409Z" fill="black"/>
<path id="Vector_7" d="M505.607 194.706H496.246L498.921 282.958L517.641 435.393H548.395L535.024 325.746L541.71 264.238L588.51 253.54L575.138 192.032L505.607 194.706Z" fill="#2F2E41"/>
<path id="Vector_8" d="M520.315 431.381C520.315 431.381 517.641 450.101 518.978 451.438C520.315 452.776 521.652 454.113 521.652 456.787C521.652 459.461 537.698 466.147 545.721 460.798C553.744 455.45 548.395 447.427 548.395 447.427L540.372 431.381H520.315Z" fill="#2F2E41"/>
<path id="Vector_9" d="M514.967 60.9911C527.521 60.9911 537.698 50.8139 537.698 38.2596C537.698 25.7053 527.521 15.5281 514.967 15.5281C502.412 15.5281 492.235 25.7053 492.235 38.2596C492.235 50.8139 502.412 60.9911 514.967 60.9911Z" fill="#A0616A"/>
<path id="Vector_10" d="M528.338 74.363L510.849 67.338L500.258 198.717L573.801 204.066L548.395 69.014L537.03 58.343L528.338 74.363Z" fill="#E6E6E6"/>
<path id="Vector_11" d="M508.522 63.3695L494.909 74.3626L469.504 87.7341L478.864 171.974L480.201 220.112C480.201 220.112 462.818 262.9 476.189 273.598C489.561 284.295 504.269 280.283 501.595 257.552C498.921 234.82 493.572 218.775 518.978 194.706C544.384 170.637 522.135 57.7251 508.522 63.3695Z" fill="#2F2E41"/>
<path id="Vector_12" d="M535.648 55.5161L552.407 66.3397L575.138 78.3741L592.521 270.923L553.744 282.958C553.744 282.958 532.26 60.7383 535.648 55.5161Z" fill="#2F2E41"/>
<path id="Vector_13" d="M579.15 214.763C579.15 214.763 559.092 245.518 573.801 245.518C588.51 245.518 592.521 220.112 592.521 220.112L579.15 214.763Z" fill="#A0616A"/>
<path id="Vector_14" d="M496.246 214.763C496.246 214.763 516.304 245.518 501.595 245.518C486.886 245.518 482.875 220.112 482.875 220.112L496.246 214.763Z" fill="#A0616A"/>
<path id="Vector_15" d="M516.304 4.83089L509.618 0.819443L510.955 3.49374L505.607 2.15659L506.944 3.49374L500.258 2.15659L502.932 4.83089C502.932 4.83089 492.235 4.83089 490.898 15.5281L484.212 16.8652L486.886 20.8767V24.8881L489.561 27.5624V31.5739L492.235 38.2596L494.909 28.8996C494.909 28.8996 506.944 31.5739 512.292 20.8767C512.292 20.8767 513.629 24.8881 520.315 23.551L531.012 42.2711C531.012 42.2711 532.349 33.9721 537.029 32.773C541.709 31.5739 539.035 20.8767 539.035 20.8767C539.035 20.8767 535.024 16.8653 535.024 14.191C535.024 11.5167 531.012 8.84238 528.338 8.84238C525.664 8.84238 518.978 3.49377 518.978 3.49377L516.304 4.83089Z" fill="#2F2E41"/>
<path id="Vector_16" d="M480.201 89.0712L473.976 85.38L469.504 87.7341C469.504 87.7341 464.155 90.4084 462.818 99.7684C461.481 109.128 448.109 166.626 448.109 166.626C448.109 166.626 446.772 175.986 453.458 192.032C460.144 208.077 485.549 236.158 485.549 236.158L509.618 216.1L473.515 171.974L482.875 135.871L480.201 89.0712Z" fill="#2F2E41"/>
<path id="Vector_17" d="M564.441 78.374H575.138L592.521 143.894L597.87 225.46L572.464 216.1V157.266L564.441 78.374Z" fill="#2F2E41"/>
<g id="Product">
<path id="Vector_18" d="M340.372 131.025H155.746L63.433 290.916L155.746 450.807H340.372L432.685 290.916L340.372 131.025Z" fill="#FC6C42"/>
<path id="Vector_19" d="M171.2 424.039H324.918L401.777 290.916L324.918 157.792H171.2L94.3412 290.916L171.2 424.039Z" fill="white"/>
<path id="Vector_20" d="M190.701 157.594H188.701V240.15H190.701V157.594Z" fill="#3F3D56"/>
<path id="Vector_21" d="M189.701 250.587C192.846 250.587 195.395 248.038 195.395 244.894C195.395 241.75 192.846 239.201 189.701 239.201C186.557 239.201 184.008 241.75 184.008 244.894C184.008 248.038 186.557 250.587 189.701 250.587Z" fill="#FC6C42"/>
<path id="Vector_22" d="M233.402 157.594H231.402V240.15H233.402V157.594Z" fill="#3F3D56"/>
<path id="Vector_23" d="M232.402 250.587C235.546 250.587 238.095 248.038 238.095 244.894C238.095 241.75 235.546 239.201 232.402 239.201C229.258 239.201 226.709 241.75 226.709 244.894C226.709 248.038 229.258 250.587 232.402 250.587Z" fill="#3F3D56"/>
<path id="Vector_24" d="M308.366 157.594H306.366V240.15H308.366V157.594Z" fill="#3F3D56"/>
<path id="Vector_25" d="M307.366 250.587C310.51 250.587 313.059 248.038 313.059 244.894C313.059 241.75 310.51 239.201 307.366 239.201C304.221 239.201 301.672 241.75 301.672 244.894C301.672 248.038 304.221 250.587 307.366 250.587Z" fill="#3F3D56"/>
<path id="Vector_26" d="M276.052 332.193C279.196 332.193 281.745 329.644 281.745 326.5C281.745 323.356 279.196 320.807 276.052 320.807C272.907 320.807 270.358 323.356 270.358 326.5C270.358 329.644 272.907 332.193 276.052 332.193Z" fill="#3F3D56"/>
<path id="Vector_27" d="M160.285 280.004C163.43 280.004 165.979 277.455 165.979 274.31C165.979 271.166 163.43 268.617 160.285 268.617C157.141 268.617 154.592 271.166 154.592 274.31C154.592 277.455 157.141 280.004 160.285 280.004Z" fill="#3F3D56"/>
<path id="Vector_28" d="M277.052 321.755H275.052V222.276H232.402V220.276H277.052V321.755Z" fill="#3F3D56"/>
<path id="Vector_29" d="M202.986 368.252C206.13 368.252 208.679 365.703 208.679 362.558C208.679 359.414 206.13 356.865 202.986 356.865C199.842 356.865 197.292 359.414 197.292 362.558C197.292 365.703 199.842 368.252 202.986 368.252Z" fill="#FC6C42"/>
<path id="Vector_30" d="M203.986 357.814H201.986V258.334H159.336V256.334H203.986V357.814Z" fill="#3F3D56"/>
<path id="Vector_31" d="M334.884 323.653C338.028 323.653 340.577 321.104 340.577 317.96C340.577 314.815 338.028 312.266 334.884 312.266C331.74 312.266 329.191 314.815 329.191 317.96C329.191 321.104 331.74 323.653 334.884 323.653Z" fill="#FC6C42"/>
<path id="Vector_32" d="M335.884 313.215H333.884V213.736H306.417V211.736H335.884V313.215Z" fill="#3F3D56"/>
<path id="Vector_33" d="M161.285 268.616H159.285V219.155H189.701V221.155H161.285V268.616Z" fill="#3F3D56"/>
<path id="Vector_34" d="M232.876 390.551C236.021 390.551 238.57 388.002 238.57 384.858C238.57 381.713 236.021 379.164 232.876 379.164C229.732 379.164 227.183 381.713 227.183 384.858C227.183 388.002 229.732 390.551 232.876 390.551Z" fill="#3F3D56"/>
<path id="Vector_35" d="M233.876 379.164H231.876V331.703H203.46V329.703H233.876V379.164Z" fill="#3F3D56"/>
<path id="Vector_36" d="M305.468 348.325C308.612 348.325 311.161 345.776 311.161 342.631C311.161 339.487 308.612 336.938 305.468 336.938C302.323 336.938 299.774 339.487 299.774 342.631C299.774 345.776 302.323 348.325 305.468 348.325Z" fill="#3F3D56"/>
<path id="Vector_37" d="M306.468 336.938H304.468V287.477H334.884V289.477H306.468V336.938Z" fill="#3F3D56"/>
</g>
</g>
<defs>
<filter id="filter0_d" x="0" y="0.819443" width="604.737" height="469.995" filterUnits="userSpaceOnUse" color-interpolation-filters="sRGB">
<feFlood flood-opacity="0" result="BackgroundImageFix"/>
<feColorMatrix in="SourceAlpha" type="matrix" values="0 0 0 0 0 0 0 0 0 0 0 0 0 0 0 0 0 0 127 0"/>
<feOffset dy="4"/>
<feGaussianBlur stdDeviation="2"/>
<feColorMatrix type="matrix" values="0 0 0 0 0 0 0 0 0 0 0 0 0 0 0 0 0 0 0.25 0"/>
<feBlend mode="normal" in2="BackgroundImageFix" result="effect1_dropShadow"/>
<feBlend mode="normal" in="SourceGraphic" in2="effect1_dropShadow" result="shape"/>
</filter>
</defs>
</svg>
