<svg width="749" height="617" viewBox="0 0 749 617" fill="none" xmlns="http://www.w3.org/2000/svg">
<g id="iteration 3" filter="url(#filter0_d)">
<g id="Group 1">
<path id="Vector_17" d="M375.32 596.079C372.518 596.056 369.683 596.038 366.899 595.951L366.985 593.143C369.74 593.229 372.559 593.267 375.322 593.27C378.097 593.27 380.926 593.225 383.73 593.133L383.822 595.94C380.985 596.032 378.126 596.079 375.32 596.079ZM350.013 594.892C344.421 594.362 338.774 593.646 333.229 592.761L333.671 589.987C339.157 590.862 344.746 591.573 350.278 592.097L350.013 594.892ZM400.705 594.862L400.437 592.067C405.968 591.538 411.555 590.82 417.041 589.937L417.487 592.711C411.942 593.602 406.295 594.327 400.705 594.862ZM316.614 589.555C311.139 588.315 305.629 586.876 300.24 585.284L301.036 582.59C306.368 584.167 311.819 585.587 317.236 586.815L316.614 589.555ZM434.098 589.486L433.473 586.747C438.903 585.51 444.351 584.081 449.667 582.503L450.466 585.197C445.094 586.792 439.586 588.235 434.098 589.486ZM284.176 579.968C278.892 578.027 273.605 575.89 268.463 573.615L269.601 571.048C274.687 573.296 279.916 575.412 285.143 577.331L284.176 579.968ZM466.525 579.858L465.553 577.222C470.749 575.309 475.959 573.195 481.042 570.941L482.181 573.508C477.044 575.788 471.775 577.924 466.524 579.858H466.525ZM253.199 566.263C248.227 563.669 243.263 560.871 238.444 557.949L239.9 555.546C244.668 558.438 249.58 561.205 254.5 563.772L253.199 566.263ZM497.403 566.16L496.103 563.671C501.01 561.105 505.912 558.338 510.666 555.448L512.125 557.848C507.317 560.77 502.365 563.566 497.403 566.16ZM224.254 548.706C219.65 545.493 215.086 542.086 210.688 538.58L212.44 536.382C216.791 539.853 221.306 543.223 225.862 546.403L224.254 548.706ZM526.291 548.607L524.681 546.306C529.236 543.122 533.746 539.751 538.086 536.285L539.839 538.479C535.452 541.982 530.895 545.389 526.291 548.607ZM197.798 527.605C193.635 523.827 189.542 519.867 185.635 515.838L187.652 513.883C191.517 517.868 195.567 521.786 199.687 525.527L197.798 527.605ZM552.716 527.508L550.826 525.428C554.935 521.697 558.982 517.777 562.853 513.781L564.869 515.735C560.958 519.774 556.868 523.735 552.716 527.508ZM174.248 503.324C170.603 499.051 167.05 494.605 163.685 490.112L165.933 488.428C169.263 492.875 172.779 497.272 176.385 501.5L174.248 503.324ZM576.253 503.208L574.117 501.386C577.722 497.154 581.239 492.751 584.567 488.299L586.817 489.98C583.452 494.48 579.899 498.931 576.253 503.208ZM153.987 476.254C150.914 471.548 147.957 466.688 145.197 461.809L147.643 460.427C150.372 465.254 153.298 470.062 156.339 474.718L153.987 476.254ZM596.518 476.101L594.164 474.567C597.206 469.903 600.132 465.086 602.864 460.249L605.31 461.628C602.551 466.52 599.593 471.389 596.518 476.101ZM137.353 446.834C134.909 441.779 132.6 436.583 130.49 431.39L133.092 430.334C135.18 435.469 137.464 440.611 139.882 445.611L137.353 446.834ZM613.157 446.615L610.628 445.395C613.045 440.385 615.33 435.232 617.42 430.072L620.024 431.125C617.912 436.341 615.601 441.553 613.157 446.615ZM124.627 415.517C122.85 410.183 121.227 404.725 119.802 399.296L122.519 398.583C123.928 403.952 125.534 409.353 127.292 414.629L124.627 415.517ZM625.875 415.22L623.209 414.337C624.956 409.066 626.558 403.664 627.964 398.284L630.681 398.994C629.26 404.434 627.642 409.893 625.875 415.22ZM116.033 382.801C114.96 377.291 114.052 371.671 113.334 366.098L116.12 365.739C116.83 371.253 117.728 376.812 118.79 382.264L116.033 382.801ZM634.43 382.493L631.673 381.961C632.726 376.51 633.619 370.948 634.323 365.43L637.111 365.786C636.399 371.364 635.496 376.985 634.43 382.493ZM111.71 349.258C111.35 343.659 111.164 337.969 111.158 332.344L113.967 332.341C113.973 337.907 114.157 343.536 114.513 349.077L111.71 349.258ZM638.715 348.944L635.912 348.765C636.261 343.232 636.438 337.601 636.438 332.034L636.437 331.419H639.246L639.247 332.024C639.247 337.66 639.067 343.35 638.715 348.944ZM114.474 315.608L111.671 315.435C112.019 309.826 112.552 304.157 113.255 298.59L116.042 298.941C115.346 304.451 114.819 310.059 114.474 315.608ZM635.874 314.685C635.508 309.133 634.961 303.528 634.246 298.025L637.031 297.663C637.754 303.225 638.308 308.889 638.677 314.503L635.874 314.685ZM118.673 282.41L115.915 281.879C116.974 276.367 118.229 270.813 119.643 265.375L122.362 266.081C120.963 271.462 119.721 276.955 118.673 282.41ZM631.553 281.504C630.485 276.046 629.222 270.558 627.806 265.188L630.522 264.472C631.955 269.899 633.229 275.447 634.31 280.963L631.553 281.504ZM127.098 250.024L124.43 249.143C126.193 243.806 128.156 238.452 130.265 233.23L132.869 234.282C130.783 239.448 128.842 244.744 127.098 250.024ZM623.017 249.149C621.253 243.876 619.296 238.595 617.199 233.451L619.799 232.39C621.92 237.59 623.899 242.928 625.681 248.257L623.017 249.149ZM139.645 218.948L137.113 217.73C139.55 212.664 142.184 207.611 144.943 202.708L147.392 204.087C144.661 208.935 142.055 213.937 139.645 218.948ZM610.392 218.181C607.972 213.194 605.357 208.212 602.614 203.375L605.058 201.99C607.83 206.879 610.475 211.914 612.919 216.956L610.392 218.181ZM156.074 189.756L153.719 188.223C156.782 183.515 160.04 178.841 163.402 174.334L165.654 176.013C162.328 180.473 159.104 185.097 156.074 189.756ZM593.9 189.095C590.861 184.452 587.628 179.844 584.289 175.396L586.537 173.709C589.91 178.206 593.178 182.864 596.251 187.556L593.9 189.095ZM176.09 162.913L173.951 161.095C177.589 156.815 181.414 152.595 185.318 148.556L187.339 150.507C183.475 154.506 179.691 158.68 176.09 162.913ZM573.822 162.334C570.211 158.112 566.414 153.951 562.541 149.965L564.553 148.007C568.469 152.035 572.306 156.242 575.956 160.51L573.822 162.334ZM199.351 138.844L197.461 136.768C201.617 132.982 205.945 129.285 210.324 125.78L212.08 127.973C207.747 131.441 203.465 135.099 199.351 138.844ZM550.492 138.335C546.372 134.606 542.077 130.959 537.725 127.496L539.475 125.297C543.874 128.798 548.215 132.484 552.375 136.253L550.492 138.335ZM225.473 117.937L223.862 115.637C228.458 112.415 233.22 109.301 238.015 106.38L239.477 108.779C234.733 111.669 230.021 114.751 225.473 117.937ZM524.291 117.49C519.719 114.307 514.992 111.236 510.242 108.362L511.697 105.959C516.497 108.863 521.275 111.967 525.896 115.184L524.291 117.49ZM254.032 100.538L252.727 98.0503C257.694 95.4456 262.813 92.9673 267.94 90.6842L269.083 93.2504C264.01 95.5087 258.947 97.9611 254.032 100.538ZM495.633 100.153C490.701 97.5854 485.618 95.1446 480.524 92.898L481.659 90.3276C486.806 92.5983 491.945 95.0657 496.931 97.6608L495.633 100.153ZM284.565 86.9494L283.588 84.3146C288.855 82.3663 294.257 80.564 299.642 78.9585L300.444 81.651C295.117 83.2386 289.774 85.0216 284.565 86.9494ZM464.973 86.6305C459.753 84.7206 454.404 82.9567 449.076 81.389L449.868 78.6938C455.254 80.2786 460.662 82.0618 465.94 83.993L464.973 86.6305ZM316.632 77.3889L316.006 74.6512C321.47 73.3989 327.058 72.3078 332.611 71.406L333.062 74.1793C327.566 75.0709 322.038 76.1503 316.632 77.3889ZM432.872 77.1845C427.455 75.9637 421.924 74.9036 416.43 74.0326L416.871 71.2578C422.423 72.1385 428.014 73.2104 433.489 74.4441L432.872 77.1845ZM349.663 72.0295L349.392 69.2341C354.968 68.6931 360.649 68.3234 366.274 68.1362L366.367 70.9438C360.801 71.1291 355.181 71.4945 349.663 72.0295ZM399.822 71.9424C394.295 71.426 388.673 71.0803 383.114 70.915L383.197 68.1074C388.816 68.2748 394.497 68.6239 400.083 69.1458L399.822 71.9424Z" fill="#D0CDE1"/>
<g id="round_01">
<path id="Vector_18" d="M365.371 141.022C401.827 141.022 431.382 111.468 431.382 75.0112C431.382 38.5542 401.827 9 365.371 9C328.914 9 299.36 38.5542 299.36 75.0112C299.36 111.468 328.914 141.022 365.371 141.022Z" fill="#F96A42"/>
<path id="Vector_19" d="M393.659 69.7484H370.634C368.539 69.7484 366.532 68.9167 365.052 67.4362C363.572 65.9557 362.739 63.9477 362.739 61.854V38.829C362.739 38.7427 362.722 38.6571 362.69 38.5772C362.656 38.4974 362.608 38.425 362.546 38.3639C362.486 38.3028 362.413 38.2543 362.333 38.2212C362.253 38.1882 362.169 38.1712 362.082 38.1712H346.951C344.159 38.1712 341.482 39.2802 339.509 41.254C337.534 43.2281 336.426 45.9053 336.426 48.6969V101.326C336.426 104.117 337.534 106.794 339.509 108.768C341.482 110.742 344.159 111.851 346.951 111.851H383.791C386.583 111.851 389.26 110.742 391.233 108.768C393.208 106.794 394.316 104.117 394.316 101.326V70.4061C394.316 70.3198 394.299 70.2342 394.267 70.1545C394.233 70.0745 394.185 70.0021 394.124 69.941C394.063 69.8799 393.99 69.8314 393.91 69.7984C393.83 69.7654 393.746 69.7484 393.659 69.7484ZM378.528 96.0626H352.214C351.516 96.0626 350.847 95.7854 350.353 95.292C349.86 94.7984 349.583 94.1292 349.583 93.4313C349.583 92.7333 349.86 92.064 350.353 91.5705C350.847 91.0771 351.516 90.7998 352.214 90.7998H378.528C379.226 90.7998 379.895 91.0771 380.389 91.5705C380.882 92.064 381.159 92.7333 381.159 93.4313C381.159 94.1292 380.882 94.7984 380.389 95.292C379.895 95.7854 379.226 96.0626 378.528 96.0626ZM378.528 82.9054H352.214C351.516 82.9054 350.847 82.6282 350.353 82.1348C349.86 81.6413 349.583 80.972 349.583 80.2741C349.583 79.5762 349.86 78.9069 350.353 78.4133C350.847 77.9199 351.516 77.6427 352.214 77.6427H378.528C379.226 77.6427 379.895 77.9199 380.389 78.4133C380.882 78.9069 381.159 79.5762 381.159 80.2741C381.159 80.972 380.882 81.6413 380.389 82.1348C379.895 82.6282 379.226 82.9054 378.528 82.9054Z" fill="white"/>
<path id="Vector_20" d="M392.215 63.9247L368.563 40.273C368.517 40.2273 368.458 40.1962 368.395 40.1836C368.331 40.1711 368.265 40.1775 368.205 40.2024C368.146 40.2271 368.094 40.2691 368.058 40.3229C368.022 40.3767 368.003 40.44 368.003 40.5049V61.8541C368.003 62.552 368.279 63.2212 368.772 63.7148C369.267 64.2082 369.935 64.4854 370.633 64.4854H391.983C392.048 64.4853 392.111 64.4657 392.164 64.4297C392.219 64.3934 392.261 64.3422 392.285 64.2822C392.31 64.2223 392.316 64.1563 392.303 64.0927C392.292 64.0291 392.26 63.9707 392.215 63.9246V63.9247Z" fill="white"/>
</g>
<path id="Vector_21" d="M550.481 517.063C549.672 517.065 548.886 517.345 548.261 517.859C547.636 518.372 547.208 519.087 547.051 519.881C546.893 520.675 547.016 521.499 547.398 522.212C547.78 522.925 548.398 523.486 549.145 523.795C549.893 524.104 550.725 524.145 551.499 523.909C552.274 523.674 552.943 523.177 553.392 522.504C553.841 521.831 554.044 521.022 553.964 520.218C553.884 519.411 553.528 518.659 552.955 518.087C552.629 517.763 552.245 517.506 551.819 517.329C551.395 517.153 550.94 517.063 550.481 517.063Z" fill="white"/>
<g id="round_03">
<path id="Vector_22" d="M540.933 596.079C577.389 596.079 606.944 566.524 606.944 530.068C606.944 493.611 577.389 464.056 540.933 464.056C504.476 464.056 474.921 493.611 474.921 530.068C474.921 566.524 504.476 596.079 540.933 596.079Z" fill="#F96A42"/>
<path id="Vector_23" d="M569.956 503.074V503.062C569.845 502.577 569.601 502.132 569.25 501.777C568.9 501.423 568.458 501.173 567.973 501.058C564.067 500.104 557.923 501.119 551.114 503.847C544.566 506.392 538.574 510.185 533.473 515.017C532.08 516.402 530.786 517.883 529.601 519.451C526.98 519.27 524.354 519.691 521.924 520.684C514.355 524.014 512.194 532.538 511.618 536.038C511.535 536.535 511.567 537.045 511.713 537.527C511.859 538.01 512.115 538.452 512.461 538.82C512.805 539.188 513.23 539.47 513.702 539.647C514.174 539.824 514.681 539.889 515.182 539.838H515.199L523.631 538.918C523.64 539.027 523.652 539.125 523.661 539.215C523.77 540.242 524.227 541.201 524.959 541.931L529.073 546.048C529.802 546.779 530.761 547.239 531.788 547.347L532.07 547.376L531.152 555.796V555.813C531.108 556.242 531.149 556.674 531.271 557.087C531.395 557.499 531.597 557.883 531.869 558.218C532.14 558.551 532.475 558.829 532.852 559.034C533.232 559.237 533.646 559.367 534.074 559.41C534.175 559.42 534.277 559.427 534.378 559.427C534.56 559.427 534.742 559.413 534.921 559.383C538.441 558.816 546.961 556.681 550.282 549.073C551.267 546.65 551.69 544.035 551.521 541.426C553.094 540.243 554.581 538.948 555.97 537.553C560.799 532.5 564.597 526.556 567.153 520.052C569.865 513.32 570.886 507.129 569.956 503.074ZM555.924 525.996C554.847 527.074 553.475 527.809 551.98 528.107C550.486 528.404 548.938 528.253 547.529 527.67C546.122 527.088 544.918 526.101 544.072 524.836C543.225 523.569 542.771 522.08 542.771 520.556C542.77 519.032 543.22 517.543 544.067 516.275C544.913 515.008 546.115 514.021 547.522 513.437C548.93 512.852 550.479 512.699 551.973 512.996C553.468 513.292 554.84 514.025 555.918 515.102L555.924 515.108C557.368 516.529 558.187 518.468 558.202 520.494C558.218 522.521 557.427 524.47 556.006 525.914L555.924 525.996Z" fill="white"/>
<path id="Vector_24" d="M528.601 547.164C528.094 547.101 527.582 547.226 527.16 547.514C526.323 548.087 525.481 548.653 524.632 549.205C524.263 549.442 523.825 549.549 523.389 549.507C522.952 549.466 522.542 549.28 522.225 548.976C521.908 548.674 521.701 548.274 521.638 547.84C521.576 547.406 521.66 546.964 521.879 546.584L523.472 543.831C523.7 543.499 523.826 543.107 523.837 542.704C523.847 542.299 523.742 541.902 523.533 541.558C523.322 541.212 523.017 540.935 522.655 540.76C522.291 540.584 521.885 540.517 521.485 540.566C519.717 540.789 518.075 541.594 516.815 542.855C516.334 543.336 514.877 544.796 514.092 550.36C513.867 551.958 513.726 553.566 513.669 555.18C513.662 555.455 513.709 555.729 513.808 555.986C513.906 556.243 514.055 556.478 514.245 556.677C514.434 556.878 514.662 557.038 514.913 557.149C515.165 557.261 515.437 557.323 515.712 557.33C515.729 557.33 515.747 557.33 515.766 557.33H515.819C517.433 557.273 519.042 557.133 520.642 556.912C526.208 556.125 527.669 554.664 528.149 554.184C529.415 552.924 530.218 551.274 530.427 549.5C530.495 548.948 530.34 548.392 529.999 547.954C529.656 547.517 529.153 547.232 528.601 547.164Z" fill="white"/>
</g>
<g id="round_04">
<path id="Vector_25" d="M223.517 607.315C259.973 607.315 289.528 577.76 289.528 541.303C289.528 504.847 259.973 475.292 223.517 475.292C187.06 475.292 157.505 504.847 157.505 541.303C157.505 577.76 187.06 607.315 223.517 607.315Z" fill="#F96A42"/>
<path id="Vector_26" d="M200.799 577.174H196.016C195.065 577.174 194.152 576.796 193.48 576.124C192.807 575.451 192.429 574.538 192.429 573.587V552.065C192.429 551.114 192.807 550.201 193.48 549.528C194.152 548.855 195.065 548.478 196.016 548.478H200.799C201.75 548.478 202.663 548.855 203.336 549.528C204.008 550.201 204.386 551.114 204.386 552.065V573.587C204.386 574.538 204.008 575.451 203.336 576.124C202.663 576.796 201.75 577.174 200.799 577.174Z" fill="white"/>
<path id="Vector_27" d="M234.278 577.174H229.496C228.544 577.174 227.632 576.796 226.959 576.124C226.287 575.451 225.909 574.538 225.909 573.587V537.716C225.909 536.765 226.287 535.853 226.959 535.18C227.632 534.507 228.544 534.129 229.496 534.129H234.278C235.229 534.129 236.142 534.507 236.815 535.18C237.487 535.853 237.865 536.765 237.865 537.716V573.587C237.865 574.538 237.487 575.451 236.815 576.124C236.142 576.796 235.229 577.174 234.278 577.174Z" fill="white"/>
<path id="Vector_28" d="M251.018 577.174H246.235C245.284 577.174 244.371 576.796 243.698 576.124C243.025 575.451 242.648 574.538 242.648 573.587V520.976C242.648 520.025 243.025 519.112 243.698 518.44C244.371 517.768 245.284 517.389 246.235 517.389H251.018C251.969 517.389 252.882 517.768 253.553 518.44C254.226 519.112 254.605 520.025 254.605 520.976V573.587C254.605 574.538 254.226 575.451 253.553 576.124C252.882 576.796 251.969 577.174 251.018 577.174Z" fill="white"/>
<path id="Vector_29" d="M217.538 577.174H212.755C211.805 577.174 210.892 576.796 210.219 576.124C209.546 575.451 209.168 574.538 209.168 573.587V509.02C209.168 508.069 209.546 507.156 210.219 506.483C210.892 505.81 211.805 505.432 212.755 505.432H217.538C218.49 505.432 219.401 505.81 220.074 506.483C220.747 507.156 221.125 508.069 221.125 509.02V573.587C221.125 574.058 221.032 574.524 220.852 574.959C220.673 575.395 220.407 575.791 220.074 576.124C219.741 576.456 219.347 576.72 218.911 576.9C218.476 577.081 218.01 577.174 217.538 577.174Z" fill="white"/>
</g>
<g id="round_02">
<path id="Vector_30" d="M620.989 320.798C657.445 320.798 687 291.243 687 254.787C687 218.33 657.445 188.775 620.989 188.775C584.532 188.775 554.978 218.33 554.978 254.787C554.978 291.243 584.532 320.798 620.989 320.798Z" fill="#F96A42"/>
<path id="Vector_31" d="M624.152 253.058L620.735 249.639C619.951 248.857 618.891 248.416 617.784 248.413C616.677 248.41 615.614 248.845 614.828 249.624L591.071 271.548C590.198 272.32 589.665 273.404 589.585 274.566C589.559 275.143 589.653 275.719 589.861 276.258C590.068 276.798 590.385 277.288 590.79 277.699L595.894 282.86L595.903 282.868C596.691 283.654 597.759 284.098 598.872 284.101H599.027C599.604 284.069 600.169 283.923 600.688 283.673C601.21 283.421 601.674 283.07 602.059 282.639L624.137 258.992C624.926 258.209 625.371 257.146 625.377 256.035C625.381 254.924 624.944 253.858 624.162 253.069L624.152 253.058Z" fill="white"/>
<path id="Vector_32" d="M651.612 246.149L651.572 246.108L647.087 241.67C646.824 241.407 646.513 241.201 646.17 241.06C645.826 240.919 645.458 240.848 645.087 240.85C644.487 240.851 643.902 241.041 643.414 241.392C643.414 241.336 643.421 241.281 643.426 241.232C643.607 240.086 643.365 238.913 642.744 237.931C641.757 236.6 640.673 235.343 639.5 234.17L639.489 234.16C636.211 231.014 632.358 228.529 628.14 226.84C625.935 225.934 623.576 225.47 621.194 225.472C618.11 225.444 615.112 226.493 612.719 228.44C612.038 229.09 611.417 229.801 610.864 230.562C610.6 230.927 610.459 231.368 610.466 231.819C610.472 232.27 610.624 232.706 610.897 233.065C611.171 233.423 611.553 233.683 611.987 233.805C612.421 233.928 612.883 233.909 613.305 233.747C613.671 233.611 614.046 233.496 614.427 233.403C615.22 233.236 616.034 233.185 616.841 233.253C618.517 233.428 620.122 234.017 621.513 234.966C622.292 235.624 622.913 236.448 623.327 237.379C623.74 238.312 623.938 239.324 623.902 240.344C623.322 241.999 622.433 243.529 621.285 244.857C620.979 245.26 620.83 245.76 620.864 246.265C620.899 246.771 621.117 247.247 621.475 247.604L625.978 252.108C626.357 252.487 626.865 252.706 627.402 252.722C627.937 252.737 628.458 252.546 628.857 252.188C630.131 251.052 632.07 249.337 632.747 248.917C633.327 248.529 633.983 248.271 634.671 248.157C635.184 248.108 635.701 248.216 636.149 248.469C636.152 248.492 636.149 248.514 636.142 248.536C636.135 248.558 636.124 248.577 636.108 248.594L635.871 248.82L635.831 248.857C635.302 249.383 635.004 250.1 635.003 250.847C635.001 251.594 635.296 252.31 635.823 252.84L635.837 252.854L640.322 257.291C640.584 257.553 640.896 257.76 641.239 257.9C641.583 258.041 641.949 258.112 642.32 258.11C643.066 258.111 643.781 257.819 644.313 257.298L651.576 250.124C651.601 250.098 651.626 250.073 651.649 250.046C652.136 249.513 652.403 248.813 652.397 248.09C652.39 247.368 652.11 246.674 651.612 246.149Z" fill="white"/>
</g>
<g id="round_05">
<path id="Vector_33" d="M128.011 320.798C164.468 320.798 194.022 291.243 194.022 254.787C194.022 218.33 164.468 188.775 128.011 188.775C91.5542 188.775 62 218.33 62 254.787C62 291.243 91.5542 320.798 128.011 320.798Z" fill="#F96A42"/>
<path id="Vector_34" d="M138.492 250.857C137.974 250.857 137.467 250.702 137.036 250.414C136.605 250.126 136.27 249.718 136.071 249.239C135.873 248.76 135.821 248.233 135.922 247.725C136.023 247.216 136.273 246.75 136.639 246.383L142.647 240.375L136.639 234.368C136.148 233.876 135.872 233.209 135.872 232.514C135.872 231.82 136.148 231.153 136.639 230.661C137.131 230.17 137.797 229.895 138.492 229.895C139.187 229.895 139.853 230.17 140.345 230.661L148.205 238.522C148.449 238.765 148.642 239.055 148.773 239.372C148.905 239.691 148.973 240.031 148.973 240.375C148.973 240.719 148.905 241.06 148.773 241.378C148.642 241.695 148.449 241.985 148.205 242.227L140.345 250.088C140.102 250.333 139.813 250.525 139.495 250.657C139.177 250.789 138.836 250.857 138.492 250.857Z" fill="white"/>
<path id="Vector_35" d="M96.5687 258.716C96.2246 258.716 95.8839 258.649 95.566 258.517C95.2481 258.386 94.9593 258.192 94.7159 257.949C94.4726 257.706 94.2797 257.417 94.1479 257.1C94.0163 256.781 93.9485 256.441 93.9485 256.097V253.476C93.969 249.315 95.6309 245.329 98.5731 242.385C101.515 239.441 105.5 237.778 109.662 237.756H143.733C144.427 237.756 145.094 238.031 145.585 238.522C146.077 239.014 146.353 239.68 146.353 240.375C146.353 241.07 146.077 241.737 145.585 242.227C145.094 242.719 144.427 242.996 143.733 242.996H109.67C106.894 243.013 104.236 244.122 102.274 246.086C100.312 248.05 99.2033 250.708 99.1889 253.484V256.097C99.1889 256.441 99.1212 256.781 98.9895 257.1C98.8579 257.417 98.6648 257.706 98.4215 257.949C98.1783 258.192 97.8894 258.386 97.5715 258.517C97.2535 258.649 96.9128 258.716 96.5687 258.716Z" fill="white"/>
<path id="Vector_36" d="M117.53 279.678C117.186 279.678 116.845 279.611 116.528 279.479C116.21 279.348 115.921 279.155 115.678 278.912L107.817 271.051C107.574 270.808 107.381 270.518 107.249 270.201C107.117 269.882 107.05 269.542 107.05 269.198C107.05 268.854 107.117 268.513 107.249 268.195C107.381 267.876 107.574 267.589 107.817 267.346L115.678 259.485C116.169 258.993 116.836 258.718 117.53 258.719C118.224 258.719 118.89 258.994 119.381 259.486C119.873 259.978 120.149 260.643 120.149 261.337C120.149 262.032 119.874 262.698 119.383 263.19L113.375 269.198L119.383 275.205C119.75 275.572 119.999 276.039 120.1 276.548C120.201 277.055 120.149 277.583 119.951 278.06C119.753 278.539 119.417 278.949 118.986 279.237C118.555 279.525 118.049 279.678 117.53 279.678Z" fill="white"/>
<path id="Vector_37" d="M112.29 271.817C111.595 271.817 110.929 271.542 110.437 271.051C109.946 270.559 109.67 269.893 109.67 269.198C109.67 268.503 109.946 267.836 110.437 267.345C110.929 266.854 111.595 266.577 112.29 266.577H146.353C149.129 266.56 151.786 265.451 153.748 263.487C155.71 261.522 156.819 258.865 156.833 256.088V253.476C156.833 252.781 157.109 252.115 157.601 251.624C158.092 251.132 158.759 250.857 159.454 250.857C160.149 250.857 160.815 251.132 161.306 251.624C161.798 252.115 162.074 252.781 162.074 253.476V256.097C162.053 260.258 160.391 264.244 157.449 267.188C154.507 270.132 150.522 271.795 146.36 271.817H112.29Z" fill="white"/>
</g>
</g>
</g>
<defs>
<filter id="filter0_d" x="-4" y="0" width="757" height="625" filterUnits="userSpaceOnUse" color-interpolation-filters="sRGB">
<feFlood flood-opacity="0" result="BackgroundImageFix"/>
<feColorMatrix in="SourceAlpha" type="matrix" values="0 0 0 0 0 0 0 0 0 0 0 0 0 0 0 0 0 0 127 0"/>
<feOffset dy="4"/>
<feGaussianBlur stdDeviation="2"/>
<feColorMatrix type="matrix" values="0 0 0 0 0 0 0 0 0 0 0 0 0 0 0 0 0 0 0.25 0"/>
<feBlend mode="normal" in2="BackgroundImageFix" result="effect1_dropShadow"/>
<feBlend mode="normal" in="SourceGraphic" in2="effect1_dropShadow" result="shape"/>
</filter>
</defs>
</svg>
