<svg width="601" height="665" viewBox="0 0 601 665" fill="none" xmlns="http://www.w3.org/2000/svg">
<g id="Group 1">
<path id="Vector" d="M138.925 664.374C215.651 664.374 277.849 602.175 277.849 525.449C277.849 448.723 215.651 386.524 138.925 386.524C62.1987 386.524 0 448.723 0 525.449C0 602.175 62.1987 664.374 138.925 664.374Z" fill="#F2F2F2"/>
<path id="Vector_2" d="M306.979 587.069C239.068 587.069 173.258 563.522 120.761 520.44C68.2655 477.358 32.3316 417.407 19.0827 350.8C5.83376 284.194 16.0895 215.055 48.1024 155.163C80.1152 95.2706 131.905 48.3313 194.646 22.3428C257.388 -3.6457 327.199 -7.07543 392.186 12.638C457.173 32.3514 513.314 73.9883 551.043 130.454C588.773 186.92 605.756 254.721 599.099 322.305C592.443 389.889 562.559 453.074 514.538 501.095C487.345 528.437 454.998 550.115 419.37 564.872C383.743 579.63 345.542 587.174 306.979 587.069V587.069ZM306.979 2.24072C146.359 2.24072 15.685 132.914 15.685 293.534C15.685 454.154 146.359 584.828 306.979 584.828C467.598 584.828 598.272 454.154 598.272 293.534C598.272 132.914 467.598 2.24072 306.979 2.24072V2.24072Z" fill="#2F2E41"/>
<g id="Cube">
<path id="Vector_3" d="M459.908 386.443L459.875 386.46L315.201 467.019L156.779 387.808L154.049 386.443L162.271 222.003L305.334 120.05L306.913 121.037L454.975 213.781L459.908 386.443Z" fill="#F96A42"/>
<path id="Vector_4" opacity="0.3" d="M459.875 386.46L315.201 467.019L156.779 387.808L297.112 289.424L459.875 386.46Z" fill="black"/>
<path id="Vector_5" opacity="0.1" d="M459.908 386.443L297.112 289.424L306.913 121.037L454.975 213.781L459.908 386.443Z" fill="black"/>
<path id="Vector_6" d="M160.165 272.745L159.361 271.607L304.021 169.5L456.834 265.309L456.094 266.49L304.066 171.173L160.165 272.745Z" fill="#F2F2F2"/>
<path id="Vector_7" d="M157.361 328.61L156.579 327.458L300.505 229.743L300.882 229.957L456.963 318.417L456.275 319.629L300.571 231.382L157.361 328.61Z" fill="#F2F2F2"/>
<path id="Vector_8" d="M212.276 415.965L211.542 414.781L356.595 324.9V152.594H357.988V325.676L212.276 415.965Z" fill="#F2F2F2"/>
<path id="Vector_9" d="M269.209 444.428L268.469 443.248L408.138 355.645V184.879H409.531V356.416L269.209 444.428Z" fill="#F2F2F2"/>
<path id="Vector_10" d="M407.612 415.982L245.176 325.73L245.199 325.296L253.75 156.281L255.141 156.352L246.612 324.933L408.289 414.764L407.612 415.982Z" fill="#F2F2F2"/>
<path id="Vector_11" d="M356.507 444.455L195.895 360.288L195.92 359.841L205.388 190.742L206.779 190.82L197.337 359.471L357.154 443.221L356.507 444.455Z" fill="#F2F2F2"/>
</g>
<path id="Vector_12" d="M487.357 119.879C518.294 119.879 543.375 94.7987 543.375 63.8608C543.375 32.9229 518.294 7.84279 487.357 7.84279C456.419 7.84279 431.339 32.9229 431.339 63.8608C431.339 94.7987 456.419 119.879 487.357 119.879Z" fill="#3F3D56"/>
</g>
</svg>
