<svg width="982" height="810" viewBox="0 0 982 810" fill="none" xmlns="http://www.w3.org/2000/svg">
<g id="mobile_scroll 1" filter="url(#filter0_d)">
<path id="Vector" d="M629.409 79.1001V689.12C629.407 696.388 626.519 703.358 621.379 708.497C616.238 713.635 609.267 716.521 601.999 716.52H354.339C347.071 716.521 340.1 713.635 334.959 708.497C329.819 703.358 326.93 696.388 326.929 689.12V79.1001C326.929 75.5004 327.637 71.936 329.015 68.6103C330.392 65.2847 332.411 62.2629 334.956 59.7176C337.502 57.1722 340.524 55.1532 343.849 53.7759C347.175 52.3985 350.739 51.6897 354.339 51.6901H391.399V56.4501C391.401 62.4355 393.779 68.1752 398.011 72.4076C402.244 76.6399 407.984 79.0184 413.969 79.0201H539.919C545.905 79.0201 551.646 76.6422 555.878 72.4095C560.111 68.1768 562.489 62.436 562.489 56.4501V51.6901H601.999C605.599 51.6897 609.163 52.3985 612.489 53.7759C615.814 55.1532 618.836 57.1722 621.381 59.7176C623.927 62.2629 625.946 65.2847 627.323 68.6103C628.7 71.936 629.409 75.5004 629.409 79.1001Z" fill="#F2F2F2"/>
<path id="Vector_2" d="M666.721 174.526H669.175C669.783 174.526 670.366 174.767 670.796 175.197C671.225 175.627 671.467 176.21 671.467 176.817V257.254C671.467 257.862 671.225 258.445 670.796 258.875C670.366 259.305 669.783 259.546 669.175 259.546H666.721" stroke="#3F3D56" stroke-miterlimit="10"/>
<path id="Vector_3" d="M321.616 135.909H319.842C319.443 135.909 319.061 135.751 318.779 135.469C318.497 135.187 318.338 134.804 318.338 134.406V109.423C318.338 109.024 318.497 108.642 318.779 108.36C319.061 108.078 319.443 107.92 319.842 107.92H321.616" stroke="#3F3D56" stroke-miterlimit="10"/>
<path id="Vector_4" d="M321.337 207.882H319.823C319.373 207.882 318.942 207.703 318.624 207.385C318.307 207.067 318.128 206.636 318.128 206.187V160.858C318.128 160.635 318.172 160.415 318.257 160.209C318.342 160.004 318.467 159.817 318.624 159.66C318.782 159.502 318.968 159.377 319.174 159.292C319.38 159.207 319.6 159.163 319.823 159.163H321.616" stroke="#3F3D56" stroke-miterlimit="10"/>
<path id="Vector_5" d="M321.337 274.067H319.846C319.418 274.067 319.008 273.897 318.706 273.594C318.403 273.292 318.233 272.882 318.233 272.454V226.54C318.233 226.113 318.403 225.702 318.706 225.4C319.008 225.098 319.418 224.928 319.846 224.928H321.337" stroke="#3F3D56" stroke-miterlimit="10"/>
<path id="Vector_6" d="M631.027 15.4231H357.31C337.597 15.4231 321.616 31.4038 321.616 51.117V681.103C321.616 700.816 337.597 716.797 357.31 716.797H631.027C650.74 716.797 666.721 700.816 666.721 681.103V51.117C666.721 31.4038 650.74 15.4231 631.027 15.4231Z" stroke="#3F3D56" stroke-miterlimit="10"/>
<path id="Vector_7" d="M504.529 39.368H461.42C460.016 39.368 458.878 40.5061 458.878 41.9099V46.6119C458.878 48.0157 460.016 49.1538 461.42 49.1538H504.529C505.933 49.1538 507.071 48.0157 507.071 46.6119V41.9099C507.071 40.5061 505.933 39.368 504.529 39.368Z" fill="#F2F2F2"/>
<path id="Vector_8" d="M519.908 49.8114C522.973 49.8114 525.458 47.3264 525.458 44.2609C525.458 41.1955 522.973 38.7104 519.908 38.7104C516.842 38.7104 514.357 41.1955 514.357 44.2609C514.357 47.3264 516.842 49.8114 519.908 49.8114Z" fill="#F2F2F2"/>
<path id="Vector_9" d="M506.529 36.368H463.42C462.016 36.368 460.878 37.5061 460.878 38.9099V43.6119C460.878 45.0157 462.016 46.1538 463.42 46.1538H506.529C507.933 46.1538 509.071 45.0157 509.071 43.6119V38.9099C509.071 37.5061 507.933 36.368 506.529 36.368Z" stroke="#3F3D56" stroke-miterlimit="10"/>
<path id="Vector_10" d="M521.908 46.8114C524.973 46.8114 527.458 44.3264 527.458 41.2609C527.458 38.1955 524.973 35.7104 521.908 35.7104C518.842 35.7104 516.357 38.1955 516.357 41.2609C516.357 44.3264 518.842 46.8114 521.908 46.8114Z" stroke="#3F3D56" stroke-miterlimit="10"/>
<path id="Vector_11" d="M645.409 61.1001V671.12C645.407 678.388 642.519 685.358 637.379 690.497C632.238 695.635 625.267 698.521 617.999 698.52H370.339C363.071 698.521 356.1 695.635 350.959 690.497C345.819 685.358 342.93 678.388 342.929 671.12V61.1001C342.929 57.5004 343.637 53.936 345.015 50.6103C346.392 47.2847 348.411 44.2629 350.956 41.7176C353.502 39.1722 356.524 37.1532 359.849 35.7759C363.175 34.3985 366.739 33.6897 370.339 33.6901H407.399V38.4501C407.401 44.4355 409.779 50.1752 414.011 54.4076C418.244 58.6399 423.984 61.0184 429.969 61.0201H555.919C561.905 61.0201 567.646 58.6422 571.878 54.4095C576.111 50.1768 578.489 44.436 578.489 38.4501V33.6901H617.999C621.599 33.6897 625.163 34.3985 628.489 35.7759C631.814 37.1532 634.836 39.1722 637.381 41.7176C639.927 44.2629 641.946 47.2847 643.323 50.6103C644.7 53.936 645.409 57.5004 645.409 61.1001Z" stroke="#3F3D56" stroke-miterlimit="10"/>
<path id="Vector_12" d="M382.579 91.9901H351.579V95.9901H382.579V91.9901Z" stroke="#3F3D56" stroke-miterlimit="10"/>
<path id="Vector_13" d="M382.579 98.9901H351.579V102.99H382.579V98.9901Z" stroke="#3F3D56" stroke-miterlimit="10"/>
<path id="Vector_14" d="M382.579 105.99H351.579V109.99H382.579V105.99Z" stroke="#3F3D56" stroke-miterlimit="10"/>
<path id="Vector_15" d="M631.244 101.99H630.326L629.981 101.702C631.13 100.331 631.76 98.5986 631.761 96.8092C631.751 95.3399 631.306 93.9064 630.482 92.6898C629.658 91.4733 628.492 90.5282 627.131 89.974C625.77 89.4199 624.275 89.2814 622.836 89.5762C621.396 89.8709 620.076 90.5857 619.043 91.6301C618.009 92.6746 617.309 94.0019 617.029 95.4445C616.749 96.887 616.904 98.38 617.472 99.735C618.041 101.09 618.998 102.246 620.223 103.057C621.448 103.868 622.886 104.298 624.356 104.293C626.14 104.282 627.864 103.651 629.235 102.508L629.579 102.796V103.717L635.319 109.474L637.041 107.747L631.244 101.99ZM624.356 101.99C623.33 101.993 622.327 101.692 621.473 101.124C620.619 100.557 619.953 99.7485 619.559 98.8021C619.164 97.8556 619.06 96.8135 619.258 95.8075C619.456 94.8016 619.948 93.8771 620.672 93.151C621.396 92.425 622.319 91.9301 623.325 91.729C624.33 91.5279 625.373 91.6296 626.32 92.0213C627.268 92.413 628.078 93.077 628.648 93.9294C629.217 94.7817 629.522 95.7839 629.522 96.8092C629.526 97.4894 629.395 98.1636 629.136 98.7929C628.878 99.4223 628.498 99.9942 628.018 100.476C627.538 100.958 626.967 101.339 626.338 101.599C625.71 101.859 625.036 101.992 624.356 101.99Z" stroke="#3F3D56" stroke-miterlimit="10"/>
<g id="Section_1">
<path id="Vector_16" d="M578.532 194H365.626C358.697 194 353.079 199.618 353.079 206.547V313.453C353.079 320.382 358.697 326 365.626 326H578.532C585.461 326 591.079 320.382 591.079 313.453V206.547C591.079 199.618 585.461 194 578.532 194Z" fill="#FC6C42"/>
<path id="Vector_17" d="M591.532 169H378.626C371.697 169 366.079 174.618 366.079 181.547V288.453C366.079 295.382 371.697 301 378.626 301H591.532C598.461 301 604.079 295.382 604.079 288.453V181.547C604.079 174.618 598.461 169 591.532 169Z" stroke="#3F3D56" stroke-miterlimit="10"/>
<path id="Vector_18" d="M447.547 264.519L468.539 286.153C468.997 286.614 469.544 286.978 470.147 287.22C470.751 287.463 471.398 287.579 472.048 287.563H472.11C472.76 287.579 473.407 287.463 474.01 287.22C474.614 286.978 475.161 286.614 475.619 286.153L496.61 264.519C497.074 264.086 497.443 263.562 497.696 262.98C497.949 262.398 498.079 261.77 498.079 261.136C498.079 260.501 497.949 259.873 497.696 259.291C497.443 258.709 497.074 258.185 496.61 257.752C495.65 256.854 494.385 256.354 493.07 256.354C491.755 256.354 490.49 256.854 489.53 257.752L477.092 270.754V237.231C477.034 235.94 476.481 234.722 475.547 233.829C474.613 232.936 473.371 232.437 472.079 232.437C470.787 232.437 469.545 232.936 468.611 233.829C467.677 234.722 467.124 235.94 467.066 237.231V270.754L454.628 257.752C453.668 256.854 452.403 256.354 451.088 256.354C449.773 256.354 448.508 256.854 447.548 257.752C447.084 258.185 446.715 258.709 446.462 259.291C446.209 259.873 446.079 260.501 446.079 261.136C446.079 261.77 446.209 262.398 446.462 262.98C446.715 263.562 447.084 264.086 447.548 264.519H447.547Z" fill="white"/>
</g>
<g id="Section_2">
<path id="Vector_19" d="M391.626 552H604.532C611.461 552 617.079 546.382 617.079 539.453V432.547C617.079 425.618 611.461 420 604.532 420H391.626C384.696 420 379.079 425.618 379.079 432.547V539.453C379.079 546.382 384.696 552 391.626 552Z" fill="#FC6C42"/>
<path id="Vector_20" d="M378.626 527H591.532C598.461 527 604.079 521.382 604.079 514.453V407.547C604.079 400.618 598.461 395 591.532 395H378.626C371.696 395 366.079 400.618 366.079 407.547V514.453C366.079 521.382 371.696 527 378.626 527Z" stroke="#3F3D56" stroke-miterlimit="10"/>
<path id="Vector_21" d="M522.61 490.519C523.074 490.086 523.443 489.562 523.696 488.98C523.949 488.398 524.079 487.77 524.079 487.136C524.079 486.501 523.949 485.873 523.696 485.291C523.443 484.709 523.074 484.185 522.61 483.752C521.65 482.854 520.385 482.354 519.07 482.354C517.755 482.354 516.49 482.854 515.53 483.752L503.092 496.754V463.231C503.034 461.94 502.481 460.721 501.547 459.829C500.613 458.936 499.371 458.437 498.079 458.437C496.787 458.437 495.545 458.936 494.611 459.829C493.677 460.721 493.124 461.94 493.066 463.231V496.754L480.628 483.752C479.668 482.854 478.403 482.354 477.088 482.354C475.773 482.354 474.508 482.854 473.548 483.752C473.084 484.185 472.715 484.709 472.462 485.291C472.209 485.873 472.079 486.501 472.079 487.136C472.079 487.77 472.209 488.398 472.462 488.98C472.715 489.562 473.084 490.086 473.548 490.519L494.539 512.153C494.997 512.614 495.544 512.978 496.148 513.22C496.751 513.463 497.398 513.579 498.048 513.563H498.11C498.76 513.579 499.407 513.463 500.01 513.22C500.614 512.978 501.161 512.614 501.619 512.153L522.61 490.519Z" fill="white"/>
</g>
<path id="Vector_22" d="M220.909 765.098L220.908 765.1C220.908 765.1 220.594 765.275 220.057 765.547C220.346 765.397 220.63 765.248 220.909 765.098Z" fill="url(#paint0_linear)"/>
<path id="Vector_23" d="M101.643 660.302C94.1404 681.872 102.895 716.886 106.96 732.515C111.021 748.148 112.273 766.905 112.273 766.905C128.216 769.404 139.784 766.277 139.784 766.277L133.22 734.081C137.909 715.01 133.22 664.054 133.22 664.054C133.22 664.054 143.845 644.359 144.783 614.349C145.707 584.807 152.989 575.26 153.219 574.965L153.223 574.96C168.229 582.777 187.299 666.558 187.299 666.558C185.738 686.876 187.613 718.138 193.864 735.019C197.655 745.741 199.25 757.116 198.553 768.466C200.738 770.314 203.777 770.628 207.059 770.098C215.987 768.654 226.688 760.964 226.688 760.964C226.688 760.964 223.251 669.681 220.747 666.243C218.248 662.806 220.747 643.112 220.747 643.112L216.686 611.226C216.686 611.226 217.31 557.141 211.369 547.763C206.243 539.665 205.062 525.434 204.832 521.696C204.799 521.105 204.785 520.777 204.785 520.777L195.74 509.941C195.74 509.941 108.208 503.376 101.643 509.941C100.03 511.554 99.0359 515.216 98.445 519.83C96.6397 534.01 98.7077 557.141 98.7077 557.141C98.7077 557.141 101.334 574.336 105.085 591.841C107.339 602.35 107.339 613.218 105.085 623.727C106.319 636.027 105.15 648.449 101.643 660.302Z" fill="#575A89"/>
<path id="Vector_24" d="M107.115 797.384C111.021 802.542 133.998 800.353 137.909 798.744C140.296 797.759 140.117 793.267 139.47 788.639C139.062 785.694 138.462 782.693 138.218 780.503C137.595 774.876 140.094 763.463 140.094 763.463C140.094 763.463 134.936 768.935 133.688 763.463C133.141 761.071 131.217 759.845 129.226 759.222C126.547 758.414 123.667 758.595 121.111 759.731C117.051 761.492 110.275 765.248 111.49 770.328C113.211 777.507 107.115 787.692 107.115 787.692C106.642 788.288 106.258 788.95 105.976 789.657C105.439 790.925 105.261 792.317 105.462 793.68C105.663 795.043 106.235 796.325 107.115 797.384Z" fill="#CBCEDA"/>
<path id="Vector_25" opacity="0.1" d="M107.115 797.384C111.021 802.542 133.998 800.353 137.909 798.744C140.296 797.759 140.117 793.267 139.47 788.639C137.004 789.794 132.807 790.753 125.812 790.106C124.179 789.953 122.539 789.903 120.899 789.955C115.924 790.179 110.939 790.079 105.976 789.657C105.439 790.925 105.261 792.317 105.462 793.68C105.663 795.043 106.235 796.325 107.115 797.384Z" fill="black"/>
<path id="Vector_26" opacity="0.1" d="M187.299 666.558C185.738 686.876 187.613 718.138 193.864 735.019C197.655 745.741 199.25 757.116 198.553 768.466C200.738 770.314 203.777 770.628 207.059 770.098C205.174 756.912 197.137 700.104 191.988 655.224C186.127 604.112 158.696 568.944 158.696 568.944L153.223 574.96C168.229 582.777 187.299 666.558 187.299 666.558Z" fill="black"/>
<path id="Vector_27" d="M116.493 338.004L120.31 356.761L139.001 388.178L162.058 378.331C162.058 378.331 193.395 345.507 173.701 340.818C171.341 340.313 169.113 339.321 167.16 337.906C163.296 334.989 162.076 330.75 162.058 326.6C162.211 321.948 163.3 317.374 165.26 313.152L124.934 300.491C126.599 305.789 127.571 311.281 127.827 316.828C128.137 327.81 124.057 333.221 120.709 335.8C119.463 336.807 118.03 337.556 116.493 338.004Z" fill="#FBBEBE"/>
<path id="Vector_28" opacity="0.1" d="M124.934 300.491C126.599 305.789 127.571 311.281 127.827 316.828C128.562 317.702 129.345 318.535 130.172 319.323C134.336 323.3 139.498 326.076 145.111 327.357C150.725 328.638 156.581 328.377 162.058 326.6C162.211 321.948 163.3 317.374 165.26 313.152L124.934 300.491Z" fill="black"/>
<path id="Vector_29" opacity="0.1" d="M116.493 338.004L120.31 356.761L139.001 388.178L162.058 378.331C162.058 378.331 193.395 345.507 173.701 340.818C171.341 340.313 169.113 339.321 167.16 337.906C170.719 347.678 156.037 368.015 156.037 368.015C154.33 370.528 150.41 368.953 150.41 368.953C140.957 367.522 123.546 340.325 120.709 335.8C119.463 336.807 118.03 337.556 116.493 338.004Z" fill="black"/>
<path id="Vector_30" opacity="0.1" d="M98.445 519.83C103.992 521.091 134.706 527.895 146.349 526.193C159.165 524.318 184.083 523.07 184.083 523.07C184.083 523.07 199.951 523.928 204.832 521.696C204.799 521.105 204.785 520.777 204.785 520.777L195.74 509.941C195.74 509.941 108.208 503.376 101.643 509.941C100.03 511.554 99.0358 515.216 98.445 519.83Z" fill="black"/>
<path id="Vector_31" d="M156.039 368.953C156.039 368.953 172.532 346.103 166.317 337.208L194.177 348.633C194.177 348.633 210.946 346.6 216.997 371.625C217.967 375.785 218.316 380.065 218.033 384.327C217.813 388.1 218.326 394.743 222.624 403.34C229.501 417.094 227.938 448.668 213.871 451.794C199.804 454.92 194.802 453.357 194.802 453.357C194.802 453.357 196.678 510.564 204.805 517.129C212.933 523.694 184.082 522.131 184.082 522.131C184.082 522.131 159.165 523.381 146.348 525.257C133.531 527.133 97.5807 518.692 97.5807 518.692C97.5807 518.692 102.895 494.621 104.771 479.303C106.646 463.986 111.023 431.368 111.023 431.368L79.1368 388.178C79.1368 388.178 73.5098 362.075 93.2042 350.509C112.899 338.942 120.31 336.098 120.31 336.098C120.31 336.098 140.095 368.327 150.412 369.89C150.412 369.89 154.33 371.465 156.039 368.953Z" fill="#3F3D56"/>
<path id="Vector_32" opacity="0.1" d="M192.614 378.018C192.614 378.018 192.926 388.334 191.051 392.398C189.175 396.462 182.298 418.97 182.298 418.97H197.928C197.928 418.97 189.488 409.904 190.113 405.528C190.738 401.151 192.614 378.018 192.614 378.018Z" fill="black"/>
<path id="Vector_33" d="M146.348 455.858C146.348 455.858 180.865 447.417 184.082 440.227C187.299 433.037 196.167 416.947 196.167 416.947L192.523 412.04L175.733 425.222C175.733 425.222 155.726 441.165 146.348 442.728C136.969 444.291 146.348 455.858 146.348 455.858Z" fill="#FBBEBE"/>
<path id="Vector_34" opacity="0.05" d="M146.348 455.858C146.348 455.858 180.865 447.417 184.082 440.227C187.299 433.037 196.167 416.947 196.167 416.947L192.523 412.04L175.733 425.222C175.733 425.222 155.726 441.165 146.348 442.728C136.969 444.291 146.348 455.858 146.348 455.858Z" fill="black"/>
<path id="Vector_35" d="M116.493 415.22V433.949H119.504C134.377 433.948 149.005 437.734 162.011 444.949L167.652 448.082L169.171 448.926L178.859 427.098L169.795 418.972C169.795 418.972 169.631 418.99 169.331 419.014C167.113 419.229 157.523 420.031 153.458 418.657C149.599 417.349 144.802 413.19 133.431 416.097C127.832 417.527 123.049 423.806 117.614 421.846L116.493 415.22Z" fill="#FBBEBE"/>
<path id="Vector_36" opacity="0.1" d="M86.3268 381.144L80.0746 388.178V405.215C80.0746 405.215 85.3889 458.984 102.27 464.923C119.151 470.863 149.285 461.485 149.285 461.485C149.285 461.485 157.068 440.853 153.427 439.602C149.786 438.352 121.248 430.814 121.248 430.814C121.248 430.814 121.652 399.276 115.399 389.897C115.399 389.897 119.463 360.512 105.396 359.887C91.3285 359.262 86.3268 381.144 86.3268 381.144Z" fill="black"/>
<path id="Vector_37" d="M85.3889 381.144L79.1367 388.178V405.215C79.1367 405.215 84.4511 458.984 101.332 464.923C118.213 470.863 148.347 461.485 148.347 461.485C148.347 461.485 156.13 440.853 152.489 439.602C148.848 438.352 120.31 430.814 120.31 430.814C120.31 430.814 120.714 399.276 114.462 389.897C114.462 389.897 118.525 360.512 104.458 359.887C90.3907 359.262 85.3889 381.144 85.3889 381.144Z" fill="#3F3D56"/>
<path id="Vector_38" opacity="0.1" d="M129.056 308.885C128.784 306.828 129.029 304.736 129.768 302.798C130.65 300.932 132.713 299.46 134.725 299.933C137.402 300.557 138.556 304.041 141.177 304.876C143.386 305.579 145.801 304.013 146.856 301.945C147.911 299.882 147.939 297.462 147.944 295.146C147.948 292.534 147.954 289.922 147.962 287.31C147.967 284.469 148.051 281.397 149.805 279.165C151.985 276.385 157.106 275.17 160.524 275.283C162.802 275.307 164.986 276.188 166.644 277.749C168.477 279.306 170.592 280.45 173.087 280.042C174.125 279.884 175.097 279.436 175.891 278.749C176.685 278.062 177.269 277.164 177.574 276.159C177.584 276.127 177.592 276.094 177.598 276.061C174.938 272.555 171.581 269.637 167.739 267.491C163.896 265.345 159.651 264.018 155.271 263.594C150.89 263.169 146.469 263.656 142.286 265.024C138.103 266.391 134.248 268.61 130.965 271.54C127.681 274.471 125.04 278.049 123.207 282.05C121.374 286.051 120.389 290.389 120.315 294.789C120.24 299.189 121.078 303.558 122.774 307.619C124.47 311.679 126.989 315.345 130.172 318.385C129.624 315.241 129.251 312.07 129.056 308.885Z" fill="black"/>
<g id="Head">
<path id="Vector_39" d="M120.31 295.333C120.311 301.639 122.181 307.804 125.685 313.047C129.188 318.29 134.168 322.377 139.994 324.79C145.82 327.203 152.231 327.835 158.416 326.604C164.601 325.374 170.282 322.337 174.741 317.878C179.201 313.419 182.237 307.738 183.468 301.553C184.698 295.368 184.067 288.957 181.653 283.131C179.24 277.305 175.154 272.325 169.91 268.821C164.667 265.318 158.503 263.447 152.197 263.447C148.005 263.432 143.851 264.246 139.976 265.843C136.1 267.439 132.579 269.788 129.615 272.752C126.651 275.716 124.303 279.237 122.706 283.113C121.109 286.988 120.295 291.142 120.31 295.333Z" fill="#FBBEBE"/>
<path id="Vector_40" d="M173.087 279.105C174.126 278.946 175.098 278.498 175.892 277.811C176.686 277.123 177.27 276.226 177.576 275.221C177.839 274.212 177.77 273.135 178.067 272.135C178.797 269.679 181.419 268.399 183.176 266.534C186.699 262.797 186.47 256.649 183.977 252.16C181.964 248.536 178.06 245.477 173.976 246.185C171.448 246.624 169.261 248.426 166.7 248.588C164.235 248.744 161.977 247.363 159.73 246.338C154.309 243.885 148.217 243.344 142.45 244.804C140.676 245.157 139.033 245.986 137.695 247.202C136.786 248.344 135.939 249.534 135.159 250.767C132.243 254.481 127.027 255.206 122.381 256.049C117.735 256.892 112.477 258.725 110.95 263.194C109.938 266.156 110.92 269.374 111.501 272.45C111.693 273.081 111.649 273.76 111.377 274.361C110.653 275.56 108.838 275.058 107.467 275.346C104.831 275.899 104.154 279.295 104.057 281.987C103.946 285.067 103.862 288.149 103.806 291.231C103.731 292.382 103.823 293.537 104.079 294.662C104.652 296.267 105.558 297.733 106.737 298.964L117.06 311.365C121.637 316.863 126.497 323.272 125.575 330.366C127.744 331.34 130.32 329.467 131.032 327.198C131.743 324.929 131.169 322.485 130.687 320.156C129.854 316.131 129.308 312.051 129.055 307.948C128.782 305.892 129.028 303.8 129.77 301.862C130.65 299.993 132.715 298.524 134.726 298.994C137.404 299.62 138.556 303.103 141.176 303.938C143.385 304.642 145.803 303.073 146.856 301.008C147.909 298.943 147.937 296.526 147.943 294.208L147.961 286.372C147.968 283.533 148.052 280.459 149.804 278.225C151.984 275.446 157.107 274.232 160.526 274.343C162.803 274.369 164.986 275.25 166.643 276.81C168.478 278.368 170.59 279.512 173.087 279.105Z" fill="#3F3D56"/>
</g>
<path id="Vector_41" opacity="0.1" d="M165.886 377.237L156.096 417.452C156.096 417.452 148.38 417.407 165.886 377.237Z" fill="black"/>
<path id="Vector_42" opacity="0.1" d="M132.437 370.516C132.437 370.516 145.253 391.506 140.252 413.21L137.864 413.384C137.864 413.384 142.127 403.34 132.437 370.516Z" fill="black"/>
<path id="Vector_43" opacity="0.1" d="M124.309 489.307C124.309 489.307 108.571 484.101 107.428 496.184C107.428 496.184 110.398 487.9 124.309 489.307Z" fill="black"/>
<path id="Vector_44" opacity="0.1" d="M169.793 419.908C169.793 419.908 172.919 441.79 167.292 450.543C167.292 450.543 178.738 455.233 194.802 454.295L196.678 419.908H169.793Z" fill="black"/>
<path id="Vector_45" opacity="0.1" d="M167.652 448.082L169.171 448.926L178.859 427.098L169.795 418.971H169.326C169.326 418.986 169.328 419 169.331 419.014C169.471 420.022 171.999 438.816 167.652 448.082Z" fill="black"/>
<path id="Vector_46" d="M169.793 418.97C169.793 418.97 172.919 440.853 167.292 449.606C167.292 449.606 178.738 454.295 194.802 453.357L205.743 418.97H169.793Z" fill="#3F3D56"/>
<path id="Vector_47" d="M194.832 792.073C195.014 793.632 195.709 795.086 196.808 796.208C197.907 797.329 199.347 798.053 200.903 798.266C209.393 799.534 229.84 795.768 235.004 798.225C241.569 801.353 267.514 799.163 268.766 796.04C268.942 795.414 268.993 794.76 268.916 794.114C268.839 793.469 268.635 792.845 268.316 792.279C267.428 790.373 265.961 788.796 264.124 787.773C263.526 787.433 262.896 787.153 262.243 786.938C257.357 785.306 248.124 781.846 245.634 778.221C245.634 778.221 234.13 768.154 230.846 762.71C230.229 761.64 229.358 760.739 228.31 760.086C227.261 759.433 226.068 759.048 224.836 758.967C222.097 758.844 219.047 760.222 217.8 766.222C217.8 766.222 202.804 774.779 198.743 767.277C198.743 767.277 198.119 785.802 195.63 788.954C195.625 788.958 195.62 788.968 195.615 788.972C195.287 789.412 195.048 789.912 194.914 790.444C194.78 790.976 194.752 791.53 194.832 792.073Z" fill="#CBCEDA"/>
<path id="Vector_48" opacity="0.1" d="M194.832 792.073C195.014 793.632 195.709 795.086 196.808 796.208C197.907 797.329 199.347 798.053 200.903 798.266C209.393 799.534 229.84 795.768 235.004 798.225C241.569 801.353 267.514 799.163 268.766 796.04C268.942 795.414 268.993 794.76 268.916 794.114C268.839 793.469 268.635 792.845 268.316 792.279C267.428 790.373 265.961 788.796 264.124 787.773C259.894 790.577 250.502 793.325 229.846 790.099C210.142 787.023 200.389 791.007 195.629 788.954C195.625 788.958 195.62 788.968 195.615 788.972C195.287 789.412 195.048 789.912 194.914 790.444C194.78 790.976 194.752 791.53 194.832 792.073Z" fill="black"/>
<g id="Group" opacity="0.1">
<path id="Vector_49" opacity="0.1" d="M111.53 272.889C111.521 272.839 111.513 272.789 111.504 272.739C111.061 270.397 110.388 267.972 110.538 265.641C110.739 267.556 111.062 269.458 111.504 271.333C111.633 271.842 111.642 272.375 111.53 272.889Z" fill="black"/>
<path id="Vector_50" opacity="0.1" d="M129.772 302.151C129.279 303.278 129.018 304.493 129.005 305.724C128.863 304.027 129.126 302.32 129.772 300.745C130.652 298.876 132.717 297.406 134.728 297.877C137.406 298.503 138.558 301.985 141.178 302.82C143.387 303.524 145.805 301.956 146.858 299.891C147.911 297.825 147.939 295.408 147.945 293.09C147.951 290.478 147.957 287.866 147.963 285.254C147.97 282.415 148.054 279.342 149.806 277.108C151.986 274.328 157.109 273.114 160.528 273.225C162.805 273.252 164.988 274.132 166.645 275.693C168.48 277.25 170.592 278.394 173.09 277.987C174.128 277.829 175.1 277.38 175.894 276.693C176.689 276.006 177.272 275.108 177.578 274.104C177.841 273.094 177.772 272.018 178.069 271.018C178.799 268.562 181.421 267.281 183.179 265.417C184.819 263.601 185.755 261.256 185.815 258.81C185.944 260.254 185.777 261.711 185.324 263.089C184.87 264.467 184.14 265.738 183.179 266.824C181.421 268.688 178.799 269.969 178.069 272.425C177.772 273.424 177.841 274.501 177.578 275.51C177.272 276.515 176.689 277.413 175.894 278.1C175.1 278.787 174.128 279.236 173.09 279.394C170.592 279.801 168.48 278.657 166.645 277.099C164.988 275.539 162.805 274.658 160.528 274.632C157.109 274.521 151.986 275.735 149.806 278.514C148.054 280.748 147.97 283.822 147.963 286.661C147.957 289.273 147.951 291.885 147.945 294.497C147.939 296.815 147.911 299.232 146.858 301.297C145.805 303.363 143.387 304.931 141.178 304.227C138.558 303.392 137.406 299.91 134.728 299.283C132.717 298.813 130.652 300.283 129.772 302.151Z" fill="black"/>
<path id="Vector_51" opacity="0.1" d="M104.081 293.544C104.655 295.149 105.56 296.615 106.739 297.847C110.18 301.98 113.621 306.114 117.062 310.248C121.407 315.468 126.005 321.51 125.67 328.179C125.356 322.065 121.1 316.505 117.062 311.654C113.621 307.521 110.18 303.387 106.739 299.253C105.56 298.022 104.655 296.556 104.081 294.951C103.825 293.827 103.733 292.672 103.808 291.521C103.817 292.204 103.909 292.883 104.081 293.544Z" fill="black"/>
<path id="Vector_52" opacity="0.1" d="M131.034 326.081C131.201 325.537 131.305 324.976 131.343 324.408C131.432 325.445 131.327 326.489 131.034 327.487C130.323 329.756 127.746 331.629 125.577 330.656C125.636 330.202 125.671 329.745 125.684 329.288C127.831 330.155 130.334 328.313 131.034 326.081Z" fill="black"/>
</g>
<path id="Vector_53" opacity="0.1" d="M232.908 765.539C232.908 765.539 229.641 771.288 217.8 766.222L232.908 765.539Z" fill="black"/>
<path id="Vector_54" opacity="0.1" d="M134.808 765.924C134.808 765.924 124.593 777.947 111.726 769.867L134.808 765.924Z" fill="black"/>
<path id="Vector_55" opacity="0.1" d="M105.085 623.727C105.085 623.727 112.3 628.234 112.534 630.813C112.769 633.392 108.81 628.938 108.81 628.938L105.085 623.727Z" fill="black"/>
<path id="Vector_56" opacity="0.1" d="M102.237 658.292C104.747 660.381 107.867 661.599 111.128 661.762C116.52 661.996 116.071 669.03 112.544 666.92C109.018 664.81 102.237 658.292 102.237 658.292Z" fill="black"/>
<path id="Vector_57" opacity="0.1" d="M100.864 662.803C100.864 662.803 104.328 679.815 107.142 676.532L100.864 662.803Z" fill="black"/>
<path id="Vector_58" d="M17.7096 645.652C20.7389 646.753 23.9825 647.136 27.1849 646.77C30.3873 646.404 33.4608 645.299 36.1633 643.542C38.8658 641.785 41.1233 639.425 42.758 636.647C44.3926 633.869 45.3597 630.749 45.583 627.534C45.8062 624.318 45.2796 621.095 44.0446 618.118C42.8096 615.14 40.8999 612.491 38.4662 610.377C36.0324 608.264 33.1411 606.745 30.0201 605.94C26.899 605.134 23.6336 605.065 20.4812 605.737L21.0021 616.449L15.934 607.269C10.9599 609.606 7.11718 613.822 5.25032 618.991C4.58732 620.802 4.18427 622.697 4.05319 624.621C3.73326 629.135 4.89335 633.63 7.35766 637.425C9.82197 641.22 13.4562 644.108 17.7096 645.652Z" fill="#57B894"/>
<path id="Vector_59" d="M42.7869 769.896C40.9979 760.785 48.7503 752.709 56.4078 747.459C64.0654 742.209 73.0128 737.051 75.6256 728.142C79.3806 715.338 68.1956 703.612 59.4899 693.501C53.0312 685.996 47.4846 677.753 42.9663 668.943C41.1553 665.411 39.4908 661.718 39.0141 657.777C38.3277 652.101 40.1511 646.454 41.988 641.04C48.1075 623.006 54.6503 605.122 61.6165 587.39" stroke="#3F3D56" stroke-miterlimit="10"/>
<path id="Vector_60" d="M18.5667 642.894C21.596 643.996 24.8397 644.378 28.042 644.012C31.2444 643.646 34.318 642.541 37.0204 640.784C39.7229 639.027 41.9805 636.667 43.6151 633.889C45.2497 631.111 46.2168 627.991 46.4401 624.776C46.6634 621.56 46.1367 618.337 44.9017 615.36C43.6667 612.382 41.7571 609.733 39.3233 607.619C36.8895 605.506 33.9982 603.987 30.8772 603.182C27.7561 602.376 24.4907 602.307 21.3383 602.979L21.8593 613.691L16.7911 604.511C11.817 606.848 7.9743 611.064 6.10744 616.233C5.44444 618.044 5.04139 619.94 4.91031 621.863C4.59038 626.377 5.75047 630.872 8.21478 634.667C10.6791 638.462 14.3133 641.35 18.5667 642.894Z" stroke="#3F3D56" stroke-miterlimit="10"/>
<path id="Vector_61" d="M40.2432 583.691C41.432 580.411 43.4273 577.482 46.0451 575.176C48.663 572.87 51.8193 571.259 55.2231 570.493L56.9367 580.677L60.1137 569.981C64.5248 570.047 68.8011 571.512 72.325 574.166C75.8489 576.82 78.4381 580.526 79.7189 584.747C80.9996 588.969 80.9056 593.488 79.4505 597.653C77.9953 601.818 75.2542 605.412 71.623 607.918C67.9918 610.423 63.6583 611.709 59.2483 611.591C54.8383 611.473 50.5798 609.957 47.0879 607.261C43.5959 604.565 41.051 600.829 39.8207 596.592C38.5904 592.356 38.7384 587.838 40.2432 583.691Z" fill="#57B894"/>
<path id="Vector_62" d="M41.386 580.013C42.5748 576.733 44.5701 573.805 47.1879 571.499C49.8058 569.192 52.9621 567.582 56.3659 566.816L58.0795 577L61.2565 566.304C65.6676 566.369 69.9439 567.835 73.4678 570.489C76.9917 573.143 79.5809 576.849 80.8617 581.07C82.1424 585.292 82.0485 589.811 80.5933 593.976C79.1381 598.141 76.397 601.735 72.7658 604.24C69.1346 606.746 64.8011 608.032 60.3911 607.914C55.9811 607.796 51.7226 606.28 48.2307 603.584C44.7387 600.888 42.1938 597.152 40.9635 592.915C39.7332 588.679 39.8812 584.161 41.3859 580.013H41.386Z" stroke="#3F3D56" stroke-miterlimit="10"/>
<path id="Vector_63" d="M55.8365 693.707C60.6407 695.45 65.9181 695.364 70.6628 693.465C75.4076 691.567 79.288 687.989 81.5643 683.414C83.8406 678.838 84.3537 673.585 83.0058 668.655C81.6579 663.726 78.5433 659.465 74.2556 656.684L71.8143 664.903L70.0833 654.6C70.0662 654.592 70.0485 654.585 70.0303 654.58C67.4608 653.646 64.7324 653.227 62.001 653.348C59.2697 653.469 56.589 654.127 54.112 655.285C51.6351 656.442 49.4104 658.076 47.5652 660.093C45.72 662.111 44.2904 664.472 43.3581 667.042C42.4258 669.612 42.009 672.341 42.1316 675.072C42.2541 677.803 42.9137 680.484 44.0725 682.96C45.2313 685.436 46.8667 687.66 48.8853 689.504C50.9038 691.348 53.2659 692.776 55.8365 693.707Z" fill="#57B894"/>
<path id="Vector_64" d="M56.8268 689.982C61.6309 691.725 66.9083 691.639 71.6531 689.74C76.3978 687.842 80.2782 684.264 82.5545 679.689C84.8308 675.113 85.3439 669.86 83.996 664.931C82.6481 660.001 79.5335 655.74 75.2458 652.96L72.8045 661.179L71.0735 650.875C71.0564 650.867 71.0387 650.86 71.0205 650.855C68.4509 649.921 65.7225 649.503 62.9912 649.624C60.2599 649.745 57.5792 650.403 55.1022 651.56C52.6253 652.717 50.4006 654.351 48.5554 656.369C46.7102 658.386 45.2806 660.747 44.3483 663.317C43.4159 665.888 42.9991 668.616 43.1217 671.347C43.2443 674.079 43.9039 676.759 45.0627 679.235C46.2215 681.712 47.8569 683.935 49.8754 685.779C51.8939 687.623 54.256 689.051 56.8267 689.982H56.8268Z" stroke="#3F3D56" stroke-miterlimit="10"/>
<path id="Vector_65" d="M34.1696 728.27C34.9956 732.97 37.4127 737.243 41.0154 740.373C44.6181 743.502 49.1873 745.298 53.9568 745.459C58.7264 745.619 63.4061 744.135 67.2112 741.255C71.0162 738.375 73.7153 734.274 74.8557 729.64C75.996 725.006 75.5083 720.121 73.4744 715.804C71.4405 711.486 67.984 708 63.6846 705.929C59.3853 703.858 54.5045 703.328 49.8608 704.428C45.2172 705.529 41.0931 708.192 38.1802 711.972L47.4529 725.929L34.7829 718.521C33.8005 721.675 33.5902 725.018 34.1696 728.27Z" fill="#57B894"/>
<path id="Vector_66" d="M35.0267 725.512C35.8527 730.212 38.2698 734.485 41.8725 737.615C45.4752 740.744 50.0444 742.54 54.8139 742.701C59.5835 742.861 64.2632 741.377 68.0683 738.497C71.8734 735.617 74.5724 731.516 75.7128 726.882C76.8531 722.248 76.3655 717.363 74.3315 713.046C72.2976 708.729 68.8411 705.242 64.5417 703.171C60.2424 701.1 55.3616 700.57 50.718 701.67C46.0743 702.771 41.9502 705.434 39.0373 709.214L48.31 723.171L35.64 715.763C34.6577 718.917 34.4473 722.26 35.0267 725.512Z" stroke="#3F3D56" stroke-miterlimit="10"/>
<path id="Vector_67" d="M13.8915 782.236C13.8915 782.236 32.257 775.038 37.7919 771.097C43.3268 767.156 66.0426 762.45 67.4157 768.771C68.7887 775.092 95.0155 800.208 74.281 800.376C53.5465 800.543 26.1032 803.778 20.579 800.413C15.0548 797.048 13.8915 782.236 13.8915 782.236Z" fill="#656380"/>
<path id="Vector_68" opacity="0.2" d="M74.651 798.175C53.9165 798.343 26.4733 801.577 20.949 798.212C16.742 795.65 15.0656 786.454 14.5046 782.212C14.1162 782.228 13.8915 782.236 13.8915 782.236C13.8915 782.236 15.0548 797.048 20.579 800.413C26.1033 803.778 53.5465 800.543 74.281 800.376C80.2662 800.327 82.3336 798.198 82.2201 795.044C81.3886 796.95 79.1059 798.139 74.651 798.175Z" fill="black"/>
<path id="Vector_69" d="M54.8161 799.555H326.816" stroke="#3F3D56" stroke-miterlimit="10"/>
</g>
<defs>
<filter id="filter0_d" x="-4" y="0" width="990" height="818" filterUnits="userSpaceOnUse" color-interpolation-filters="sRGB">
<feFlood flood-opacity="0" result="BackgroundImageFix"/>
<feColorMatrix in="SourceAlpha" type="matrix" values="0 0 0 0 0 0 0 0 0 0 0 0 0 0 0 0 0 0 127 0"/>
<feOffset dy="4"/>
<feGaussianBlur stdDeviation="2"/>
<feColorMatrix type="matrix" values="0 0 0 0 0 0 0 0 0 0 0 0 0 0 0 0 0 0 0.25 0"/>
<feBlend mode="normal" in2="BackgroundImageFix" result="effect1_dropShadow"/>
<feBlend mode="normal" in="SourceGraphic" in2="effect1_dropShadow" result="shape"/>
</filter>
<linearGradient id="paint0_linear" x1="220.483" y1="765.547" x2="220.483" y2="765.098" gradientUnits="userSpaceOnUse">
<stop stop-color="#808080" stop-opacity="0.25"/>
<stop offset="0.53514" stop-color="#808080" stop-opacity="0.12"/>
<stop offset="1" stop-color="#808080" stop-opacity="0.1"/>
</linearGradient>
</defs>
</svg>
