<svg width="689" height="695" viewBox="0 0 689 695" fill="none" xmlns="http://www.w3.org/2000/svg">
<g id="mobile_scoll_3 3">
<g id="mobile_scoll_3 1" filter="url(#filter0_d)">
<g id="toOpacity" opacity="0.2">
<path id="Ellipse 92" d="M344.5 686.689C532.553 686.689 685 677.735 685 666.689C685 655.643 532.553 646.689 344.5 646.689C156.447 646.689 4 655.643 4 666.689C4 677.735 156.447 686.689 344.5 686.689Z" fill="#E6E6E6"/>
<path id="Path 607" d="M390 158.431H386.337V58.08C386.337 42.6762 380.218 27.9034 369.326 17.0112C358.434 6.11913 343.661 0 328.257 0H115.651C100.247 0 85.4744 6.11913 74.5823 17.0112C63.6902 27.9034 57.571 42.6762 57.571 58.08V608.61C57.571 624.014 63.6902 638.787 74.5823 649.679C85.4744 660.571 100.247 666.69 115.651 666.69H328.257C343.661 666.69 358.434 660.571 369.326 649.679C380.218 638.787 386.337 624.014 386.337 608.61V229.862H390V158.431Z" fill="#3F3D56"/>
<path id="Path 608" d="M373.975 58.486V608.205C373.975 619.709 369.405 630.741 361.27 638.875C353.136 647.01 342.104 651.58 330.6 651.58H116.974C105.471 651.579 94.4386 647.01 86.3045 638.875C78.1704 630.741 73.6005 619.709 73.6 608.206V58.486C73.6002 46.9823 78.1702 35.9499 86.3045 27.8155C94.4388 19.6812 105.471 15.1113 116.975 15.111H142.891C141.617 18.2402 141.132 21.6344 141.478 24.9951C141.825 28.3558 142.991 31.5799 144.876 34.3839C146.76 37.1878 149.305 39.4857 152.286 41.0753C155.267 42.6649 158.594 43.4975 161.972 43.5H283.772C287.151 43.4977 290.477 42.6652 293.458 41.0756C296.439 39.4861 298.984 37.1882 300.869 34.3843C302.754 31.5803 303.92 28.3561 304.267 24.9954C304.613 21.6346 304.128 18.2403 302.854 15.111H330.6C342.104 15.1113 353.136 19.6812 361.27 27.8155C369.405 35.9499 373.975 46.9823 373.975 58.486Z" fill="white"/>
<path id="Path 609" d="M172.286 474.693H167.793L169.293 386.937H170.793L172.286 474.693Z" fill="#E6E6E6"/>
<path id="Path 610" d="M176.029 331.687L183.281 320.48C181.13 314.539 178.646 308.725 175.841 303.064L171.152 306.852L174.865 301.114C171.326 294.149 168.542 289.76 168.542 289.76C168.542 289.76 154 312.677 149.139 336.945L158.445 351.327L148.145 343.006C147.778 345.833 147.589 348.68 147.58 351.53C147.58 380.269 156.966 403.566 168.544 403.566C180.122 403.566 189.508 380.266 189.508 351.53C189.508 342.621 187.492 333.3 184.708 324.677L176.029 331.687Z" fill="#CCCCCC"/>
<path id="Path 611" d="M289.245 474.693H284.752L286.252 386.937H287.752L289.245 474.693Z" fill="#E6E6E6"/>
<path id="Path 612" d="M292.988 331.687L300.24 320.48C298.089 314.539 295.605 308.725 292.8 303.064L288.111 306.852L291.824 301.114C288.285 294.149 285.501 289.76 285.501 289.76C285.501 289.76 270.957 312.679 266.101 336.945L275.4 351.325L265.1 343.004C264.733 345.831 264.544 348.678 264.535 351.528C264.535 380.267 273.921 403.564 285.499 403.564C297.077 403.564 306.463 380.264 306.463 351.528C306.463 342.619 304.447 333.298 301.663 324.675L292.988 331.687Z" fill="#CCCCCC"/>
<path id="Ellipse 94" d="M168.867 183.798C191.665 183.798 210.147 165.316 210.147 142.518C210.147 119.72 191.665 101.238 168.867 101.238C146.069 101.238 127.587 119.72 127.587 142.518C127.587 165.316 146.069 183.798 168.867 183.798Z" fill="#E6E6E6"/>
<path id="Path 613" d="M226.043 461.916H216.78L219.868 280.971H222.955L226.043 461.916Z" fill="#E6E6E6"/>
<path id="Path 614" d="M233.762 167.051L248.715 143.945C244.281 131.696 239.159 119.706 233.374 108.034L223.705 115.843L231.361 104.011C224.061 89.649 218.324 80.6 218.324 80.6C218.324 80.6 188.336 127.856 178.317 177.89L197.5 207.545L176.258 190.388C175.502 196.216 175.112 202.087 175.093 207.964C175.093 267.221 194.446 315.258 218.319 315.258C242.192 315.258 261.545 267.221 261.545 207.964C261.545 189.594 257.389 170.375 251.656 152.596L233.762 167.051Z" fill="#CCCCCC"/>
<path id="Path 615" d="M373.975 487.998V611.006C373.975 635.955 354.556 656.18 330.6 656.181H116.974C93.019 656.181 73.599 635.956 73.598 611.006V499.99C110.636 454.708 164.187 427.645 221.26 425.366C278.333 423.087 333.717 445.801 373.975 487.998Z" fill="#E6E6E6"/>
<g id="Girl">
<path id="Path 624" d="M507.859 619.226L510.401 631.219L557.871 627.119L554.12 609.419L507.859 619.226Z" fill="#FFB8B8"/>
<path id="Path 625" d="M504.163 656.707L496.175 619.013L510.738 615.927L515.64 639.057C516.046 640.969 516.07 642.943 515.713 644.865C515.355 646.787 514.623 648.62 513.557 650.259C512.491 651.898 511.113 653.311 509.501 654.417C507.889 655.523 506.075 656.301 504.163 656.707Z" fill="#2F2E41"/>
<path id="Path 626" d="M478.12 618.586L472.777 629.621L427.677 614.264L435.563 597.979L478.12 618.586Z" fill="#FFB8B8"/>
<path id="Path 627" d="M465.813 635.985L476.117 614.704L489.516 621.192L472.724 655.871C469.171 654.15 466.446 651.089 465.15 647.359C463.854 643.63 464.092 639.539 465.813 635.985Z" fill="#2F2E41"/>
<path id="Path 628" d="M389.259 596.793C390.803 597.08 392.391 597.026 393.912 596.633C395.432 596.24 396.848 595.519 398.06 594.52C399.272 593.521 400.25 592.268 400.925 590.85C401.6 589.432 401.956 587.883 401.968 586.313L476.342 517.742L457.872 503.437L390.535 575.379C387.894 575.533 385.402 576.65 383.531 578.519C381.659 580.388 380.538 582.879 380.381 585.519C380.224 588.159 381.041 590.765 382.678 592.843C384.314 594.921 386.656 596.326 389.26 596.792L389.259 596.793Z" fill="#FFB8B8"/>
<path id="Path 629" d="M512.386 588.272C495.157 588.272 474.408 584.644 461.607 569.795L461.319 569.461L461.619 569.133C461.719 569.026 471.133 558.264 461.73 539.072L448.8 543.049L435.93 526.06L443.06 504.671L472.237 481.171C476.417 477.821 481.506 475.804 486.846 475.379C496.51 474.445 505.925 471.764 514.631 467.466C518.615 465.53 523.003 464.57 527.431 464.666L528.005 464.682C529.352 464.72 530.677 465.031 531.9 465.596C533.123 466.161 534.218 466.969 535.12 467.97C536.021 468.972 536.71 470.146 537.144 471.421C537.578 472.696 537.749 474.047 537.646 475.39C535.667 501.02 532.174 562.933 542.438 584.251L542.703 584.802L542.111 584.952C532.355 587.147 522.388 588.26 512.388 588.271L512.386 588.272Z" fill="#F96A42"/>
<path id="Path 630" d="M464.986 569.469C464.986 569.469 399.986 563.469 392.986 582.469C385.986 601.469 393.986 610.469 405.986 614.469C417.986 618.469 446.986 623.469 446.986 623.469L459.986 607.469L493.986 609.469C493.986 609.469 531.871 631.442 542.346 654.943C544.594 660.028 548.177 664.41 552.716 667.621C557.255 670.832 562.579 672.753 568.123 673.179C576.523 673.763 583.986 670.592 583.986 657.467C583.986 627.467 541.986 584.467 541.986 584.467L464.986 569.469Z" fill="#2F2E41"/>
<path id="Path 631" d="M415.486 598.969C415.486 598.969 432.486 593.969 459.486 606.969L415.486 598.969Z" fill="#2F2E41"/>
<g id="Head">
<path id="Ellipse 97" d="M494.486 466.969C512.711 466.969 527.486 452.194 527.486 433.969C527.486 415.744 512.711 400.969 494.486 400.969C476.261 400.969 461.486 415.744 461.486 433.969C461.486 452.194 476.261 466.969 494.486 466.969Z" fill="#2F2E41"/>
<path id="Ellipse 98" d="M490.344 468.459C503.909 468.459 514.905 457.463 514.905 443.898C514.905 430.333 503.909 419.337 490.344 419.337C476.779 419.337 465.783 430.333 465.783 443.898C465.783 457.463 476.779 468.459 490.344 468.459Z" fill="#FFB8B8"/>
<path id="Path 632" d="M465.843 428.234C475.435 434.089 486.249 437.652 497.443 438.646L494.112 434.655C496.537 435.551 499.089 436.057 501.673 436.155C502.967 436.193 504.251 435.926 505.423 435.378C506.596 434.829 507.623 434.013 508.423 432.996C509.077 431.94 509.465 430.741 509.555 429.502C509.645 428.263 509.433 427.021 508.939 425.881C507.924 423.608 506.344 421.632 504.35 420.142C500.815 417.346 496.643 415.467 492.206 414.674C487.768 413.881 483.204 414.198 478.919 415.597C475.978 416.475 473.344 418.163 471.319 420.469C470.324 421.63 469.633 423.02 469.308 424.515C468.983 426.009 469.034 427.56 469.456 429.03" fill="#2F2E41"/>
<path id="Path 633" d="M494.309 408.603C498.673 398.469 505.205 389.416 513.446 382.079C518.738 377.379 524.919 373.336 531.892 372.116C538.865 370.896 546.725 372.986 551.003 378.627C554.503 383.24 555.155 389.42 554.77 395.196C554.385 400.972 553.094 406.696 553.217 412.48C553.343 418.386 554.942 424.166 557.869 429.297C560.796 434.427 564.958 438.746 569.977 441.86C574.996 444.975 580.714 446.786 586.61 447.13C592.507 447.474 598.397 446.34 603.744 443.831C597.722 447.16 593.03 452.431 587.444 456.439C581.858 460.447 574.481 463.199 568.132 460.549C561.414 457.749 558.332 450.13 555.926 443.259L545.194 412.619C543.37 407.41 541.455 402.047 537.732 397.974C534.009 393.901 527.967 391.417 522.843 393.465C518.959 395.017 516.43 398.723 514.213 402.265C511.996 405.807 509.656 409.585 505.913 411.444C502.17 413.303 496.613 412.159 495.39 408.159" fill="#2F2E41"/>
</g>
<path id="Path 636" d="M502.736 588.358C502.312 588.358 501.889 588.335 501.468 588.288C498.673 587.974 496.105 586.6 494.291 584.451C492.477 582.301 491.556 579.539 491.716 576.731C491.876 573.923 493.106 571.283 495.152 569.353C497.199 567.424 499.906 566.352 502.719 566.357C503.21 566.36 503.699 566.396 504.185 566.466L537.763 530.721L534.258 519.036L551.858 511.144L556.792 523.204C558.446 527.289 558.739 531.799 557.627 536.064C556.516 540.329 554.058 544.121 550.62 546.879L513.659 576.279C513.698 576.637 513.718 576.998 513.719 577.358C513.718 578.905 513.392 580.435 512.76 581.848C512.129 583.261 511.207 584.525 510.055 585.558C508.048 587.369 505.439 588.367 502.736 588.358Z" fill="#FFB8B8"/>
<path id="Path 637" d="M528.986 469.469C530.15 468.952 531.407 468.675 532.681 468.655C533.955 468.636 535.219 468.874 536.399 469.355C537.578 469.837 538.648 470.552 539.545 471.458C540.441 472.363 541.145 473.441 541.614 474.625L558.986 518.469L531.986 536.469L528.986 469.469Z" fill="#F96A42"/>
</g>
</g>
<g id="Button">
<path id="Ellipse 95" opacity="0.2" d="M224.02 609.338C258.929 609.338 287.228 581.039 287.228 546.13C287.228 511.221 258.929 482.922 224.02 482.922C189.111 482.922 160.812 511.221 160.812 546.13C160.812 581.039 189.111 609.338 224.02 609.338Z" fill="#F96A42"/>
<path id="Ellipse 96" d="M224.02 597.025C252.129 597.025 274.915 574.239 274.915 546.13C274.915 518.021 252.129 495.235 224.02 495.235C195.911 495.235 173.125 518.021 173.125 546.13C173.125 574.239 195.911 597.025 224.02 597.025Z" fill="#F96A42"/>
<g id="Vector" filter="url(#filter1_d)">
<path id="Vector_2" fill-rule="evenodd" clip-rule="evenodd" d="M222.583 525.41L209.594 541.094L208 539.75L223.669 521L239.25 539.75L237.658 541.096L224.667 525.408V571H222.583V525.41Z" fill="white"/>
</g>
</g>
</g>
</g>
<defs>
<filter id="filter0_d" x="0" y="0" width="689" height="694.689" filterUnits="userSpaceOnUse" color-interpolation-filters="sRGB">
<feFlood flood-opacity="0" result="BackgroundImageFix"/>
<feColorMatrix in="SourceAlpha" type="matrix" values="0 0 0 0 0 0 0 0 0 0 0 0 0 0 0 0 0 0 127 0"/>
<feOffset dy="4"/>
<feGaussianBlur stdDeviation="2"/>
<feColorMatrix type="matrix" values="0 0 0 0 0 0 0 0 0 0 0 0 0 0 0 0 0 0 0.25 0"/>
<feBlend mode="normal" in2="BackgroundImageFix" result="effect1_dropShadow"/>
<feBlend mode="normal" in="SourceGraphic" in2="effect1_dropShadow" result="shape"/>
</filter>
<filter id="filter1_d" x="204" y="521" width="39.25" height="58" filterUnits="userSpaceOnUse" color-interpolation-filters="sRGB">
<feFlood flood-opacity="0" result="BackgroundImageFix"/>
<feColorMatrix in="SourceAlpha" type="matrix" values="0 0 0 0 0 0 0 0 0 0 0 0 0 0 0 0 0 0 127 0"/>
<feOffset dy="4"/>
<feGaussianBlur stdDeviation="2"/>
<feColorMatrix type="matrix" values="0 0 0 0 0 0 0 0 0 0 0 0 0 0 0 0 0 0 0.25 0"/>
<feBlend mode="normal" in2="BackgroundImageFix" result="effect1_dropShadow"/>
<feBlend mode="normal" in="SourceGraphic" in2="effect1_dropShadow" result="shape"/>
</filter>
</defs>
</svg>
