<svg width="1071" height="628" viewBox="0 0 1071 628" fill="none" xmlns="http://www.w3.org/2000/svg">
<g id="undraw_drag_5i9w 1" clip-path="url(#clip0)" filter="url(#filter0_d)">
<path id="Vector" d="M549.82 526C547.045 526 544.242 525.956 541.492 525.87L541.554 523.872C545.504 523.995 549.535 524.029 553.504 523.975L553.532 525.975C552.296 525.991 551.059 526 549.82 526ZM565.565 525.536L565.448 523.54C569.404 523.307 573.41 522.979 577.357 522.565L577.566 524.554C573.589 524.971 569.552 525.302 565.565 525.536V525.536ZM529.469 525.225C525.48 524.919 521.449 524.519 517.487 524.032L517.731 522.048C521.662 522.529 525.662 522.928 529.621 523.23L529.469 525.225ZM589.508 523.025L589.208 521.049C593.139 520.452 597.1 519.76 600.978 518.989L601.367 520.95C597.459 521.727 593.469 522.425 589.508 523.025V523.025ZM505.573 522.294C501.632 521.626 497.654 520.858 493.75 520.011L494.174 518.056C498.049 518.897 501.996 519.659 505.907 520.321L505.573 522.294ZM613.121 518.332L612.641 516.391C616.499 515.437 620.379 514.382 624.173 513.257L624.742 515.175C620.918 516.309 617.009 517.371 613.121 518.332V518.332ZM482.045 517.186C478.18 516.157 474.289 515.026 470.483 513.822L471.085 511.916C474.863 513.11 478.723 514.232 482.559 515.252L482.045 517.186ZM636.203 511.484L635.547 509.596C639.291 508.294 643.057 506.887 646.742 505.412L647.484 507.27C643.772 508.755 639.977 510.173 636.203 511.484ZM459.058 509.918C455.304 508.538 451.526 507.049 447.83 505.492L448.607 503.648C452.274 505.193 456.022 506.671 459.748 508.041L459.058 509.918ZM658.533 502.55L657.704 500.729C661.3 499.096 664.914 497.352 668.447 495.546L669.357 497.327C665.797 499.146 662.156 500.903 658.533 502.55V502.55ZM436.822 500.556C433.213 498.836 429.591 497.007 426.056 495.118L426.999 493.354C430.507 495.228 434.101 497.044 437.682 498.751L436.822 500.556ZM679.931 491.611L678.941 489.875C682.389 487.907 685.831 485.839 689.17 483.727L690.239 485.416C686.874 487.545 683.407 489.63 679.931 491.611V491.611ZM415.555 489.193C412.122 487.151 408.685 484.998 405.339 482.794L406.439 481.124C409.76 483.312 413.171 485.448 416.577 487.475L415.555 489.193ZM700.254 478.754L699.11 477.115C702.357 474.847 705.597 472.471 708.741 470.055L709.959 471.641C706.792 474.075 703.527 476.469 700.254 478.754V478.754ZM395.428 475.938C392.2 473.593 388.976 471.137 385.844 468.636L387.092 467.073C390.2 469.555 393.4 471.992 396.603 474.318L395.428 475.938ZM719.331 464.092L718.042 462.562C721.069 460.009 724.08 457.348 726.995 454.652L728.353 456.121C725.416 458.837 722.381 461.519 719.331 464.092V464.092ZM376.603 460.906C373.597 458.273 370.61 455.535 367.726 452.767L369.111 451.323C371.973 454.071 374.937 456.789 377.921 459.402L376.603 460.906ZM737.004 447.745L735.58 446.341C738.37 443.514 741.13 440.588 743.782 437.646L745.268 438.983C742.596 441.949 739.816 444.896 737.004 447.745V447.745ZM359.231 444.233C356.473 441.333 353.749 438.335 351.135 435.323L352.645 434.013C355.24 437.002 357.943 439.977 360.68 442.854L359.231 444.233ZM753.124 429.854L751.579 428.584C754.1 425.517 756.581 422.352 758.957 419.175L760.559 420.372C758.165 423.573 755.664 426.764 753.124 429.854V429.854ZM343.453 426.057C340.976 422.927 338.537 419.695 336.204 416.452L337.827 415.284C340.143 418.502 342.563 421.709 345.022 424.816L343.453 426.057ZM767.553 410.56L765.899 409.437C768.129 406.152 770.314 402.773 772.391 399.389L774.096 400.436C772.001 403.845 769.8 407.251 767.553 410.56V410.56ZM329.402 406.53C327.223 403.189 325.09 399.752 323.062 396.311L324.785 395.295C326.798 398.71 328.914 402.122 331.077 405.437L329.402 406.53ZM780.168 390.02L778.418 389.053C780.338 385.578 782.203 382.01 783.964 378.446L785.757 379.333C783.984 382.923 782.103 386.519 780.168 390.02V390.02ZM317.198 385.814C315.332 382.289 313.524 378.672 311.822 375.064L313.631 374.211C315.32 377.791 317.114 381.381 318.965 384.879L317.198 385.814ZM790.849 368.398L789.017 367.596C790.611 363.956 792.141 360.229 793.566 356.518L795.433 357.234C793.997 360.975 792.454 364.73 790.849 368.398V368.398ZM306.947 364.083C305.413 360.403 303.945 356.639 302.583 352.893L304.463 352.209C305.814 355.927 307.271 359.662 308.792 363.314L306.947 364.083ZM799.497 345.867L797.599 345.238C798.847 341.478 800.025 337.634 801.099 333.813L803.025 334.354C801.942 338.204 800.754 342.078 799.497 345.867V345.867ZM298.73 341.484C297.54 337.673 296.422 333.779 295.407 329.91L297.342 329.402C298.349 333.242 299.459 337.106 300.639 340.889L298.73 341.484ZM806.016 322.689L804.068 322.236C804.963 318.382 805.782 314.445 806.501 310.538L808.468 310.899C807.743 314.838 806.918 318.804 806.016 322.689V322.689ZM292.622 318.195C291.788 314.289 291.033 310.31 290.379 306.365L292.351 306.037C293.001 309.952 293.75 313.901 294.578 317.777L292.622 318.195ZM810.374 299.012L808.392 298.74C808.93 294.823 809.384 290.829 809.742 286.868L811.735 287.048C811.373 291.04 810.915 295.064 810.374 299.012V299.012ZM288.68 294.445C288.209 290.486 287.822 286.454 287.529 282.461L289.524 282.314C289.814 286.278 290.199 290.279 290.667 294.209L288.68 294.445ZM812.549 275.036L810.551 274.946C810.729 270.983 810.82 266.964 810.82 263H812.82C812.82 266.994 812.729 271.044 812.549 275.036L812.549 275.036ZM286.923 270.435C286.855 267.982 286.82 265.48 286.82 263C286.82 261.461 286.833 259.925 286.859 258.392L288.859 258.427C288.833 259.948 288.82 261.473 288.82 263C288.82 265.462 288.855 267.945 288.922 270.38L286.923 270.435ZM810.805 260.21C810.764 256.245 810.631 252.226 810.411 248.264L812.407 248.152C812.629 252.145 812.763 256.194 812.805 260.188L810.805 260.21ZM289.334 246.487L287.338 246.362C287.587 242.366 287.932 238.33 288.361 234.365L290.349 234.581C289.923 238.515 289.582 242.521 289.334 246.487ZM809.476 236.352C809.076 232.409 808.579 228.42 807.999 224.494L809.978 224.202C810.562 228.158 811.063 232.177 811.466 236.15L809.476 236.352ZM291.907 222.734L289.93 222.428C290.543 218.472 291.255 214.484 292.046 210.574L294.006 210.971C293.221 214.851 292.514 218.808 291.907 222.734ZM805.981 212.718C805.218 208.817 804.358 204.89 803.422 201.046L805.366 200.573C806.308 204.446 807.175 208.404 807.944 212.335L805.981 212.718ZM296.644 199.317L294.704 198.831C295.675 194.957 296.751 191.051 297.901 187.221L299.816 187.796C298.675 191.597 297.608 195.473 296.644 199.317ZM800.328 189.503C799.213 185.695 797.994 181.865 796.706 178.117L798.597 177.466C799.896 181.243 801.124 185.104 802.248 188.941L800.328 189.503ZM303.529 176.403L301.642 175.74C302.971 171.959 304.406 168.161 305.907 164.449L307.762 165.199C306.272 168.882 304.847 172.652 303.529 176.403ZM792.562 166.909C791.103 163.228 789.54 159.534 787.917 155.929L789.742 155.108C791.377 158.741 792.952 162.463 794.421 166.171L792.562 166.909ZM312.505 154.206L310.688 153.371C312.358 149.733 314.136 146.085 315.972 142.529L317.749 143.446C315.927 146.976 314.163 150.596 312.505 154.206ZM782.774 145.17C780.984 141.64 779.087 138.102 777.137 134.656L778.877 133.67C780.843 137.143 782.753 140.708 784.557 144.266L782.774 145.17ZM323.482 132.941L321.749 131.943C323.744 128.479 325.848 125.011 328.003 121.637L329.688 122.713C327.55 126.062 325.462 129.503 323.482 132.941ZM771.024 124.406C768.91 121.042 766.698 117.69 764.447 114.444L766.089 113.304C768.358 116.575 770.588 119.952 772.717 123.342L771.024 124.406ZM336.355 112.782L334.721 111.63C337.026 108.36 339.437 105.101 341.887 101.942L343.467 103.168C341.036 106.303 338.643 109.537 336.355 112.782ZM757.419 104.79C755.009 101.633 752.499 98.4952 749.957 95.463L751.491 94.1783C754.051 97.234 756.58 100.396 759.009 103.576L757.419 104.79ZM351.009 93.8911L349.486 92.5943C352.074 89.5552 354.77 86.5303 357.501 83.6035L358.963 84.9678C356.253 87.8726 353.577 90.875 351.009 93.8911ZM742.078 86.4829C739.392 83.5586 736.605 80.6602 733.796 77.8692L735.206 76.4502C738.036 79.2632 740.844 82.1831 743.551 85.1294L742.078 86.4829ZM367.313 76.4189L365.915 74.9892C368.775 72.1914 371.734 69.4252 374.71 66.768L376.042 68.2602C373.089 70.897 370.152 73.6421 367.313 76.419V76.4189ZM725.131 69.6391C722.187 66.9687 719.147 64.3349 716.096 61.811L717.371 60.27C720.445 62.813 723.508 65.4668 726.475 68.1577L725.131 69.6391ZM385.132 60.5073L383.869 58.9565C386.962 56.4375 390.159 53.9531 393.371 51.5723L394.562 53.1787C391.374 55.542 388.201 58.0073 385.132 60.5073V60.5073ZM706.713 54.4004C703.536 52.0083 700.268 49.6611 696.998 47.4243L698.127 45.7739C701.422 48.0273 704.715 50.3921 707.916 52.8027L706.713 54.4004ZM404.314 46.29L403.198 44.6308C406.508 42.4033 409.916 40.2221 413.328 38.1465L414.367 39.8555C410.982 41.9151 407.599 44.0801 404.314 46.2901V46.29ZM686.973 40.8989C683.593 38.8071 680.122 36.768 676.658 34.8374L677.63 33.0903C681.122 35.0356 684.619 37.0908 688.026 39.1977L686.973 40.8989ZM424.701 33.8887L423.741 32.1338C427.244 30.2173 430.835 28.3579 434.415 26.6065L435.294 28.4033C431.741 30.1411 428.178 31.9863 424.701 33.8887ZM666.072 29.2549C662.513 27.4819 658.867 25.7691 655.237 24.1641L656.045 22.335C659.704 23.9522 663.378 25.6782 666.964 27.4649L666.072 29.2549ZM446.123 23.4107L445.328 21.5757C448.989 19.9892 452.733 18.4678 456.456 17.0532L457.166 18.9233C453.471 20.3267 449.756 21.8364 446.123 23.4107H446.123ZM644.175 19.5762C640.472 18.1402 636.682 16.77 632.909 15.5044L633.546 13.6079C637.347 14.8838 641.166 16.2642 644.898 17.7119L644.175 19.5762ZM468.432 14.9395L467.809 13.0391C471.61 11.793 475.488 10.6196 479.334 9.55275L479.869 11.4795C476.052 12.5386 472.203 13.7027 468.432 14.9395V14.9395ZM621.495 11.9658C617.681 10.8784 613.79 9.86573 609.932 8.95607L610.391 7.00978C614.28 7.92628 618.2 8.94679 622.044 10.042L621.495 11.9658ZM491.454 8.55029L491.009 6.60059C494.905 5.71045 498.874 4.89941 502.805 4.19043L503.161 6.1582C499.259 6.86229 495.321 7.667 491.454 8.55029ZM598.242 6.4834C594.347 5.7524 590.38 5.10205 586.451 4.55029L586.728 2.56984C590.688 3.12599 594.686 3.78125 598.611 4.51758L598.242 6.4834ZM514.966 4.30713L514.701 2.32471C518.66 1.79639 522.687 1.35205 526.668 1.00537L526.842 2.99756C522.891 3.34229 518.896 3.78273 514.966 4.30714V4.30713ZM574.582 3.15967C570.643 2.78858 566.633 2.50244 562.663 2.31055L562.761 0.312546C566.76 0.506396 570.8 0.794479 574.77 1.16855L574.582 3.15967ZM538.768 2.23047L538.684 0.232422C542.36 0.0791019 546.106 0.00098 549.82 0L550.725 0.0014801L550.719 2.00148L549.82 2C546.134 2.00099 542.415 2.07862 538.768 2.23048V2.23047Z" fill="#3F3D56"/>
<path id="Vector_2" d="M486.803 173.409V239.089C486.801 239.696 486.559 240.278 486.13 240.707C485.701 241.136 485.119 241.378 484.513 241.379H482.883V583.529C482.882 592.998 479.121 602.078 472.426 608.773C465.731 615.468 456.651 619.229 447.183 619.229H233.393C228.705 619.229 224.064 618.305 219.733 616.511C215.402 614.716 211.468 612.087 208.154 608.772C204.839 605.456 202.211 601.521 200.417 597.19C198.624 592.859 197.702 588.217 197.703 583.529V253.379H196.523C196.094 253.38 195.684 253.211 195.38 252.909C195.076 252.607 194.905 252.198 194.903 251.769V214.389C194.903 214.177 194.944 213.966 195.026 213.769C195.107 213.573 195.227 213.394 195.377 213.244C195.527 213.093 195.706 212.974 195.903 212.893C196.099 212.811 196.31 212.769 196.523 212.769H197.703V198.689H196.513C196.063 198.688 195.633 198.508 195.316 198.189C194.999 197.87 194.822 197.439 194.823 196.989V160.119C194.824 159.672 195.002 159.242 195.319 158.926C195.636 158.609 196.065 158.431 196.513 158.429H197.703V139.209H196.493C196.296 139.21 196.1 139.171 195.918 139.096C195.736 139.021 195.571 138.91 195.431 138.771C195.292 138.631 195.181 138.466 195.106 138.284C195.031 138.102 194.992 137.907 194.993 137.709V117.589C194.992 117.19 195.149 116.807 195.43 116.524C195.712 116.241 196.094 116.081 196.493 116.079H197.703V75.3394C197.703 65.874 201.463 56.7963 208.156 50.1032C214.85 43.4101 223.927 39.6498 233.393 39.6494H447.183C456.649 39.6494 465.728 43.4092 472.423 50.1021C479.118 56.795 482.88 65.8729 482.883 75.3394V171.119H484.513C485.119 171.121 485.701 171.363 486.13 171.792C486.559 172.221 486.801 172.803 486.803 173.409V173.409Z" fill="#3F3D56"/>
<path id="Vector_3" d="M350.588 57.9562H315.848C314.444 57.9562 313.306 59.0943 313.306 60.4981V63.5008C313.306 64.9046 314.444 66.0427 315.848 66.0427H350.588C351.992 66.0427 353.13 64.9046 353.13 63.5008V60.4981C353.13 59.0943 351.992 57.9562 350.588 57.9562Z" fill="#E6E8EC"/>
<path id="Vector_4" d="M363.738 66.5861C366.271 66.5861 368.324 64.5326 368.324 61.9995C368.324 59.4663 366.271 57.4128 363.738 57.4128C361.205 57.4128 359.151 59.4663 359.151 61.9995C359.151 64.5326 361.205 66.5861 363.738 66.5861Z" fill="#E6E8EC"/>
<path id="Vector_5" d="M465.788 82.3993V586.489C465.785 592.495 463.397 598.253 459.15 602.499C454.903 606.744 449.143 609.129 443.138 609.129H238.488C235.513 609.134 232.566 608.553 229.816 607.417C227.066 606.281 224.568 604.614 222.464 602.51C220.36 600.407 218.691 597.909 217.554 595.16C216.417 592.411 215.834 589.464 215.838 586.489V82.3993C215.838 79.4248 216.423 76.4795 217.562 73.7314C218.7 70.9833 220.368 68.4863 222.471 66.3831C224.575 64.2798 227.072 62.6114 229.82 61.4732C232.568 60.335 235.513 59.7492 238.488 59.7493H269.118V63.6793C269.118 68.6256 271.083 73.3692 274.58 76.8668C278.078 80.3643 282.821 82.3293 287.768 82.3293H391.848C396.794 82.3293 401.538 80.3644 405.035 76.8668C408.533 73.3693 410.498 68.6256 410.498 63.6793V59.7493H443.138C446.112 59.7483 449.058 60.3335 451.807 61.4715C454.555 62.6094 457.052 64.2777 459.156 66.3812C461.259 68.4846 462.928 70.9819 464.065 73.7304C465.203 76.4788 465.789 79.4246 465.788 82.3993V82.3993Z" fill="#FC6C42"/>
<path id="Vector_6" d="M821.828 96H589.828V209H821.828V96Z" fill="#F2F2F2"/>
<path id="Vector_7" d="M433.828 141.279C444.873 141.279 453.828 132.325 453.828 121.279C453.828 110.234 444.873 101.279 433.828 101.279C422.782 101.279 413.828 110.234 413.828 121.279C413.828 132.325 422.782 141.279 433.828 141.279Z" fill="white"/>
<path id="Vector_8" d="M442.828 120.636H434.47V112.279H433.185V120.636H424.828V121.922H433.185V130.279H434.47V121.922H442.828V120.636Z" fill="#3F3D56"/>
<path id="Vector_9" d="M795.828 81H563.828V194H795.828V81Z" fill="#3F3D56"/>
<path id="Vector_10" d="M667.394 156.87C673.467 179.32 694.269 193.224 694.269 193.224C694.269 193.224 705.225 170.729 699.152 148.279C693.078 125.829 672.276 111.925 672.276 111.925C672.276 111.925 661.321 134.42 667.394 156.87Z" fill="white"/>
<path id="Vector_11" d="M676.318 152.045C692.983 168.268 695.019 193.206 695.019 193.206C695.019 193.206 670.035 191.842 653.37 175.619C636.705 159.397 634.67 134.459 634.67 134.459C634.67 134.459 659.653 135.823 676.318 152.045Z" fill="#FC6C42"/>
<g id="Section_2">
<path id="Vector_12" d="M457.828 396.279H225.828V509.279H457.828V396.279Z" fill="#3F3D56"/>
<path id="Vector_13" d="M319.236 473.87C325.309 496.32 346.111 510.224 346.111 510.224C346.111 510.224 357.067 487.729 350.994 465.279C344.92 442.829 324.118 428.925 324.118 428.925C324.118 428.925 313.163 451.42 319.236 473.87Z" fill="white"/>
<path id="Vector_14" d="M328.16 469.045C344.825 485.268 346.861 510.206 346.861 510.206C346.861 510.206 321.877 508.842 305.212 492.619C288.547 476.397 286.512 451.459 286.512 451.459C286.512 451.459 311.496 452.823 328.16 469.045Z" fill="#FC6C42"/>
<path id="Vector_15" d="M374.485 473.87C368.412 496.32 347.61 510.224 347.61 510.224C347.61 510.224 336.655 487.729 342.728 465.279C348.801 442.829 369.603 428.925 369.603 428.925C369.603 428.925 380.558 451.42 374.485 473.87Z" fill="white"/>
<path id="Vector_16" d="M365.561 469.045C348.896 485.268 346.861 510.206 346.861 510.206C346.861 510.206 371.844 508.842 388.509 492.619C405.174 476.397 407.209 451.459 407.209 451.459C407.209 451.459 382.226 452.823 365.561 469.045Z" fill="#FC6C42"/>
</g>
<g id="Section_1">
<path id="Vector_17" opacity="0.2" d="M457.828 225H225.828V338H457.828V225Z" fill="black"/>
<path id="Vector_18" d="M507.828 207H275.828V320H507.828V207Z" fill="#3F3D56"/>
<path id="Vector_19" d="M392.975 245.744H390.975V320.155H392.975V245.744Z" fill="white"/>
<path id="Vector_20" d="M391.975 257.267C397.787 257.267 402.498 252.555 402.498 246.744C402.498 240.932 397.787 236.221 391.975 236.221C386.164 236.221 381.453 240.932 381.453 246.744C381.453 252.555 386.164 257.267 391.975 257.267Z" fill="#FC6C42"/>
<path id="Vector_21" d="M391.975 291.605C391.975 291.605 390.472 259.273 359.655 263.031Z" fill="white"/>
</g>
<path id="Hand" d="M714.033 514.395L585.342 554.656L425.254 453.637L425.247 453.63L424.722 453.306L424.636 453.249L423.363 452.451L408.122 442.86C408.151 442.601 408.187 442.35 408.237 442.105C408.47 440.92 409.011 439.817 409.804 438.906C410.08 438.579 410.383 438.276 410.71 438H410.717C410.861 437.878 411.012 437.756 411.17 437.641C411.328 437.518 411.494 437.403 411.666 437.295C414.614 435.318 419.057 434.477 423.687 434.226C433.686 433.751 443.634 435.908 452.538 440.48C470.534 449.582 509.213 467.491 515.245 456.52C523.153 442.141 433.285 281.816 433.285 281.816C425.887 262.8 431.301 256.588 434.694 254.633C434.795 254.575 434.895 254.518 434.989 254.467C435.348 254.283 435.721 254.124 436.103 253.993C436.303 253.92 436.507 253.86 436.714 253.813C436.769 253.798 436.824 253.786 436.88 253.777L448.8 269.623L448.98 269.86L449.619 270.716L449.814 270.974L522.075 367.011C632.793 307.339 670.897 466.945 670.897 466.945L714.033 514.395Z" fill="#FBBEBE"/>
<path id="Vector_22" d="M449.814 270.974C449.551 271.516 449.138 271.97 448.624 272.282C448.111 272.595 447.517 272.752 446.916 272.736C446.518 272.734 446.122 272.681 445.737 272.578C443.063 271.859 439.964 268.925 437.649 264.921C435.391 261.01 434.464 257.077 434.989 254.467C435.348 254.283 435.721 254.124 436.103 253.993C436.303 253.92 436.507 253.86 436.714 253.813C435.787 255.632 436.34 259.766 438.9 264.202C440.992 267.833 443.825 270.579 446.104 271.183C446.382 271.299 446.683 271.349 446.984 271.33C447.285 271.311 447.577 271.222 447.838 271.071C448.099 270.92 448.322 270.711 448.489 270.459C448.655 270.208 448.762 269.922 448.8 269.623L448.98 269.86L449.619 270.716L449.814 270.974Z" fill="#3F3D56"/>
<path id="Vector_23" d="M424.722 453.306L424.636 453.249L423.363 452.451C423.371 450.402 421.818 447.044 418.388 443.672C415.491 440.847 412.126 438.992 409.804 438.906C410.08 438.579 410.383 438.276 410.71 438H410.717C410.861 437.878 411.012 437.756 411.17 437.641C414.301 438.564 417.136 440.289 419.395 442.644C423.162 446.347 425.233 450.567 424.722 453.306Z" fill="#3F3D56"/>
</g>
<defs>
<filter id="filter0_d" x="-4" y="0" width="1078.07" height="627.351" filterUnits="userSpaceOnUse" color-interpolation-filters="sRGB">
<feFlood flood-opacity="0" result="BackgroundImageFix"/>
<feColorMatrix in="SourceAlpha" type="matrix" values="0 0 0 0 0 0 0 0 0 0 0 0 0 0 0 0 0 0 127 0"/>
<feOffset dy="4"/>
<feGaussianBlur stdDeviation="2"/>
<feColorMatrix type="matrix" values="0 0 0 0 0 0 0 0 0 0 0 0 0 0 0 0 0 0 0.25 0"/>
<feBlend mode="normal" in2="BackgroundImageFix" result="effect1_dropShadow"/>
<feBlend mode="normal" in="SourceGraphic" in2="effect1_dropShadow" result="shape"/>
</filter>
<clipPath id="clip0">
<rect width="1070.07" height="619.351" fill="white"/>
</clipPath>
</defs>
</svg>
