<svg width="896" height="640" viewBox="0 0 896 640" fill="none" xmlns="http://www.w3.org/2000/svg">
<g id="undraw_Working_oh83 1" clip-path="url(#clip0)">
<g id="Page_1" filter="url(#filter0_d)">
<path id="Vector" d="M256.932 4.48084L80.2975 44.4563C73.0604 46.0942 68.5213 53.2888 70.1591 60.526L130.892 328.879C132.53 336.116 139.725 340.655 146.962 339.017L323.596 299.042C330.833 297.404 335.372 290.209 333.735 282.972L273.002 14.6192C271.364 7.38203 264.169 2.84295 256.932 4.48084Z" fill="#3F3D56"/>
<path id="Vector_2" d="M87.5974 93C90.9111 93 93.5974 90.3137 93.5974 87C93.5974 83.6863 90.9111 81 87.5974 81C84.2836 81 81.5974 83.6863 81.5974 87C81.5974 90.3137 84.2836 93 87.5974 93Z" fill="white"/>
<path id="Vector_3" d="M93.5974 115C96.9111 115 99.5974 112.314 99.5974 109C99.5974 105.686 96.9111 103 93.5974 103C90.2836 103 87.5974 105.686 87.5974 109C87.5974 112.314 90.2836 115 93.5974 115Z" fill="white"/>
<path id="Vector_4" d="M132.597 276C135.911 276 138.597 273.314 138.597 270C138.597 266.686 135.911 264 132.597 264C129.284 264 126.597 266.686 126.597 270C126.597 273.314 129.284 276 132.597 276Z" fill="white"/>
<path id="Vector_5" d="M138.597 298C141.911 298 144.597 295.314 144.597 292C144.597 288.686 141.911 286 138.597 286C135.284 286 132.597 288.686 132.597 292C132.597 295.314 135.284 298 138.597 298Z" fill="white"/>
<path id="Vector_6" d="M256.186 116.084L134.39 143.649L138.984 163.948L260.78 136.383L256.186 116.084Z" fill="#F5F5F5"/>
</g>
<g id="Page_2" filter="url(#filter1_d)">
<path id="Vector_7" d="M417.822 107.046L214.98 152.953L281.644 447.514L484.486 401.607L417.822 107.046Z" fill="#F66641"/>
<path id="Vector_8" d="M380.186 149.084L258.39 176.649L262.984 196.948L384.78 169.383L380.186 149.084Z" fill="#F5F5F5"/>
<path id="Vector_9" d="M411.588 193.547L249.193 230.299L250.342 235.374L412.736 198.622L411.588 193.547Z" fill="#F5F5F5"/>
<path id="Vector_10" d="M414.268 205.388L251.873 242.141L253.022 247.216L415.416 210.463L414.268 205.388Z" fill="#F5F5F5"/>
<path id="Vector_11" d="M416.948 217.229L254.553 253.982L255.702 259.057L418.096 222.304L416.948 217.229Z" fill="#F5F5F5"/>
<path id="Vector_12" d="M335.047 248.213L257.233 265.823L258.382 270.898L336.196 253.287L335.047 248.213Z" fill="#F5F5F5"/>
<path id="Vector_13" d="M349.568 257.374L259.913 277.665L261.061 282.739L350.717 262.449L349.568 257.374Z" fill="#F5F5F5"/>
<path id="Vector_14" d="M424.987 252.753L262.593 289.506L263.741 294.581L426.136 257.828L424.987 252.753Z" fill="#F5F5F5"/>
<path id="Vector_15" d="M427.667 264.594L265.273 301.347L266.421 306.422L428.816 269.669L427.667 264.594Z" fill="#F5F5F5"/>
<path id="Vector_16" d="M418.506 279.116L267.953 313.188L269.101 318.263L419.654 284.19L418.506 279.116Z" fill="#F5F5F5"/>
<path id="Vector_17" d="M433.027 288.277L270.632 325.03L271.781 330.104L434.176 293.352L433.027 288.277Z" fill="#F5F5F5"/>
<path id="Vector_18" d="M357.893 317.729L273.312 336.871L274.461 341.946L359.041 322.804L357.893 317.729Z" fill="#F5F5F5"/>
<path id="Vector_19" d="M436.918 321.183L338.804 343.388L354.118 411.052L452.231 388.848L436.918 321.183Z" fill="#F5F5F5"/>
</g>
<g id="Page_3" filter="url(#filter2_d)">
<path id="Vector_20" d="M631.729 58.6351L428.886 104.542L495.551 399.103L698.393 353.196L631.729 58.6351Z" fill="#3F3D56"/>
<path id="Vector_21" opacity="0.3" d="M585.94 280.344L496.284 300.634L497.433 305.709L587.088 285.419L585.94 280.344Z" fill="#F66641"/>
<path id="Vector_22" opacity="0.3" d="M661.359 275.723L498.964 312.476L500.113 317.551L662.507 280.798L661.359 275.723Z" fill="#F66641"/>
<path id="Vector_23" opacity="0.3" d="M664.039 287.564L501.644 324.317L502.793 329.392L665.187 292.639L664.039 287.564Z" fill="#F66641"/>
<path id="Vector_24" opacity="0.3" d="M654.877 302.085L504.324 336.158L505.473 341.233L656.026 307.16L654.877 302.085Z" fill="#F66641"/>
<path id="Vector_25" opacity="0.3" d="M669.399 311.247L507.004 348L508.153 353.074L670.547 316.322L669.399 311.247Z" fill="#F66641"/>
<path id="Vector_26" opacity="0.3" d="M553.051 95.7358L454.938 117.941L470.251 185.605L568.365 163.4L553.051 95.7358Z" fill="#F66641"/>
<path id="Vector_27" opacity="0.3" d="M649.081 166.472L550.968 188.676L566.281 256.341L664.395 234.136L649.081 166.472Z" fill="#F66641"/>
</g>
<g id="Group" opacity="0.5">
<path id="Vector_28" opacity="0.5" d="M188.597 510.286H185.597V527.286H188.597V510.286Z" fill="#47E6B1"/>
<path id="Vector_29" opacity="0.5" d="M195.597 520.286V517.286H178.597V520.286H195.597Z" fill="#47E6B1"/>
</g>
<g id="Group_2" opacity="0.5">
<path id="Vector_30" opacity="0.5" d="M515.597 0H512.597V17H515.597V0Z" fill="#47E6B1"/>
<path id="Vector_31" opacity="0.5" d="M522.597 10V7.00003L505.597 7.00003V10H522.597Z" fill="#47E6B1"/>
</g>
<g id="Group_3" opacity="0.5">
<path id="Vector_32" opacity="0.5" d="M888.597 125H885.597V142H888.597V125Z" fill="#47E6B1"/>
<path id="Vector_33" opacity="0.5" d="M895.597 135V132H878.597V135H895.597Z" fill="#47E6B1"/>
</g>
<path id="Vector_34" opacity="0.5" d="M360.29 508.592C359.463 508.232 358.797 507.58 358.42 506.761C358.042 505.942 357.979 505.013 358.242 504.151C358.285 504.019 358.312 503.882 358.322 503.743V503.743C358.346 503.348 358.242 502.956 358.026 502.624C357.809 502.293 357.492 502.04 357.121 501.903C356.749 501.766 356.344 501.752 355.964 501.863C355.584 501.975 355.25 502.206 355.012 502.522V502.522C354.93 502.634 354.861 502.756 354.808 502.884C354.448 503.711 353.796 504.376 352.977 504.754C352.158 505.131 351.229 505.194 350.367 504.931C350.235 504.889 350.098 504.862 349.959 504.851V504.851C349.564 504.827 349.172 504.931 348.84 505.148C348.509 505.364 348.256 505.681 348.119 506.053C347.982 506.424 347.968 506.83 348.079 507.21C348.191 507.59 348.422 507.924 348.738 508.162C348.85 508.244 348.972 508.312 349.1 508.366C349.927 508.726 350.592 509.377 350.97 510.196C351.347 511.015 351.41 511.944 351.147 512.807C351.105 512.939 351.078 513.076 351.067 513.214V513.214C351.043 513.61 351.147 514.002 351.364 514.333C351.58 514.665 351.897 514.918 352.269 515.055C352.64 515.192 353.046 515.206 353.426 515.094C353.806 514.983 354.14 514.752 354.378 514.436V514.436C354.46 514.323 354.528 514.202 354.582 514.074C354.942 513.247 355.593 512.582 356.412 512.204C357.231 511.826 358.16 511.763 359.023 512.026C359.155 512.069 359.292 512.096 359.43 512.106V512.106C359.825 512.13 360.218 512.026 360.549 511.81C360.881 511.594 361.134 511.276 361.271 510.905C361.408 510.533 361.422 510.128 361.31 509.748C361.199 509.368 360.968 509.034 360.651 508.796V508.796C360.539 508.714 360.418 508.645 360.29 508.592V508.592Z" fill="#4D8AF0"/>
<path id="Vector_35" opacity="0.5" d="M506.488 633.243C505.661 632.883 504.996 632.231 504.618 631.412C504.241 630.593 504.177 629.664 504.44 628.802C504.483 628.669 504.51 628.533 504.52 628.394V628.394C504.544 627.999 504.44 627.607 504.224 627.275C504.008 626.943 503.69 626.69 503.319 626.553C502.947 626.416 502.542 626.403 502.162 626.514C501.782 626.626 501.448 626.857 501.21 627.173V627.173C501.128 627.285 501.059 627.407 501.006 627.535C500.646 628.361 499.994 629.027 499.175 629.404C498.357 629.782 497.427 629.845 496.565 629.582C496.433 629.54 496.296 629.513 496.157 629.502V629.502C495.762 629.478 495.37 629.582 495.038 629.799C494.707 630.015 494.454 630.332 494.317 630.704C494.18 631.075 494.166 631.481 494.278 631.861C494.389 632.241 494.62 632.574 494.936 632.813C495.048 632.895 495.17 632.963 495.298 633.017C496.125 633.377 496.79 634.028 497.168 634.847C497.545 635.666 497.609 636.595 497.345 637.458C497.303 637.59 497.276 637.727 497.266 637.865C497.242 638.26 497.345 638.653 497.562 638.984C497.778 639.316 498.096 639.569 498.467 639.706C498.838 639.843 499.244 639.857 499.624 639.745C500.004 639.633 500.338 639.402 500.576 639.086C500.658 638.974 500.726 638.853 500.78 638.725C501.14 637.898 501.791 637.232 502.61 636.855C503.429 636.477 504.358 636.414 505.221 636.677C505.353 636.72 505.49 636.746 505.628 636.757C506.024 636.781 506.416 636.677 506.748 636.461C507.079 636.244 507.332 635.927 507.469 635.556C507.606 635.184 507.62 634.778 507.508 634.399C507.397 634.019 507.166 633.685 506.85 633.447C506.737 633.365 506.616 633.296 506.488 633.243V633.243Z" fill="#4D8AF0"/>
<path id="Vector_36" opacity="0.5" d="M12.2897 211.305C11.463 210.945 10.7975 210.294 10.4199 209.475C10.0424 208.656 9.97914 207.727 10.2422 206.864C10.2848 206.732 10.3116 206.595 10.3221 206.457C10.3462 206.062 10.2423 205.669 10.0259 205.338C9.80952 205.006 9.4921 204.753 9.12066 204.616C8.74923 204.479 8.34353 204.466 7.96368 204.577C7.58382 204.689 7.25 204.92 7.01167 205.236V205.236C6.92971 205.348 6.86126 205.469 6.80776 205.598C6.4477 206.424 5.79622 207.09 4.97732 207.467C4.15842 207.845 3.22928 207.908 2.36677 207.645C2.23454 207.602 2.09774 207.576 1.95922 207.565V207.565C1.56405 207.541 1.17165 207.645 0.840128 207.861C0.508602 208.078 0.255589 208.395 0.118571 208.767C-0.018448 209.138 -0.0321888 209.544 0.079386 209.924C0.190961 210.303 0.421921 210.637 0.738047 210.876V210.876C0.850212 210.957 0.971652 211.026 1.09985 211.079C1.92659 211.44 2.59207 212.091 2.96961 212.91C3.34716 213.729 3.41042 214.658 3.14733 215.52C3.10476 215.653 3.07793 215.789 3.06742 215.928C3.04337 216.323 3.14724 216.716 3.36364 217.047C3.58004 217.379 3.89747 217.632 4.2689 217.769C4.64033 217.906 5.04602 217.919 5.42587 217.808C5.80572 217.696 6.13953 217.465 6.37786 217.149C6.45982 217.037 6.52826 216.916 6.58177 216.787C6.94183 215.961 7.59331 215.295 8.41221 214.918C9.23111 214.54 10.1603 214.477 11.0228 214.74C11.155 214.782 11.2918 214.809 11.4303 214.82V214.82C11.8255 214.844 12.2179 214.74 12.5494 214.524C12.8809 214.307 13.1339 213.99 13.2709 213.618C13.408 213.247 13.4217 212.841 13.3101 212.461C13.1986 212.082 12.9676 211.748 12.6515 211.509V211.509C12.5393 211.427 12.4179 211.359 12.2897 211.305V211.305Z" fill="#4D8AF0"/>
<path id="Vector_37" opacity="0.5" d="M877.488 363.243C876.661 362.883 875.996 362.231 875.618 361.412C875.241 360.593 875.177 359.664 875.44 358.802C875.483 358.669 875.51 358.533 875.52 358.394V358.394C875.544 357.999 875.44 357.607 875.224 357.275C875.008 356.944 874.69 356.691 874.319 356.554C873.947 356.416 873.542 356.403 873.162 356.514C872.782 356.626 872.448 356.857 872.21 357.173V357.173C872.128 357.285 872.059 357.407 872.006 357.535C871.646 358.362 870.994 359.027 870.176 359.405C869.357 359.782 868.427 359.845 867.565 359.582C867.433 359.54 867.296 359.513 867.157 359.502V359.502C866.762 359.478 866.37 359.582 866.038 359.799C865.707 360.015 865.454 360.332 865.317 360.704C865.18 361.075 865.166 361.481 865.278 361.861C865.389 362.241 865.62 362.574 865.936 362.813V362.813C866.048 362.895 866.17 362.963 866.298 363.017C867.125 363.377 867.79 364.028 868.168 364.847C868.545 365.666 868.609 366.595 868.345 367.458C868.303 367.59 868.276 367.727 868.266 367.865V367.865C868.242 368.26 868.345 368.653 868.562 368.984C868.778 369.316 869.096 369.569 869.467 369.706C869.839 369.843 870.244 369.857 870.624 369.745C871.004 369.633 871.338 369.403 871.576 369.086C871.658 368.974 871.726 368.853 871.78 368.725C872.14 367.898 872.791 367.232 873.61 366.855C874.429 366.477 875.358 366.414 876.221 366.677C876.353 366.72 876.49 366.747 876.629 366.757V366.757C877.024 366.781 877.416 366.677 877.748 366.461C878.079 366.244 878.332 365.927 878.469 365.556C878.606 365.184 878.62 364.778 878.508 364.399C878.397 364.019 878.166 363.685 877.85 363.447V363.447C877.738 363.365 877.616 363.296 877.488 363.243V363.243Z" fill="#4D8AF0"/>
<path id="Vector_38" opacity="0.5" d="M107.597 461.286C110.911 461.286 113.597 458.6 113.597 455.286C113.597 451.973 110.911 449.286 107.597 449.286C104.284 449.286 101.597 451.973 101.597 455.286C101.597 458.6 104.284 461.286 107.597 461.286Z" fill="#F55F44"/>
<path id="Vector_39" opacity="0.5" d="M321.597 12C324.911 12 327.597 9.31371 327.597 6C327.597 2.68629 324.911 0 321.597 0C318.284 0 315.597 2.68629 315.597 6C315.597 9.31371 318.284 12 321.597 12Z" fill="#4D8AF0"/>
<path id="Vector_40" opacity="0.5" d="M463.796 463.937C467.109 463.937 469.796 461.251 469.796 457.937C469.796 454.624 467.109 451.937 463.796 451.937C460.482 451.937 457.796 454.624 457.796 457.937C457.796 461.251 460.482 463.937 463.796 463.937Z" fill="#47E6B1"/>
<path id="Vector_41" opacity="0.5" d="M809.796 613.937C813.109 613.937 815.796 611.251 815.796 607.937C815.796 604.624 813.109 601.937 809.796 601.937C806.482 601.937 803.796 604.624 803.796 607.937C803.796 611.251 806.482 613.937 809.796 613.937Z" fill="#F55F44"/>
<g id="Page_4" filter="url(#filter3_d)">
<path id="Vector_42" d="M694.932 131.481L518.298 171.456C511.06 173.094 506.521 180.289 508.159 187.526L568.892 455.879C570.53 463.116 577.725 467.655 584.962 466.017L761.596 426.042C768.833 424.404 773.372 417.209 771.735 409.972L711.002 141.619C709.364 134.382 702.169 129.843 694.932 131.481Z" fill="#F66641"/>
<path id="Vector_43" d="M525.597 220C528.911 220 531.597 217.314 531.597 214C531.597 210.686 528.911 208 525.597 208C522.284 208 519.597 210.686 519.597 214C519.597 217.314 522.284 220 525.597 220Z" fill="white"/>
<path id="Vector_44" d="M531.597 242C534.911 242 537.597 239.314 537.597 236C537.597 232.686 534.911 230 531.597 230C528.284 230 525.597 232.686 525.597 236C525.597 239.314 528.284 242 531.597 242Z" fill="white"/>
<path id="Vector_45" d="M570.597 403C573.911 403 576.597 400.314 576.597 397C576.597 393.686 573.911 391 570.597 391C567.284 391 564.597 393.686 564.597 397C564.597 400.314 567.284 403 570.597 403Z" fill="white"/>
<path id="Vector_46" d="M576.597 425C579.911 425 582.597 422.314 582.597 419C582.597 415.686 579.911 413 576.597 413C573.284 413 570.597 415.686 570.597 419C570.597 422.314 573.284 425 576.597 425Z" fill="white"/>
<path id="Vector_47" d="M694.186 243.084L572.39 270.649L576.984 290.948L698.78 263.383L694.186 243.084Z" fill="#F5F5F5"/>
</g>
</g>
<defs>
<filter id="filter0_d" x="63.1935" y="1.51517" width="277.507" height="348.468" filterUnits="userSpaceOnUse" color-interpolation-filters="sRGB">
<feFlood flood-opacity="0" result="BackgroundImageFix"/>
<feColorMatrix in="SourceAlpha" type="matrix" values="0 0 0 0 0 0 0 0 0 0 0 0 0 0 0 0 0 0 127 0"/>
<feOffset dy="4"/>
<feGaussianBlur stdDeviation="2"/>
<feColorMatrix type="matrix" values="0 0 0 0 0 0 0 0 0 0 0 0 0 0 0 0 0 0 0.25 0"/>
<feBlend mode="normal" in2="BackgroundImageFix" result="effect1_dropShadow"/>
<feBlend mode="normal" in="SourceGraphic" in2="effect1_dropShadow" result="shape"/>
</filter>
<filter id="filter1_d" x="210.98" y="107.046" width="277.507" height="348.468" filterUnits="userSpaceOnUse" color-interpolation-filters="sRGB">
<feFlood flood-opacity="0" result="BackgroundImageFix"/>
<feColorMatrix in="SourceAlpha" type="matrix" values="0 0 0 0 0 0 0 0 0 0 0 0 0 0 0 0 0 0 127 0"/>
<feOffset dy="4"/>
<feGaussianBlur stdDeviation="2"/>
<feColorMatrix type="matrix" values="0 0 0 0 0 0 0 0 0 0 0 0 0 0 0 0 0 0 0.25 0"/>
<feBlend mode="normal" in2="BackgroundImageFix" result="effect1_dropShadow"/>
<feBlend mode="normal" in="SourceGraphic" in2="effect1_dropShadow" result="shape"/>
</filter>
<filter id="filter2_d" x="424.886" y="58.6351" width="277.507" height="348.468" filterUnits="userSpaceOnUse" color-interpolation-filters="sRGB">
<feFlood flood-opacity="0" result="BackgroundImageFix"/>
<feColorMatrix in="SourceAlpha" type="matrix" values="0 0 0 0 0 0 0 0 0 0 0 0 0 0 0 0 0 0 127 0"/>
<feOffset dy="4"/>
<feGaussianBlur stdDeviation="2"/>
<feColorMatrix type="matrix" values="0 0 0 0 0 0 0 0 0 0 0 0 0 0 0 0 0 0 0.25 0"/>
<feBlend mode="normal" in2="BackgroundImageFix" result="effect1_dropShadow"/>
<feBlend mode="normal" in="SourceGraphic" in2="effect1_dropShadow" result="shape"/>
</filter>
<filter id="filter3_d" x="501.193" y="128.515" width="277.507" height="348.468" filterUnits="userSpaceOnUse" color-interpolation-filters="sRGB">
<feFlood flood-opacity="0" result="BackgroundImageFix"/>
<feColorMatrix in="SourceAlpha" type="matrix" values="0 0 0 0 0 0 0 0 0 0 0 0 0 0 0 0 0 0 127 0"/>
<feOffset dy="4"/>
<feGaussianBlur stdDeviation="2"/>
<feColorMatrix type="matrix" values="0 0 0 0 0 0 0 0 0 0 0 0 0 0 0 0 0 0 0.25 0"/>
<feBlend mode="normal" in2="BackgroundImageFix" result="effect1_dropShadow"/>
<feBlend mode="normal" in="SourceGraphic" in2="effect1_dropShadow" result="shape"/>
</filter>
<clipPath id="clip0">
<rect width="895.597" height="639.824" fill="white"/>
</clipPath>
</defs>
</svg>
