<svg width="512" height="512" viewBox="0 0 512 512" fill="none" xmlns="http://www.w3.org/2000/svg">
<g id="enigma 1" filter="url(#filter0_d)">
<path id="Piece_02" d="M217.36 104.48C214.4 112 212.88 120 212.88 128C212.88 136 214.4 144 217.36 151.52C219.28 156.24 223.76 158.88 228.32 158.88C231.28 158.88 234.24 157.76 236.56 155.44C238.8 153.2 241.76 152 244.88 152H256V256H152V267.12C152 270.24 153.2 273.2 155.44 275.44C157.76 277.76 158.88 280.72 158.88 283.68C158.88 288.24 156.24 292.72 151.52 294.64C144 297.6 136 299.12 128 299.12C120 299.12 112 297.6 104.48 294.64C99.7598 292.72 97.1201 288.24 97.1201 283.68C97.1201 280.72 98.2402 277.76 100.56 275.44C102.8 273.2 104 270.24 104 267.12V256H8V8H256V104H244.88C241.76 104 238.8 102.8 236.56 100.56C234.24 98.2397 231.28 97.1201 228.32 97.1201C223.76 97.1201 219.28 99.7598 217.36 104.48Z" fill="#00587E"/>
<path id="Piece_04" d="M294.64 407.52C297.6 400 299.12 392 299.12 384C299.12 376 297.6 368 294.64 360.48C292.72 355.76 288.24 353.12 283.68 353.12C280.72 353.12 277.76 354.24 275.44 356.56C273.2 358.8 270.24 360 267.12 360H256V256H360V244.88C360 241.76 358.8 238.8 356.56 236.56C354.24 234.24 353.12 231.28 353.12 228.32C353.12 223.76 355.76 219.28 360.48 217.36C368 214.4 376 212.88 384 212.88C392 212.88 400 214.4 407.52 217.36C412.24 219.28 414.88 223.76 414.88 228.32C414.88 231.28 413.76 234.24 411.44 236.56C409.2 238.8 408 241.76 408 244.88V256H504V504H256V408H267.12C270.24 408 273.2 409.2 275.44 411.44C277.76 413.76 280.72 414.88 283.68 414.88C288.24 414.88 292.72 412.24 294.64 407.52Z" fill="#ACDD12"/>
<path id="Piece_03" d="M104.48 294.64C112 297.6 120 299.12 128 299.12C136 299.12 144 297.6 151.52 294.64C156.24 292.72 158.88 288.24 158.88 283.68C158.88 280.72 157.76 277.76 155.44 275.44C153.2 273.2 152 270.24 152 267.12V256H256V360H267.12C270.24 360 273.2 358.8 275.44 356.56C277.76 354.24 280.72 353.12 283.68 353.12C288.24 353.12 292.72 355.76 294.64 360.48C297.6 368 299.12 376 299.12 384C299.12 392 297.6 400 294.64 407.52C292.72 412.24 288.24 414.88 283.68 414.88C280.72 414.88 277.76 413.76 275.44 411.44C273.2 409.2 270.24 408 267.12 408H256V504H8V256H104V267.12C104 270.24 102.8 273.2 100.56 275.44C98.2397 277.76 97.1201 280.72 97.1201 283.68C97.1201 288.24 99.7598 292.72 104.48 294.64Z" fill="#A565C3"/>
<path id="Piece_01" d="M407.52 217.36C400 214.4 392 212.88 384 212.88C376 212.88 368 214.4 360.48 217.36C355.76 219.28 353.12 223.76 353.12 228.32C353.12 231.28 354.24 234.24 356.56 236.56C358.8 238.8 360 241.76 360 244.88V256H256V152H244.88C241.76 152 238.8 153.2 236.56 155.44C234.24 157.76 231.28 158.88 228.32 158.88C223.76 158.88 219.28 156.24 217.36 151.52C214.4 144 212.88 136 212.88 128C212.88 120 214.4 112 217.36 104.48C219.28 99.7598 223.76 97.1201 228.32 97.1201C231.28 97.1201 234.24 98.2402 236.56 100.56C238.8 102.8 241.76 104 244.88 104H256V8H504V256H408V244.88C408 241.76 409.2 238.8 411.44 236.56C413.76 234.24 414.88 231.28 414.88 228.32C414.88 223.76 412.24 219.28 407.52 217.36Z" fill="#E22526"/>
<g id="Woman_01">
<path id="Vector" d="M176 360V392H160V408L144 424H112L111.84 423.92L111.76 423.76L96 408V392H80V360H120L144 344V360H176Z" fill="#FAC8B2"/>
<path id="Vector_2" d="M112 456L128 472H56V424L111.76 424.08L112 424H128L112 456Z" fill="#FCD4EF"/>
<path id="Vector_3" d="M200 424V472H128L144 456L128 424H144H184H200Z" fill="#FCD4EF"/>
<path id="Vector_4" d="M144 456L128 472L112 456L128 424L144 456Z" fill="#01579B"/>
<path id="Vector_5" d="M176 328V360H144V344L120 360H80V328L96 312H160L176 328Z" fill="#FFF176"/>
<path id="Vector_6" d="M200 312V392H176V328L160 312H121.92C121.28 311.04 120.64 310.08 120 309.12V304L136 288H176L200 312Z" fill="#FFF59D"/>
<path id="Vector_7" d="M96 408H152V360H176V392H160V408L144 424H112L96 408Z" fill="#F4AB92"/>
</g>
<g id="Man_01">
<path id="Vector_8" d="M400 152H368L312 168V224H456V168L400 152Z" fill="#AEDEF8"/>
<path id="Vector_9" d="M416 80L368 72L352 88H336V120H352V136L368 152H400L416 136V120H432V88H416V80Z" fill="#FAC8B2"/>
<path id="Vector_10" d="M352 136H408V72H416V88H432V120H416V136L400 152H368L352 136Z" fill="#F4AB92"/>
<path id="Vector_11" d="M384 152L368 200L384 224L400 200L384 152Z" fill="#BF360C"/>
<path id="Vector_12" d="M344 64L360 40L416 48L440 40L432 64L416 80L368 72L352 88L344 64Z" fill="#212121"/>
</g>
<g id="Man_02">
<path id="Vector_13" d="M144 152H112L56 168V224H200V168L144 152Z" fill="#AEDEF8"/>
<path id="Vector_14" d="M160 80L112 72L96 88H80V120H96V136L112 152H144L160 136V120H176V88H160V80Z" fill="#FAC8B2"/>
<path id="Vector_15" d="M96 136H152V72H160V88H176V120H160V136L144 152H112L96 136Z" fill="#F4AB92"/>
<path id="Vector_16" d="M128 152L112 200L128 224L144 200L128 152Z" fill="#00587E"/>
<path id="Vector_17" d="M88 64L104 40L160 48L184 40L176 64L160 80L112 72L96 88L88 64Z" fill="#58492F"/>
</g>
<g id="Woman_02">
<path id="Vector_18" d="M432 364V396H416V412L400 428H368L367.84 427.92L367.76 427.76L352 412V396H336V364H376L400 348V364H432Z" fill="#FAC8B2"/>
<path id="Vector_19" d="M368 460L384 476H312V428L367.76 428.08L368 428H384L368 460Z" fill="#FCD4EF"/>
<path id="Vector_20" d="M456 428V476H384L400 460L384 428H400H440H456Z" fill="#FCD4EF"/>
<path id="Vector_21" d="M400 460L384 476L368 460L384 428L400 460Z" fill="#F249B4"/>
<path id="Vector_22" d="M432 332V364H400V348L376 364H336V332L352 316H416L432 332Z" fill="#931D5B"/>
<path id="Vector_23" d="M456 316V396H432V332L416 316H377.92C377.28 315.04 376.64 314.08 376 313.12V308L392 292H432L456 316Z" fill="#B71E71"/>
<path id="Vector_24" d="M352 412H408V364H432V396H416V412L400 428H368L352 412Z" fill="#F4AB92"/>
</g>
</g>
<defs>
<filter id="filter0_d" x="-4" y="0" width="520" height="520" filterUnits="userSpaceOnUse" color-interpolation-filters="sRGB">
<feFlood flood-opacity="0" result="BackgroundImageFix"/>
<feColorMatrix in="SourceAlpha" type="matrix" values="0 0 0 0 0 0 0 0 0 0 0 0 0 0 0 0 0 0 127 0"/>
<feOffset dy="4"/>
<feGaussianBlur stdDeviation="2"/>
<feColorMatrix type="matrix" values="0 0 0 0 0 0 0 0 0 0 0 0 0 0 0 0 0 0 0.25 0"/>
<feBlend mode="normal" in2="BackgroundImageFix" result="effect1_dropShadow"/>
<feBlend mode="normal" in="SourceGraphic" in2="effect1_dropShadow" result="shape"/>
</filter>
</defs>
</svg>
