<svg width="1129" height="779" viewBox="0 0 1129 779" fill="none" xmlns="http://www.w3.org/2000/svg">
<g id="undraw_Firmware_jw6u 1" clip-path="url(#clip0)" filter="url(#filter0_d)">
<path id="Vector" d="M739.045 146.859C739.045 146.859 678.504 128.929 674.504 179.929C670.504 230.929 690.504 314.929 674.504 341.929C658.504 368.929 601.411 407.938 631.458 411.434C661.504 414.929 676.504 419.929 667.504 437.929C658.504 455.929 611.504 472.929 621.504 485.929C631.504 498.929 636.504 514.929 626.504 530.929C616.504 546.929 581.504 556.929 587.504 567.929C593.504 578.929 615.504 584.929 604.504 596.929C593.504 608.929 561.616 636.225 574.06 636.077" stroke="#535461" stroke-width="3" stroke-miterlimit="10"/>
<g id="robot">
<path id="Vector_2" d="M827.484 112.881H699.812C692.649 112.881 686.842 118.688 686.842 125.851V171.152C686.842 178.315 692.649 184.121 699.812 184.121H827.484C834.647 184.121 840.454 178.315 840.454 171.152V125.851C840.454 118.688 834.647 112.881 827.484 112.881Z" fill="#F96A42"/>
<path id="Vector_3" opacity="0.1" d="M828.21 173.188H699.087V174.523H828.21V173.188Z" fill="black"/>
<path id="Vector_4" opacity="0.3" d="M828.21 124.012H699.087V172.99H828.21V124.012Z" fill="black"/>
<path id="Vector_5" opacity="0.1" d="M729.141 167.333C738.977 167.333 746.951 159.36 746.951 149.523C746.951 139.687 738.977 131.713 729.141 131.713C719.305 131.713 711.331 139.687 711.331 149.523C711.331 159.36 719.305 167.333 729.141 167.333Z" fill="black"/>
<path id="Vector_6" opacity="0.1" d="M798.155 167.333C807.991 167.333 815.965 159.36 815.965 149.523C815.965 139.687 807.991 131.713 798.155 131.713C788.319 131.713 780.345 139.687 780.345 149.523C780.345 159.36 788.319 167.333 798.155 167.333Z" fill="black"/>
<path id="Vector_7" d="M777.003 184.119H750.29V199.707H777.003V184.119Z" fill="#F96A42"/>
<path id="Vector_8" d="M819.305 195.253H707.992V284.303H819.305V195.253Z" fill="#F96A42"/>
<path id="Vector_9" d="M821.531 302.113H705.765V313.244H821.531V302.113Z" fill="#F96A42"/>
<path id="Vector_10" d="M724.689 339.96V353.317V373.353V384.485V391.164H744.725V384.485V373.353V353.317V339.96V324.376H724.689V339.96Z" fill="#F96A42"/>
<path id="Vector_11" d="M784.798 324.376V339.96V353.317V373.353V384.485V391.164H804.834V384.485V373.353V353.317V339.96V324.376H784.798Z" fill="#F96A42"/>
<path id="Vector_12" d="M692.83 215.29V235.881C687.33 236.841 682.206 239.311 678.029 243.015C674.156 246.603 671.144 251.019 669.218 255.935C666.763 262.246 665.3 268.899 664.879 275.657C664.249 284.495 664.663 293.375 666.111 302.116H643.849C642.921 291.481 643.116 280.778 644.431 270.184C645.482 261.427 647.892 252.888 651.576 244.876C658.026 231.347 667.2 224.009 675.259 220.022C680.72 217.23 686.706 215.618 692.83 215.29Z" fill="#F96A42"/>
<path id="Vector_13" opacity="0.3" d="M744.725 324.376H724.688V339.96H744.725V324.376Z" fill="black"/>
<path id="Vector_14" opacity="0.3" d="M744.725 353.317H724.688V373.354H744.725V353.317Z" fill="black"/>
<path id="Vector_15" opacity="0.3" d="M744.725 384.485H724.688V391.164H744.725V384.485Z" fill="black"/>
<path id="Vector_16" opacity="0.3" d="M804.834 324.376H784.798V339.96H804.834V324.376Z" fill="black"/>
<path id="Vector_17" opacity="0.3" d="M804.834 353.317H784.798V373.354H804.834V353.317Z" fill="black"/>
<path id="Vector_18" opacity="0.3" d="M804.834 384.485H784.798V391.164H804.834V384.485Z" fill="black"/>
<path id="Vector_19" opacity="0.3" d="M692.83 215.29V235.881C687.33 236.841 682.206 239.311 678.029 243.015L675.259 220.022C680.72 217.23 686.706 215.618 692.83 215.29V215.29Z" fill="black"/>
<path id="Vector_20" opacity="0.3" d="M669.218 255.935C666.763 262.246 665.3 268.899 664.879 275.657L644.431 270.184C645.482 261.427 647.892 252.888 651.576 244.876L669.218 255.935Z" fill="black"/>
<path id="Vector_21" d="M834.466 215.29V235.881C839.966 236.841 845.09 239.311 849.267 243.015C853.14 246.603 856.152 251.019 858.078 255.935C860.533 262.246 861.997 268.899 862.417 275.657C863.047 284.495 862.634 293.375 861.185 302.116H883.447C884.375 291.481 884.18 280.778 882.865 270.184C881.815 261.427 879.404 252.888 875.72 244.876C869.27 231.347 860.097 224.009 852.037 220.022C846.577 217.23 840.59 215.618 834.466 215.29V215.29Z" fill="#F96A42"/>
<path id="Vector_22" opacity="0.3" d="M834.466 215.29V235.881C839.966 236.841 845.09 239.311 849.267 243.015L852.037 220.022C846.577 217.23 840.59 215.618 834.466 215.29V215.29Z" fill="black"/>
<path id="Vector_23" opacity="0.3" d="M858.078 255.935C860.533 262.246 861.997 268.899 862.417 275.657L882.865 270.184C881.815 261.427 879.404 252.888 875.72 244.876L858.078 255.935Z" fill="black"/>
<path id="Vector_24" opacity="0.1" d="M777.003 184.119H750.29V185.964H777.003V184.119Z" fill="black"/>
<path id="Vector_25" opacity="0.1" d="M821.283 211.119V248.402C819.951 246.965 819.212 245.077 819.213 243.117V216.399C819.212 214.441 819.951 212.555 821.283 211.119V211.119Z" fill="black"/>
<path id="Vector_26" opacity="0.1" d="M708.387 213.578V241.487C708.254 243.252 707.522 244.918 706.312 246.209V208.855C707.522 210.147 708.254 211.813 708.387 213.578V213.578Z" fill="black"/>
<path id="Vector_27" opacity="0.1" d="M813.739 284.305H713.559V285.623H813.739V284.305Z" fill="black"/>
<path id="Vector_28" opacity="0.1" d="M760.307 313.247H711.331V314.269H760.307V313.247Z" fill="black"/>
<path id="Vector_29" opacity="0.1" d="M813.739 313.247H764.763V314.269H813.739V313.247Z" fill="black"/>
<path id="Vector_30" d="M724.46 46.9528H716.794V112.881H724.46V46.9528Z" fill="#F96A42"/>
<path id="Vector_31" d="M812.365 46.9528H804.698V112.881H812.365V46.9528Z" fill="#F96A42"/>
<path id="Vector_32" opacity="0.1" d="M720.372 56.152C725.17 56.152 729.06 52.2622 729.06 47.4638C729.06 42.6655 725.17 38.7756 720.372 38.7756C715.573 38.7756 711.683 42.6655 711.683 47.4638C711.683 52.2622 715.573 56.152 720.372 56.152Z" fill="black"/>
<path id="Vector_33" d="M720.372 55.641C725.17 55.641 729.06 51.7511 729.06 46.9528C729.06 42.1544 725.17 38.2645 720.372 38.2645C715.573 38.2645 711.683 42.1544 711.683 46.9528C711.683 51.7511 715.573 55.641 720.372 55.641Z" fill="#F96A42"/>
<path id="Vector_34" opacity="0.1" d="M808.787 56.152C813.585 56.152 817.475 52.2622 817.475 47.4638C817.475 42.6655 813.585 38.7756 808.787 38.7756C803.989 38.7756 800.099 42.6655 800.099 47.4638C800.099 52.2622 803.989 56.152 808.787 56.152Z" fill="black"/>
<path id="Vector_35" d="M808.787 55.641C813.585 55.641 817.475 51.7511 817.475 46.9528C817.475 42.1544 813.585 38.2645 808.787 38.2645C803.989 38.2645 800.099 42.1544 800.099 46.9528C800.099 51.7511 803.989 55.641 808.787 55.641Z" fill="#F96A42"/>
</g>
<path id="Vector_36" d="M908.978 94.5989L838.346 116.668L841.03 125.259L911.662 103.189L908.978 94.5989Z" fill="#F96A42"/>
<path id="Vector_37" d="M940.425 428.945C940.425 428.945 901.701 421.2 891.375 410.874C881.048 400.547 834.58 382.476 829.417 395.384C824.254 408.292 759.714 452.179 803.601 459.924C847.488 467.668 906.864 470.25 919.772 465.087C932.68 459.924 940.425 428.945 940.425 428.945Z" fill="#A8A8A8"/>
<path id="Vector_38" opacity="0.2" d="M803.601 455.128C847.488 462.873 906.864 465.455 919.772 460.291C929.602 456.359 936.433 437.467 939.134 428.676C939.951 428.849 940.425 428.945 940.425 428.945C940.425 428.945 932.68 459.924 919.772 465.087C906.864 470.25 847.488 467.669 803.601 459.924C790.932 457.688 787.31 452.438 788.674 445.794C789.757 450.129 794.171 453.464 803.601 455.128Z" fill="black"/>
<path id="Vector_39" d="M1026.42 91.337C1025.73 89.6177 1024.63 88.0932 1023.22 86.8959C1012.83 77.4251 996.019 80.296 983.118 74.5109C980.146 73.1783 977.097 71.3295 973.87 71.8361C969.363 72.5435 965.174 77.6737 961.244 75.3975L961.526 76.2545C961.432 76.2085 961.338 76.1624 961.244 76.1081C962.208 79.0421 963.171 81.976 964.134 84.9099C965.243 88.289 966.413 91.7665 968.571 94.5803C965.38 97.3628 962.938 100.901 961.469 104.871C959.999 108.84 959.548 113.116 960.157 117.305C960.766 121.494 962.416 125.464 964.955 128.85C967.495 132.237 970.843 134.934 974.694 136.692C974.83 136.987 974.965 137.283 975.097 137.581C975.219 137.636 975.345 137.684 975.468 137.738C976.325 139.706 976.964 141.762 977.375 143.869C974.031 144.331 968.202 148.029 962.467 153.489L951.001 153.097C943.592 152.85 936.423 150.413 930.399 146.093L896.11 121.441C893.666 121.681 891.363 122.699 889.54 124.345C885.282 119.909 881.669 115.274 881.977 112.559C881.977 112.559 866.031 82.7147 860.233 97.637C854.434 112.559 871.105 128.192 871.105 128.192L881.68 141.892C881.263 144.294 880.999 146.719 880.889 149.154C893.936 164.076 939.599 177.578 939.599 177.578L946.719 177.922C946.734 178.053 946.746 178.163 946.759 178.272C946.322 180.14 946.108 182.054 946.122 183.973C946.126 184.248 946.131 184.537 946.136 184.826C946.134 185.015 946.119 185.205 946.122 185.394C946.484 209.199 949.746 282.033 949.746 282.033C950.381 281.75 951.036 281.492 951.703 281.248L951.196 287.718C951.196 287.718 920.754 291.981 898.285 300.508C875.816 309.035 875.091 318.984 875.091 318.984V406.764C868.671 410.058 858.545 414.387 853.347 412.07C847.704 409.555 844.606 411.668 844.046 413.873V413.874C843.932 414.307 843.923 414.762 844.021 415.199L844.028 415.226C844.076 415.422 844.149 415.611 844.244 415.789L844.267 415.83C844.37 416.015 844.499 416.184 844.649 416.333C846.824 418.465 893.936 436.94 904.808 434.098C905.144 434.01 905.473 433.899 905.793 433.766C905.898 433.723 905.991 433.666 906.092 433.618C906.293 433.523 906.496 433.431 906.684 433.32C906.796 433.253 906.896 433.173 907.004 433.101C907.166 432.992 907.332 432.887 907.484 432.766C907.59 432.682 907.685 432.585 907.786 432.495C907.926 432.37 908.068 432.249 908.199 432.114C908.294 432.015 908.379 431.906 908.469 431.802C908.592 431.661 908.717 431.522 908.832 431.37C908.914 431.262 908.987 431.144 909.065 431.03C909.174 430.871 909.286 430.713 909.387 430.544C909.456 430.428 909.518 430.305 909.583 430.185C909.681 430.006 909.779 429.829 909.868 429.642C909.925 429.522 909.976 429.397 910.03 429.273C910.116 429.076 910.202 428.878 910.28 428.673C910.326 428.553 910.366 428.428 910.409 428.305C910.485 428.087 910.559 427.869 910.627 427.644C910.661 427.527 910.692 427.408 910.724 427.289C910.79 427.049 910.855 426.808 910.912 426.562C910.937 426.453 910.959 426.341 910.982 426.231C911.038 425.969 911.092 425.705 911.139 425.437C911.156 425.338 911.171 425.238 911.187 425.138C911.233 424.852 911.276 424.565 911.312 424.273C911.323 424.19 911.332 424.106 911.341 424.023C911.378 423.711 911.41 423.398 911.436 423.083C911.441 423.017 911.446 422.951 911.451 422.885C911.477 422.549 911.498 422.211 911.514 421.872C911.516 421.827 911.517 421.782 911.519 421.737C911.534 421.375 911.544 421.013 911.549 420.651L911.55 420.583C911.534 416.344 911.065 412.118 910.151 407.979V407.979L912.781 333.195C927.016 333.416 941.254 332.892 955.434 331.624L956.994 367.303C956.994 367.303 956.994 390.752 964.967 401.411C971.79 410.533 979.674 450.876 981.806 462.322C978.877 467.907 973.273 474.814 963.517 474.601C963.517 474.601 945.16 473.014 946.195 478.064L946.197 478.072C946.226 478.204 946.264 478.334 946.312 478.459L946.324 478.492C946.381 478.637 946.448 478.779 946.523 478.915L946.54 478.943C946.613 479.074 946.699 479.208 946.794 479.346C946.814 479.374 946.832 479.402 946.853 479.43C946.96 479.579 947.076 479.731 947.21 479.889L947.243 479.927C947.365 480.069 947.501 480.216 947.646 480.366C947.686 480.407 947.726 480.448 947.768 480.49C947.932 480.655 948.105 480.823 948.296 480.996C957.719 489.523 1012.8 490.945 1012.8 490.945L1012.8 490.912L1012.8 490.89L1012.8 490.783L1012.8 490.752C1012.8 490.698 1012.8 490.63 1012.8 490.554L1012.8 490.525C1012.77 488.058 1012.44 475.11 1009.14 465.364H1009.9C1009.9 465.364 1001.93 393.595 995.409 385.068C995.409 385.068 993.676 347.225 997.588 323.508C997.828 323.421 998.071 323.336 998.308 323.247C1016.58 316.423 1017.88 299.616 1016 287.268C1019.45 288.378 1021.5 289.139 1021.5 289.139C1021.5 289.139 1021.44 288.602 1021.32 287.652C1021.44 287.694 1021.5 287.718 1021.5 287.718C1021.5 287.718 1021.15 285.461 1020.58 281.939C1019.27 272.256 1016.74 255.335 1014.04 247.346C1013.61 245.59 1013.19 244.089 1012.8 242.951C1011.25 238.151 1010.18 233.206 1009.61 228.191C1008.87 221.692 1008.5 215.158 1008.49 208.617C1008.55 199.877 1009.22 191.152 1010.5 182.506C1011.6 174.953 1012.6 166.364 1012.52 160.366C1012.59 158.278 1012.45 156.186 1012.08 154.128C1011.11 149.7 1006.84 146.82 1002.4 144.988C1002.11 144.87 1001.82 144.773 1001.53 144.664C1001.64 142.985 1001.78 141.083 1001.96 139.078C1002.5 139.447 1003.1 139.703 1003.73 139.832C1004.37 139.961 1005.02 139.959 1005.66 139.826C1007.57 139.408 1008.94 137.815 1010.16 136.315C1016.58 128.426 1023.18 120.202 1025.64 110.401C1026.63 106.023 1027.09 101.543 1027 97.0567C1027 96.8115 1027 96.5657 1027 96.3193C1027.1 94.6373 1026.9 92.9514 1026.42 91.337V91.337Z" fill="url(#paint0_linear)"/>
<path id="Vector_40" d="M967.933 129.798C967.933 129.798 977.665 144.397 975.58 151.349C973.494 158.3 998.521 154.129 998.521 154.129C998.521 154.129 999.216 127.017 1004.08 120.761C1008.95 114.504 967.933 129.798 967.933 129.798Z" fill="#F7C4A7"/>
<path id="Vector_41" d="M903.628 139.183C903.628 139.183 883.468 122.499 884.163 116.242C884.163 116.242 868.869 87.0444 863.308 101.643C857.746 116.242 873.736 131.536 873.736 131.536L893.201 157.258L903.628 139.183Z" fill="#F7C4A7"/>
<path id="Vector_42" d="M883.121 400.919C883.121 400.919 864.351 412.737 856.704 409.261C849.057 405.785 846.276 411.346 848.362 413.432C850.447 415.517 895.634 433.592 906.062 430.811C916.489 428.031 911.186 405.258 911.186 405.258L883.121 400.919Z" fill="#535461"/>
<path id="Vector_43" d="M982.531 451.667C982.531 451.667 978.013 470.784 962.371 470.437C962.371 470.437 938.735 468.351 947.772 476.693C956.81 485.036 1009.64 486.426 1009.64 486.426C1009.64 486.426 1009.64 457.924 999.911 451.667C990.178 445.41 982.531 451.667 982.531 451.667Z" fill="#535461"/>
<path id="Vector_44" d="M954.029 316.802L956.115 365.464C956.115 365.464 956.115 388.405 963.762 398.833C971.409 409.261 980.446 461.399 980.446 461.399H1006.86C1006.86 461.399 999.216 391.186 992.959 382.844C992.959 382.844 990.178 320.973 999.911 307.069L954.029 316.802Z" fill="#575988"/>
<path id="Vector_45" opacity="0.1" d="M954.029 316.802L956.115 365.464C956.115 365.464 956.115 388.405 963.762 398.833C971.409 409.261 980.446 461.399 980.446 461.399H1006.86C1006.86 461.399 999.216 391.186 992.959 382.844C992.959 382.844 990.178 320.973 999.911 307.069L954.029 316.802Z" fill="black"/>
<path id="Vector_46" d="M1008.95 273.005C1008.95 273.005 1024.94 311.24 995.74 322.363C966.542 333.486 913.709 332.096 913.709 332.096L910.928 412.737C910.928 412.737 878.254 416.908 877.559 406.48V318.192C877.559 318.192 878.254 308.46 899.805 300.117C921.356 291.775 950.553 287.604 950.553 287.604L951.944 269.529L1008.95 273.005Z" fill="#575988"/>
<path id="Vector_47" opacity="0.1" d="M983.329 147.049C988.881 146.435 994.499 147.23 999.663 149.359C1003.92 151.151 1008.02 153.968 1008.95 158.3C1010.05 163.431 1008.83 174.938 1007.43 184.672C1005.19 199.936 1004.91 215.422 1006.58 230.757C1007.3 237.144 1008.29 242.713 1009.64 245.198C1013.81 252.845 1017.99 288.995 1017.99 288.995C1017.99 288.995 972.104 271.615 949.163 282.043C949.163 282.043 946.035 210.787 945.687 187.498C945.418 169.465 968.28 148.915 975.927 148.22C980.408 147.813 978.876 147.511 983.329 147.049Z" fill="black"/>
<path id="Vector_48" d="M983.329 145.659C988.881 145.045 994.499 145.839 999.663 147.968C1003.92 149.761 1008.02 152.578 1008.95 156.91C1010.05 162.041 1008.83 173.548 1007.43 183.282C1005.19 198.545 1004.91 214.032 1006.58 229.367C1007.12 234.27 1008.15 239.107 1009.64 243.808C1012.77 253.193 1017.99 287.604 1017.99 287.604C1017.99 287.604 972.104 270.225 949.163 280.652C949.163 280.652 946.035 209.396 945.687 186.108C945.418 168.075 968.28 147.525 975.927 146.83C980.408 146.423 978.876 146.121 983.329 145.659Z" fill="#E14B5A"/>
<path id="Vector_49" opacity="0.1" d="M995.74 184.022L946.382 181.241C946.382 181.241 943.241 157.043 950.366 157.292L999.216 158.996C999.216 158.996 1009.64 171.509 995.74 184.022Z" fill="black"/>
<path id="Vector_50" d="M995.74 182.632L939.43 179.851C939.43 179.851 895.634 166.643 883.121 152.044C883.121 152.044 883.816 126.322 897.719 124.932L930.606 149.049C936.356 153.265 943.241 155.653 950.366 155.901L999.216 157.605C999.216 157.605 1009.64 170.119 995.74 182.632Z" fill="#E14B5A"/>
<path id="Vector_51" opacity="0.1" d="M998.173 132.926C998.999 126.334 1001.99 124.148 1004.08 121.456C1008.95 115.199 967.933 130.493 967.933 130.493C970.047 133.751 971.901 137.172 973.477 140.722C976.752 142.23 980.316 143.009 983.922 143.006C989.969 143.006 993.847 136.497 998.173 132.926Z" fill="black"/>
<path id="Vector_52" d="M983.922 142.311C997.744 142.311 1008.95 131.107 1008.95 117.285C1008.95 103.463 997.744 92.2582 983.922 92.2582C970.1 92.2582 958.895 103.463 958.895 117.285C958.895 131.107 970.1 142.311 983.922 142.311Z" fill="#F7C4A7"/>
<path id="Vector_53" opacity="0.1" d="M968.118 99.7429C965.453 96.8322 964.172 92.9489 962.963 89.192L960.191 80.581C963.96 82.8078 967.978 77.7888 972.3 77.0967C975.396 76.6011 978.32 78.4098 981.17 79.7136C993.544 85.3733 1009.66 82.5646 1019.63 91.8301C1020.99 93.0083 1022.05 94.4993 1022.7 96.175C1023.17 97.7647 1023.36 99.422 1023.26 101.075C1023.34 105.463 1022.9 109.845 1021.96 114.13C1019.59 123.719 1013.27 131.764 1007.1 139.483C1005.93 140.95 1004.62 142.509 1002.79 142.918C999.212 143.717 996.444 139.85 995.059 136.456C993.226 131.961 991.874 127.284 991.026 122.504C990.811 120.46 990.253 118.466 989.374 116.608C987.22 112.789 981.91 109.175 978.682 106.217C975.508 103.31 971.083 102.981 968.118 99.7429Z" fill="black"/>
<path id="Vector_54" d="M968.118 99.0477C965.453 96.137 964.172 92.2537 962.963 88.4968L960.191 79.8858C963.96 82.1126 967.978 77.0936 972.3 76.4015C975.396 75.9059 978.32 77.7147 981.17 79.0184C993.544 84.6781 1009.66 81.8694 1019.63 91.1349C1020.99 92.3131 1022.05 93.8041 1022.7 95.4798C1023.17 97.0695 1023.36 98.7268 1023.26 100.38C1023.34 104.768 1022.9 109.15 1021.96 113.435C1019.59 123.024 1013.27 131.069 1007.1 138.788C1005.93 140.255 1004.62 141.814 1002.79 142.223C999.212 143.021 996.444 139.155 995.059 135.761C993.226 131.266 991.874 126.589 991.026 121.809C990.811 119.765 990.253 117.771 989.374 115.912C987.22 112.094 981.91 108.48 978.682 105.522C975.508 102.615 971.083 102.286 968.118 99.0477Z" fill="#632652"/>
<path id="Vector_55" d="M990.526 124.584C991.678 124.584 992.612 122.561 992.612 120.065C992.612 117.57 991.678 115.547 990.526 115.547C989.374 115.547 988.441 117.57 988.441 120.065C988.441 122.561 989.374 124.584 990.526 124.584Z" fill="#F7C4A7"/>
<path id="Vector_56" opacity="0.1" d="M1003.04 240.679C1003.04 240.679 1001.65 244.851 994.697 244.155C987.745 243.46 967.585 242.07 967.585 244.155" fill="black"/>
<path id="Vector_57" opacity="0.5" d="M947.773 475.998C946.817 475.261 946.111 474.249 945.75 473.098C945.568 474.001 946.126 475.173 947.773 476.693C956.81 485.036 1009.64 486.426 1009.64 486.426C1009.64 486.426 1009.64 486.18 1009.64 485.731C1009.3 485.722 956.781 484.314 947.773 475.998Z" fill="white"/>
<path id="Vector_58" opacity="0.5" d="M906.062 429.421C895.634 432.202 850.447 414.127 848.362 412.042C848.083 411.759 847.883 411.409 847.783 411.025C847.662 411.442 847.652 411.883 847.753 412.305C847.855 412.727 848.065 413.116 848.362 413.432C850.447 415.517 895.634 433.592 906.062 430.811C911.429 429.38 912.625 422.654 912.525 416.462C912.423 422.236 911.029 428.097 906.062 429.421Z" fill="white"/>
<path id="Vector_59" d="M509.498 482.7C507.06 469.137 505.564 455.421 505.021 441.651V441.651C504.543 430.31 500.567 419.395 493.638 410.404C486.71 401.412 477.168 394.785 466.324 391.433C462.375 390.218 458.02 389.082 453.217 388.062C411.089 379.114 398.292 386.927 396.838 387.954C395.611 385.71 394.545 383.383 393.648 380.988C393.577 380.745 393.51 380.497 393.442 380.251C401.779 371.359 406.858 359.905 407.851 347.757C414.878 340.631 418.984 332.035 418.984 322.779C418.984 314.819 415.944 307.348 410.624 300.879V288.318C410.624 281.134 409.209 274.02 406.46 267.383C403.711 260.746 399.681 254.715 394.602 249.635C389.522 244.555 383.491 240.526 376.854 237.777C370.217 235.027 363.103 233.612 355.919 233.612H351.483C344.299 233.612 337.185 235.027 330.548 237.777C323.911 240.526 317.88 244.555 312.8 249.635C307.72 254.715 303.691 260.746 300.942 267.383C298.192 274.02 296.777 281.134 296.777 288.318V301.877C291.983 307.799 289.319 315.161 289.214 322.779C289.214 331.84 293.152 340.268 299.911 347.305C300.834 359.899 306.148 371.77 314.924 380.85C315.22 382.904 315.524 385.115 315.824 387.447L240.451 403.388C240.451 403.388 211.392 404.582 192.683 443.194C176.844 475.883 145.316 559.919 136.014 584.938H136.014L136.014 584.938C134.328 589.472 133.371 592.071 133.371 592.071C133.371 592.071 133.68 591.759 134.272 591.226C133.686 592.808 133.371 593.663 133.371 593.663C133.371 593.663 133.829 593.201 134.698 592.44C133.378 602.911 133.189 620.881 146.905 623.12C158.403 624.997 188.017 625.768 210.397 626.084V626.106H211.949C226.779 626.305 238.063 626.305 238.063 626.305V626.106H478.694V623.64C478.696 621.4 478.245 619.183 477.368 617.122C477.483 616.988 477.595 616.854 477.703 616.719C478.991 618.419 479.847 620.406 480.2 622.509C480.173 622.715 480.136 622.919 480.087 623.12C480.087 623.12 480.137 622.992 480.229 622.752C480.286 623.409 480.238 624.071 480.087 624.712C480.087 624.712 510.96 545.165 510.63 497.667C510.72 492.654 510.341 487.643 509.498 482.7ZM317.058 398.188C316.661 395.92 316.406 393.628 316.294 391.328L316.296 391.265C316.562 393.498 316.819 395.814 317.058 398.188ZM223.533 569.051V588.009L211.649 590.547L223.533 569.051Z" fill="url(#paint1_linear)"/>
<path id="Vector_60" d="M352.466 241.263H352.466C366.975 241.263 380.889 247.027 391.148 257.286C401.407 267.545 407.171 281.46 407.171 295.969V319.305H297.76V295.969C297.76 281.46 303.524 267.545 313.783 257.286C324.042 247.027 337.957 241.263 352.466 241.263V241.263Z" fill="#E14B5A"/>
<path id="Vector_61" d="M352.848 369.802C387.287 369.802 415.205 350.619 415.205 326.956C415.205 303.292 387.287 284.11 352.848 284.11C318.41 284.11 290.492 303.292 290.492 326.956C290.492 350.619 318.41 369.802 352.848 369.802Z" fill="#E14B5A"/>
<path id="Vector_62" d="M312.871 368.463C312.871 368.463 325.878 436.558 312.871 454.92C299.864 473.283 352.657 480.551 352.657 480.551L407.362 460.659L415.013 411.692C415.013 411.692 381.731 392.946 388.617 355.073L312.871 368.463Z" fill="#F7C4A7"/>
<path id="Vector_63" d="M474.309 597.996C474.309 597.996 477.752 612.915 459.007 615.593C447.937 617.222 436.679 617.088 425.651 615.196L421.517 577.72H465.128L474.309 597.996Z" fill="#F7C4A7"/>
<path id="Vector_64" d="M143.262 578.899C143.262 578.899 134.983 612.533 153.729 615.593C172.474 618.654 241.334 618.654 241.334 618.654V578.868L210.161 585.526L180.89 557.445L143.262 578.899Z" fill="#F7C4A7"/>
<path id="Vector_65" opacity="0.1" d="M316.888 390.46L243.629 405.953C243.629 405.953 215.702 407.101 197.722 444.209C179.742 481.317 140.722 587.284 140.722 587.284C140.722 587.284 174.004 553.619 213.025 589.58L239.038 542.525L233.3 617.123H434.906V581.928C434.906 581.928 476.987 604.499 473.927 617.123C473.927 617.123 509.936 524.342 502.192 482.175C499.848 469.141 498.411 455.959 497.89 442.726V442.726C497.43 431.826 493.608 421.337 486.95 412.696C480.291 404.055 471.122 397.686 460.7 394.464C456.905 393.296 452.719 392.205 448.104 391.225C404.876 382.044 393.782 391.225 393.782 391.225C393.782 391.225 385.408 418.471 385.557 430.819C385.748 446.695 362.986 457.216 362.986 457.216C362.986 457.216 329.321 449.182 327.791 442.678C326.261 436.175 314.21 398.111 316.888 390.46Z" fill="black"/>
<path id="Vector_66" d="M316.888 388.93L243.629 404.423C243.629 404.423 215.702 405.571 197.722 442.678C179.742 479.786 140.722 585.754 140.722 585.754C140.722 585.754 174.004 552.089 213.025 588.049L239.038 540.995L233.3 615.593H434.906V580.398C434.906 580.398 476.987 602.969 473.927 615.593C473.927 615.593 509.936 522.812 502.192 480.645C499.848 467.61 498.411 454.429 497.89 441.195V441.195C497.43 430.296 493.608 419.807 486.95 411.166C480.291 402.525 471.122 396.156 460.7 392.934C456.905 391.766 452.719 390.675 448.104 389.695C404.876 380.513 393.782 389.695 393.782 389.695C393.782 389.695 385.408 416.941 385.557 429.289C385.748 445.165 362.986 455.685 362.986 455.685C362.986 455.685 329.321 447.652 327.791 441.148C326.261 434.645 314.21 396.581 316.888 388.93Z" fill="#575988"/>
<path id="Vector_67" opacity="0.1" d="M391.761 385.679C388.684 376.965 387.994 367.586 389.765 358.516L314.019 371.906C314.019 371.906 315.112 377.63 316.348 386.206C321.243 391.286 327.12 395.316 333.622 398.053C340.123 400.79 347.114 402.176 354.168 402.126C361.222 402.077 368.192 400.593 374.655 397.766C381.117 394.938 386.937 390.826 391.761 385.679V385.679Z" fill="black"/>
<path id="Vector_68" d="M404.684 346.657C404.685 360.347 399.289 373.484 389.669 383.223C380.048 392.961 366.976 398.515 353.288 398.681C339.6 398.847 326.398 393.612 316.543 384.11C306.689 374.608 300.977 361.605 300.645 347.92C300.633 347.499 300.63 347.078 300.63 346.657C300.628 336.916 303.361 327.369 308.517 319.104C313.673 310.839 321.045 304.187 329.796 299.905C331.356 299.144 332.959 298.458 334.604 297.847C343.168 294.699 352.405 293.842 361.402 295.361C361.408 295.364 361.415 295.365 361.421 295.364C372.946 297.327 383.472 303.116 391.301 311.797C399.13 320.479 403.804 331.545 404.57 343.21C404.646 344.35 404.684 345.499 404.684 346.657Z" fill="#F7C4A7"/>
<g id="Group" opacity="0.1">
<path id="Vector_69" opacity="0.1" d="M334.532 299.068C334.555 299.051 334.579 299.036 334.604 299.022C332.959 299.63 331.356 300.316 329.796 301.08C321.045 305.362 313.673 312.014 308.517 320.279C303.361 328.544 300.628 338.09 300.63 347.832C300.63 348.253 300.633 348.674 300.645 349.094C302.262 349.052 303.852 348.67 305.312 347.974C317.998 342.055 325.607 323.942 328.594 311.31C329.665 306.788 330.691 301.692 334.532 299.068Z" fill="black"/>
<path id="Vector_70" opacity="0.1" d="M374.355 300.529C370.238 298.637 365.889 297.295 361.421 296.539C365.086 297.382 368.359 299.438 370.71 302.373C371.861 303.94 372.816 305.642 373.553 307.442C366.629 304.415 359.13 302.928 351.575 303.084C344.019 303.241 336.588 305.037 329.796 308.349C333.063 315.506 343.189 319.412 349.949 322.025C357.351 324.883 364.84 327.496 372.416 329.864C370.186 328.05 367.955 326.239 365.725 324.431C370.76 325.231 375.795 326.032 380.832 326.834C380.996 323.827 380.639 320.814 379.778 317.928C382.653 320.261 386.509 321.042 389.65 323.023C395.538 326.734 397.986 333.896 401.196 340.07C401.939 341.77 403.099 343.254 404.57 344.385C403.949 335.032 400.815 326.02 395.496 318.3C390.178 310.581 382.874 304.441 374.355 300.529Z" fill="black"/>
</g>
<path id="Vector_71" d="M334.532 297.893C334.555 297.876 334.579 297.861 334.604 297.847C332.959 298.455 331.356 299.141 329.796 299.905C321.045 304.187 313.673 310.839 308.517 319.104C303.361 327.369 300.628 336.916 300.63 346.657C300.63 347.078 300.633 347.499 300.645 347.92C302.262 347.877 303.852 347.495 305.312 346.799C317.998 340.881 325.607 322.767 328.594 310.135C329.665 305.613 330.691 300.517 334.532 297.893Z" fill="#632652"/>
<path id="Vector_72" d="M374.355 299.354C370.238 297.462 365.889 296.121 361.421 295.364C365.086 296.207 368.359 298.263 370.71 301.198C371.861 302.765 372.816 304.468 373.553 306.267C366.629 303.24 359.13 301.753 351.575 301.91C344.019 302.066 336.588 303.862 329.796 307.174C333.063 314.331 343.189 318.237 349.949 320.85C357.351 323.708 364.84 326.321 372.416 328.689C370.186 326.875 367.955 325.065 365.725 323.256C370.76 324.056 375.795 324.857 380.832 325.659C380.996 322.652 380.639 319.639 379.778 316.753C382.653 319.086 386.509 319.867 389.65 321.849C395.538 325.559 397.986 332.721 401.196 338.895C401.939 340.595 403.099 342.079 404.57 343.21C403.949 333.857 400.815 324.845 395.496 317.125C390.178 309.406 382.874 303.266 374.355 299.354V299.354Z" fill="#632652"/>
<path id="Vector_73" opacity="0.1" d="M294.7 338.077C294.7 338.077 348.258 271.512 410.231 338.077L404.876 323.157C404.876 323.157 375.802 280.694 355.144 289.875C334.486 299.056 314.21 305.56 314.21 305.56L294.7 338.077Z" fill="black"/>
<path id="Vector_74" d="M294.7 336.902C294.7 336.902 348.258 270.338 410.231 336.902L404.876 321.982C404.876 321.982 375.802 279.519 355.144 288.7C334.486 297.882 314.21 304.385 314.21 304.385L294.7 336.902Z" fill="#E14B5A"/>
<path id="Vector_75" opacity="0.1" d="M250.706 480.36C250.706 480.36 239.23 510.965 255.297 538.508C271.364 566.052 241.142 577.529 241.142 577.529" fill="black"/>
<path id="Vector_76" opacity="0.1" d="M436.628 452.816C436.628 452.816 456.521 478.065 443.514 500.636C430.507 523.206 431.272 577.529 431.272 577.529" fill="black"/>
<path id="Vector_77" d="M233.109 600.1H454.225C459.095 600.1 463.766 602.034 467.21 605.478C470.653 608.922 472.588 613.592 472.588 618.462V618.462H214.746C214.746 613.592 216.681 608.922 220.124 605.478C223.568 602.034 228.239 600.1 233.109 600.1H233.109Z" fill="#535461"/>
<path id="Vector_78" d="M266.37 473.857H420.964C431.307 473.857 441.227 477.966 448.541 485.28C455.855 492.593 459.964 502.513 459.964 512.857V604.308H227.37V512.857C227.37 502.513 231.479 492.593 238.793 485.28C246.107 477.966 256.027 473.857 266.37 473.857V473.857Z" fill="#535461"/>
<path id="Vector_79" d="M343.476 558.593C351.082 558.593 357.248 552.427 357.248 544.821C357.248 537.215 351.082 531.049 343.476 531.049C335.87 531.049 329.704 537.215 329.704 544.821C329.704 552.427 335.87 558.593 343.476 558.593Z" fill="white"/>
<path id="Vector_80" opacity="0.1" d="M297.76 306.867C297.76 306.867 350.4 254.256 407.171 305.907" stroke="black" stroke-miterlimit="10"/>
<path id="Vector_81" d="M420.473 303.516H415.186V333.474H420.473V303.516Z" fill="#6A5C99"/>
<path id="Vector_82" d="M408.137 322.901C412.967 322.901 417.599 324.819 421.014 328.234C424.429 331.649 426.347 336.281 426.347 341.111V342.286C426.347 347.115 424.429 351.747 421.014 355.162C417.599 358.577 412.967 360.496 408.137 360.496V322.901Z" fill="#FFD037"/>
<path id="Vector_83" d="M408.725 321.138H408.725C406.454 321.138 404.613 322.979 404.613 325.25V358.146C404.613 360.417 406.454 362.258 408.725 362.258H408.725C410.996 362.258 412.837 360.417 412.837 358.146V325.25C412.837 322.979 410.996 321.138 408.725 321.138Z" fill="#6A5C99"/>
<path id="Vector_84" d="M283.919 334.062H289.206V304.103H283.919V334.062Z" fill="#6A5C99"/>
<path id="Vector_85" d="M296.255 361.083C291.425 361.083 286.793 359.165 283.378 355.75C279.963 352.335 278.045 347.703 278.045 342.873V341.698C278.045 336.869 279.963 332.237 283.378 328.822C286.793 325.407 291.425 323.488 296.255 323.488V361.083Z" fill="#FFD037"/>
<path id="Vector_86" d="M295.667 362.845H295.667C297.938 362.845 299.779 361.004 299.779 358.733V325.838C299.779 323.567 297.938 321.726 295.667 321.726H295.667C293.396 321.726 291.555 323.567 291.555 325.838V358.733C291.555 361.004 293.396 362.845 295.667 362.845Z" fill="#6A5C99"/>
<path id="Vector_87" d="M414.56 271.494C407.401 256.61 391.811 238.614 358.203 237.178L358.206 237.137L357.803 237.156L357.777 237.155L357.776 237.157L345.87 237.724L345.872 237.783C312.485 239.32 296.968 257.245 289.832 272.082C285.087 282.132 282.569 293.09 282.452 304.204L286.562 304.103L290.673 304.009C290.853 294.103 293.135 284.347 297.368 275.389C306.432 256.775 323.107 246.873 346.931 245.96L346.931 245.953L357.461 245.37L357.461 245.372C381.285 246.286 397.96 256.187 407.024 274.802C411.257 283.76 413.539 293.515 413.719 303.422L417.83 303.516L421.94 303.617C421.823 292.502 419.305 281.545 414.56 271.494V271.494Z" fill="#FFD037"/>
<path id="Vector_88" d="M602.393 618.704H41.615V769.267H602.393V618.704Z" fill="#D6D6E3"/>
<path id="Vector_89" opacity="0.1" d="M602.393 628.838H41.615V648.382H602.393V628.838Z" fill="black"/>
<path id="Vector_90" d="M640.004 616.533H4V636.077H640.004V616.533Z" fill="#D6D6E3"/>
<path id="Vector_91" d="M439.504 567.929C439.504 567.929 463.504 611.929 523.504 599.929C583.504 587.929 554.504 710.929 554.504 710.929C554.504 710.929 544.687 769.604 551.596 769.267" stroke="#535461" stroke-width="3" stroke-miterlimit="10"/>
</g>
<defs>
<filter id="filter0_d" x="0" y="0" width="1132.68" height="778.768" filterUnits="userSpaceOnUse" color-interpolation-filters="sRGB">
<feFlood flood-opacity="0" result="BackgroundImageFix"/>
<feColorMatrix in="SourceAlpha" type="matrix" values="0 0 0 0 0 0 0 0 0 0 0 0 0 0 0 0 0 0 127 0"/>
<feOffset dy="4"/>
<feGaussianBlur stdDeviation="2"/>
<feColorMatrix type="matrix" values="0 0 0 0 0 0 0 0 0 0 0 0 0 0 0 0 0 0 0.25 0"/>
<feBlend mode="normal" in2="BackgroundImageFix" result="effect1_dropShadow"/>
<feBlend mode="normal" in="SourceGraphic" in2="effect1_dropShadow" result="shape"/>
</filter>
<linearGradient id="paint0_linear" x1="935.479" y1="490.945" x2="935.479" y2="71.7504" gradientUnits="userSpaceOnUse">
<stop stop-color="#808080" stop-opacity="0.25"/>
<stop offset="0.53514" stop-color="#808080" stop-opacity="0.12"/>
<stop offset="1" stop-color="#808080" stop-opacity="0.1"/>
</linearGradient>
<linearGradient id="paint1_linear" x1="134315" y1="271847" x2="134315" y2="117640" gradientUnits="userSpaceOnUse">
<stop stop-color="#808080" stop-opacity="0.25"/>
<stop offset="0.53514" stop-color="#808080" stop-opacity="0.12"/>
<stop offset="1" stop-color="#808080" stop-opacity="0.1"/>
</linearGradient>
<clipPath id="clip0">
<rect width="1124.68" height="770.768" fill="white" transform="translate(4)"/>
</clipPath>
</defs>
</svg>
