<svg width="1091" height="458" viewBox="0 0 1091 458" fill="none" xmlns="http://www.w3.org/2000/svg">
<g id="undraw_code_thinking_1jeh 1" clip-path="url(#clip0)" filter="url(#filter0_d)">
<path id="Vector" d="M81.591 390.495L56.772 388.84L65.045 426.069L93.173 414.487L81.591 390.495Z" fill="#FFB9B9"/>
<path id="Vector_2" d="M309.1 321.001L251.189 264.744L218.096 290.391L152.739 368.985L160.185 380.567L239.606 326.792L293.381 397.113L344.674 371.467L309.1 321.001Z" fill="#2F2E41"/>
<path id="Vector_3" opacity="0.1" d="M309.1 321.001L251.189 264.744L218.096 290.391L152.739 368.985L160.185 380.567L239.606 326.792L293.381 397.113L344.674 371.467L309.1 321.001Z" fill="black"/>
<path id="Vector_4" d="M314.064 358.23L306.618 364.021L246.225 343.338L232.161 337.547L204.032 343.338C204.032 343.338 204.032 320.174 230.506 321.001L257.807 327.62L290.072 330.101L314.064 358.23Z" fill="#FFB9B9"/>
<path id="Vector_5" d="M367.839 419.451L349.638 431.033H328.128L228.024 393.804L81.591 420.278L77.454 388.84L211.478 330.102L328.956 368.985L367.839 419.451Z" fill="#2F2E41"/>
<path id="Vector_6" d="M250.361 272.19L237.952 274.672L235.248 271.517C233.107 269.019 231.75 265.946 231.348 262.68C230.946 259.415 231.517 256.104 232.988 253.162V253.162L267.735 207.66C267.735 207.66 277.663 185.323 293.381 194.423C309.1 203.524 280.144 218.415 280.144 218.415L262.771 245.716L264.426 259.78L250.361 272.19Z" fill="#FFB9B9"/>
<path id="Vector_7" d="M328.956 218.415C346.775 218.415 361.22 203.97 361.22 186.15C361.22 168.331 346.775 153.885 328.956 153.885C311.136 153.885 296.691 168.331 296.691 186.15C296.691 203.97 311.136 218.415 328.956 218.415Z" fill="#FFB9B9"/>
<path id="Vector_8" d="M314.478 209.728L329.369 245.303L364.943 230.411C364.943 230.411 353.361 202.283 353.361 201.455C353.361 200.628 314.478 209.728 314.478 209.728Z" fill="#FFB9B9"/>
<path id="Vector_9" d="M412.439 314.97C412.439 334.442 409.37 353.793 403.347 372.311L400.931 379.74L389.349 432.688L376.939 435.997L367.839 424.414L349.638 411.178L336.401 389.668L325.051 370.755L321.51 364.848L309.1 302.8L261.944 276.327L246.225 273.845L249.534 264.744L263.598 245.716L277.662 244.062L281.799 240.752L285.108 242.407L298.345 234.961L302.482 236.616L326.672 238.866L341.365 235.789L362.494 224.446L371.148 225.861L400.931 250.68C408.545 271.259 412.441 293.028 412.439 314.97V314.97Z" fill="#575A89"/>
<path id="Vector_10" d="M64.3902 403.305C64.3902 403.305 71.8002 390.747 68.6704 389.28C65.5406 387.814 52.2488 381.969 52.2488 381.969L32.7567 375.509C32.7567 375.509 4.63066 333.708 4.01329 370.059C3.39592 406.41 24.4925 415.148 24.4925 415.148C24.4925 415.148 43.308 455.641 53.9662 449.184C64.6244 442.727 75.2895 420.808 75.2895 420.808C75.2895 420.808 56.0695 410.476 64.3902 403.305Z" fill="#2F2E41"/>
<path id="Vector_11" opacity="0.1" d="M403.413 307.764L371.975 328.447L325.051 370.755L321.51 364.848L311.582 315.21H314.064L339.711 268.054L403.413 307.764Z" fill="black"/>
<path id="Vector_12" d="M339.711 263.09L314.064 310.246H304.964L299.173 326.792L285.936 330.102L321.51 368.985L371.975 323.483L403.413 302.8L339.711 263.09Z" fill="#575A89"/>
<path id="Vector_13" d="M303.86 162.16L300.364 163.505C299.826 163.141 299.367 162.673 299.012 162.129C298.658 161.585 298.415 160.976 298.299 160.337C298.183 159.698 298.195 159.042 298.336 158.408C298.476 157.774 298.741 157.175 299.117 156.645L292.656 156.342C296.803 150.819 302.076 146.24 308.125 142.907C314.175 139.574 320.863 137.563 327.747 137.008C334.632 136.453 341.555 137.367 348.06 139.688C354.565 142.009 360.503 145.685 365.482 150.473C365.776 149.46 368.982 151.43 370.291 153.429C370.731 151.78 373.737 159.749 374.8 165.381C375.293 163.506 377.185 166.533 375.527 169.439C376.578 169.285 377.052 171.973 376.239 173.471C377.388 172.931 377.195 176.14 375.948 178.284C377.589 178.138 363.013 200.76 357.112 213.98C355.398 206.107 353.471 197.816 347.946 191.951C347.007 190.954 345.978 190.046 344.951 189.14L339.398 184.237C332.94 178.537 327.065 171.501 318.462 169.371C312.55 167.907 308.812 167.576 312.034 160.914C309.123 162.129 306.404 163.935 303.467 165.064C303.507 164.133 303.917 163.091 303.86 162.16Z" fill="#2F2E41"/>
<path id="Vector_14" d="M345.088 195.664C348.286 195.664 350.879 193.071 350.879 189.873C350.879 186.675 348.286 184.082 345.088 184.082C341.89 184.082 339.297 186.675 339.297 189.873C339.297 193.071 341.89 195.664 345.088 195.664Z" fill="#FFB9B9"/>
<g id="svg_Ideas_2">
<path id="Vector_15" d="M210.439 59.7102H182.439V87.7102H210.439V59.7102Z" fill="#F96A42"/>
<path id="Vector_16" d="M227.439 71.7102H193.439V37.7102H227.439V71.7102ZM194.917 70.2319H225.961V39.1884H194.917V70.2319Z" fill="#3F3D56"/>
</g>
<g id="svg_Ideas_3">
<path id="Vector_17" d="M85.3339 173.175L77.6457 146.251L50.7219 153.939L58.41 180.863L85.3339 173.175Z" fill="#F96A42"/>
<path id="Vector_18" d="M78.4629 192.817L69.1273 160.123L101.821 150.788L111.156 183.481L78.4629 192.817ZM70.9547 161.139L79.4785 190.989L109.329 182.465L100.805 152.615L70.9547 161.139Z" fill="#3F3D56"/>
</g>
<g id="svg_Ideas_1">
<path id="Vector_19" d="M78.3754 47.7769L97.4938 27.3199L77.0369 8.20151L57.9185 28.6585L78.3754 47.7769Z" fill="#F96A42"/>
<path id="Vector_20" d="M58.0005 52.0036L81.2157 27.163L106.056 50.3782L82.8411 75.2188L58.0005 52.0036ZM81.2864 29.2524L60.0899 51.933L82.7705 73.1294L103.967 50.4488L81.2864 29.2524Z" fill="#3F3D56"/>
</g>
<path id="Vector_21" d="M1030.23 5.36233H770.062V7.62939e-06H652.091V5.36233H390.849C388.538 5.36233 386.25 5.81752 384.114 6.70193C381.979 7.58633 380.039 8.88263 378.405 10.5168C376.771 12.151 375.475 14.091 374.59 16.2262C373.706 18.3613 373.251 20.6498 373.251 22.9608V379.213C373.251 381.524 373.706 383.813 374.59 385.948C375.475 388.083 376.771 390.023 378.405 391.657C380.039 393.291 381.979 394.588 384.114 395.472C386.25 396.356 388.538 396.812 390.849 396.812H1030.23C1034.9 396.812 1039.38 394.957 1042.68 391.657C1045.98 388.357 1047.83 383.88 1047.83 379.213V22.9608C1047.83 20.6498 1047.38 18.3613 1046.49 16.2262C1045.61 14.091 1044.31 12.151 1042.68 10.5168C1041.04 8.88263 1039.1 7.58633 1036.97 6.70193C1034.83 5.81752 1032.54 5.36233 1030.23 5.36233V5.36233Z" fill="#3F3D56"/>
<path id="Vector_22" d="M1024.24 36.4638H396.845V390.377H1024.24V36.4638Z" fill="#F96A42"/>
<path id="Vector_23" d="M710.004 26.8116C713.558 26.8116 716.439 23.9306 716.439 20.3768C716.439 16.823 713.558 13.942 710.004 13.942C706.45 13.942 703.569 16.823 703.569 20.3768C703.569 23.9306 706.45 26.8116 710.004 26.8116Z" fill="#F96A42"/>
<path id="Vector_24" opacity="0.1" d="M844.813 390.377H396.845V36.464L844.813 390.377Z" fill="black"/>
<g id="svg_Screen_1">
<path id="Vector_25" d="M495.013 363.893C528.319 363.893 555.32 336.893 555.32 303.587C555.32 270.28 528.319 243.28 495.013 243.28C461.706 243.28 434.706 270.28 434.706 303.587C434.706 336.893 461.706 363.893 495.013 363.893Z" fill="#F2F2F2"/>
<path id="Vector_26" d="M508.438 348.913C493.601 348.913 479.097 344.513 466.761 336.271C454.425 328.028 444.81 316.312 439.132 302.604C433.454 288.897 431.969 273.814 434.863 259.262C437.758 244.711 444.902 231.344 455.394 220.853C465.885 210.362 479.251 203.217 493.803 200.323C508.355 197.428 523.438 198.914 537.145 204.592C550.852 210.269 562.568 219.884 570.811 232.221C579.054 244.557 583.454 259.06 583.454 273.897C583.431 293.786 575.52 312.853 561.457 326.917C547.394 340.98 528.326 348.89 508.438 348.913ZM508.438 199.862C493.795 199.862 479.481 204.204 467.306 212.339C455.131 220.474 445.642 232.037 440.038 245.565C434.435 259.093 432.968 273.979 435.825 288.341C438.682 302.702 445.733 315.894 456.087 326.248C466.441 336.602 479.633 343.653 493.994 346.51C508.356 349.366 523.242 347.9 536.77 342.297C550.298 336.693 561.861 327.204 569.996 315.029C578.131 302.854 582.473 288.54 582.473 273.897C582.451 254.269 574.643 235.45 560.764 221.571C546.885 207.691 528.066 199.884 508.438 199.862V199.862Z" fill="#3F3D56"/>
</g>
<g id="svg_Screen_2">
<path id="Vector_27" d="M914.997 227.332H856.392V239.578H914.997V227.332Z" fill="#3F3D56"/>
<path id="Vector_28" d="M985.848 131.989H785.541V137.237H985.848V131.989Z" fill="#3F3D56"/>
<path id="Vector_29" d="M985.848 148.608H785.541V153.857H985.848V148.608Z" fill="#3F3D56"/>
<path id="Vector_30" d="M985.848 165.228H785.541V170.476H985.848V165.228Z" fill="#3F3D56"/>
<path id="Vector_31" d="M985.848 181.847H785.541V187.095H985.848V181.847Z" fill="#3F3D56"/>
<path id="Vector_32" d="M985.848 198.467H785.541V203.715H985.848V198.467Z" fill="#3F3D56"/>
</g>
<path id="Vector_33" d="M985.848 43.644H961.356V68.1357H985.848V43.644Z" fill="#F2F2F2"/>
<path id="Vector_34" d="M997.219 79.5068H967.479V49.7668H997.219V79.5068ZM968.772 78.2138H995.926V51.0599H968.772V78.2138Z" fill="#3F3D56"/>
<path id="Vector_35" d="M1065.45 383.942H1004.22V379.53C1004.22 379.416 1004.19 379.302 1004.15 379.196C1004.11 379.09 1004.04 378.993 1003.96 378.912C1003.88 378.831 1003.78 378.766 1003.68 378.722C1003.57 378.678 1003.46 378.656 1003.34 378.656H982.349C982.234 378.656 982.121 378.678 982.014 378.722C981.908 378.766 981.812 378.831 981.731 378.912C981.649 378.993 981.585 379.09 981.541 379.196C981.497 379.302 981.475 379.416 981.475 379.53V383.942H968.354V379.53C968.354 379.416 968.331 379.302 968.287 379.196C968.243 379.09 968.179 378.993 968.098 378.912C968.016 378.831 967.92 378.766 967.814 378.722C967.708 378.678 967.594 378.656 967.479 378.656H946.486C946.371 378.656 946.258 378.678 946.152 378.722C946.045 378.766 945.949 378.831 945.868 378.912C945.787 378.993 945.722 379.09 945.678 379.196C945.634 379.302 945.612 379.416 945.612 379.53V383.942H932.491V379.53C932.491 379.416 932.468 379.302 932.424 379.196C932.381 379.09 932.316 378.993 932.235 378.912C932.154 378.831 932.057 378.766 931.951 378.722C931.845 378.678 931.731 378.656 931.616 378.656H910.623C910.508 378.656 910.395 378.678 910.289 378.722C910.183 378.766 910.086 378.831 910.005 378.912C909.924 378.993 909.859 379.09 909.815 379.196C909.771 379.302 909.749 379.416 909.749 379.53V383.942H896.628V379.53C896.628 379.416 896.606 379.302 896.562 379.196C896.518 379.09 896.453 378.993 896.372 378.912C896.291 378.831 896.194 378.766 896.088 378.722C895.982 378.678 895.868 378.656 895.753 378.656H874.761C874.646 378.656 874.532 378.678 874.426 378.722C874.32 378.766 874.223 378.831 874.142 378.912C874.061 378.993 873.996 379.09 873.952 379.196C873.908 379.302 873.886 379.416 873.886 379.53V383.942H860.765V379.53C860.765 379.416 860.743 379.302 860.699 379.196C860.655 379.09 860.59 378.993 860.509 378.912C860.428 378.831 860.331 378.766 860.225 378.722C860.119 378.678 860.005 378.656 859.891 378.656H838.898C838.783 378.656 838.669 378.678 838.563 378.722C838.457 378.766 838.36 378.831 838.279 378.912C838.198 378.993 838.133 379.09 838.09 379.196C838.046 379.302 838.023 379.416 838.023 379.53V383.942H824.902V379.53C824.902 379.416 824.88 379.302 824.836 379.196C824.792 379.09 824.727 378.993 824.646 378.912C824.565 378.831 824.469 378.766 824.362 378.722C824.256 378.678 824.143 378.656 824.028 378.656H803.035C802.92 378.656 802.806 378.678 802.7 378.722C802.594 378.766 802.497 378.831 802.416 378.912C802.335 378.993 802.271 379.09 802.227 379.196C802.183 379.302 802.16 379.416 802.16 379.53V383.942H789.04V379.53C789.04 379.416 789.017 379.302 788.973 379.196C788.929 379.09 788.865 378.993 788.783 378.912C788.702 378.831 788.606 378.766 788.5 378.722C788.393 378.678 788.28 378.656 788.165 378.656H623.72C623.605 378.656 623.492 378.678 623.386 378.722C623.279 378.766 623.183 378.831 623.102 378.912C623.021 378.993 622.956 379.09 622.912 379.196C622.868 379.302 622.846 379.416 622.846 379.53V383.942H609.725V379.53C609.725 379.416 609.702 379.302 609.658 379.196C609.615 379.09 609.55 378.993 609.469 378.912C609.388 378.831 609.291 378.766 609.185 378.722C609.079 378.678 608.965 378.656 608.85 378.656H587.858C587.743 378.656 587.629 378.678 587.523 378.722C587.417 378.766 587.32 378.831 587.239 378.912C587.158 378.993 587.093 379.09 587.049 379.196C587.005 379.302 586.983 379.416 586.983 379.53V383.942H573.862V379.53C573.862 379.416 573.84 379.302 573.796 379.196C573.752 379.09 573.687 378.993 573.606 378.912C573.525 378.831 573.428 378.766 573.322 378.722C573.216 378.678 573.102 378.656 572.987 378.656H551.995C551.88 378.656 551.766 378.678 551.66 378.722C551.554 378.766 551.457 378.831 551.376 378.912C551.295 378.993 551.23 379.09 551.186 379.196C551.142 379.302 551.12 379.416 551.12 379.53V383.942H537.999V379.53C537.999 379.416 537.977 379.302 537.933 379.196C537.889 379.09 537.824 378.993 537.743 378.912C537.662 378.831 537.565 378.766 537.459 378.722C537.353 378.678 537.239 378.656 537.125 378.656H516.132C516.017 378.656 515.903 378.678 515.797 378.722C515.691 378.766 515.594 378.831 515.513 378.912C515.432 378.993 515.368 379.09 515.324 379.196C515.28 379.302 515.257 379.416 515.257 379.53V383.942H502.136V379.53C502.136 379.416 502.114 379.302 502.07 379.196C502.026 379.09 501.961 378.993 501.88 378.912C501.799 378.831 501.703 378.766 501.596 378.722C501.49 378.678 501.377 378.656 501.262 378.656H480.269C480.154 378.656 480.04 378.678 479.934 378.722C479.828 378.766 479.732 378.831 479.65 378.912C479.569 378.993 479.505 379.09 479.461 379.196C479.417 379.302 479.394 379.416 479.394 379.53V383.942H466.274V379.53C466.274 379.416 466.251 379.302 466.207 379.196C466.163 379.09 466.099 378.993 466.017 378.912C465.936 378.831 465.84 378.766 465.734 378.722C465.627 378.678 465.514 378.656 465.399 378.656H444.406C444.291 378.656 444.177 378.678 444.071 378.722C443.965 378.766 443.869 378.831 443.787 378.912C443.706 378.993 443.642 379.09 443.598 379.196C443.554 379.302 443.531 379.416 443.531 379.53V383.942H430.411V379.53C430.411 379.416 430.388 379.302 430.344 379.196C430.3 379.09 430.236 378.993 430.154 378.912C430.073 378.831 429.977 378.766 429.871 378.722C429.765 378.678 429.651 378.656 429.536 378.656H408.543C408.428 378.656 408.314 378.678 408.208 378.722C408.102 378.766 408.006 378.831 407.925 378.912C407.843 378.993 407.779 379.09 407.735 379.196C407.691 379.302 407.668 379.416 407.668 379.53V383.942H367.432C361.864 383.942 356.525 386.154 352.588 390.091C348.651 394.028 346.439 399.367 346.439 404.935V414.427C346.439 419.995 348.651 425.335 352.588 429.272C356.525 433.209 361.864 435.42 367.432 435.42H1065.45C1071.01 435.42 1076.35 433.209 1080.29 429.272C1084.23 425.335 1086.44 419.995 1086.44 414.427V404.935C1086.44 399.367 1084.23 394.028 1080.29 390.091C1076.35 386.154 1071.01 383.942 1065.45 383.942V383.942Z" fill="#3F3D56"/>
</g>
<defs>
<filter id="filter0_d" x="0" y="0" width="1090.44" height="457.881" filterUnits="userSpaceOnUse" color-interpolation-filters="sRGB">
<feFlood flood-opacity="0" result="BackgroundImageFix"/>
<feColorMatrix in="SourceAlpha" type="matrix" values="0 0 0 0 0 0 0 0 0 0 0 0 0 0 0 0 0 0 127 0"/>
<feOffset dy="4"/>
<feGaussianBlur stdDeviation="2"/>
<feColorMatrix type="matrix" values="0 0 0 0 0 0 0 0 0 0 0 0 0 0 0 0 0 0 0.25 0"/>
<feBlend mode="normal" in2="BackgroundImageFix" result="effect1_dropShadow"/>
<feBlend mode="normal" in="SourceGraphic" in2="effect1_dropShadow" result="shape"/>
</filter>
<clipPath id="clip0">
<rect width="1082.44" height="449.881" fill="white" transform="translate(4)"/>
</clipPath>
</defs>
</svg>
