<svg width="1124" height="841" viewBox="0 0 1124 841" fill="none" xmlns="http://www.w3.org/2000/svg">
<g id="team 1">
<path id="Vector" d="M393.957 255.282H537.957" stroke="#3F3D56" stroke-width="2" stroke-miterlimit="10"/>
<path id="Vector_2" d="M1115.33 509.296C1131 625.885 1109.67 742.6 1001.17 788.049C892.664 833.498 767.861 782.383 722.412 673.88C676.964 565.378 784.197 500.457 836.581 395.127C942.957 181.234 1066.69 147.231 1115.33 509.296Z" fill="#F2F2F2"/>
<path id="Vector_3" d="M920 817.564C1013.89 817.564 1090 807.209 1090 794.436C1090 781.664 1013.89 771.309 920 771.309C826.112 771.309 750 781.664 750 794.436C750 807.209 826.112 817.564 920 817.564Z" fill="#3F3D56"/>
<path id="Vector_4" d="M808.789 735.576L815.183 758.709L856.629 747.252L850.234 724.12L808.789 735.576Z" fill="#2F2E41"/>
<path id="Vector_5" d="M811.645 762.799C815.638 761.696 816.488 752.17 813.545 741.524C810.602 730.878 804.98 723.142 800.988 724.245C796.995 725.349 796.145 734.874 799.087 745.521C802.03 756.167 807.653 763.903 811.645 762.799Z" fill="#2F2E41"/>
<path id="Vector_6" d="M939.606 656.016C942.536 634.399 939.41 616.128 932.623 615.209C925.837 614.289 917.96 631.068 915.03 652.685C912.1 674.303 915.226 692.573 922.013 693.493C928.799 694.413 936.676 677.634 939.606 656.016Z" fill="#2F2E41"/>
<path id="Vector_7" d="M919.585 807.299C963.215 807.299 998.585 771.93 998.585 728.299C998.585 684.669 963.215 649.299 919.585 649.299C875.954 649.299 840.585 684.669 840.585 728.299C840.585 771.93 875.954 807.299 919.585 807.299Z" fill="#2F2E41"/>
<path id="Vector_8" d="M808.789 721.576L815.183 744.709L856.629 733.252L850.234 710.12L808.789 721.576Z" fill="#2F2E41"/>
<path id="Vector_9" d="M811.645 748.799C815.638 747.696 816.488 738.17 813.545 727.524C810.602 716.878 804.98 709.142 800.988 710.245C796.995 711.349 796.145 720.874 799.087 731.521C802.03 742.167 807.653 749.903 811.645 748.799Z" fill="#2F2E41"/>
<path id="Vector_10" d="M940.329 710.043C955.241 710.043 967.329 697.955 967.329 683.043C967.329 668.131 955.241 656.043 940.329 656.043C925.417 656.043 913.329 668.131 913.329 683.043C913.329 697.955 925.417 710.043 940.329 710.043Z" fill="white"/>
<path id="Vector_11" d="M948.963 680.116C953.934 680.116 957.963 676.086 957.963 671.116C957.963 666.145 953.934 662.116 948.963 662.116C943.993 662.116 939.963 666.145 939.963 671.116C939.963 676.086 943.993 680.116 948.963 680.116Z" fill="#3F3D56"/>
<path id="Vector_12" d="M1010.81 782.588C1040.05 781.124 1062.44 753.78 1060.82 721.511C1059.21 689.243 1034.2 664.271 1004.97 665.734C975.732 667.197 971.144 690.146 972.759 722.414C974.374 754.683 981.58 784.051 1010.81 782.588Z" fill="#F96A42"/>
<path id="Vector_13" d="M887.298 694.874C882.54 695.258 877.825 693.736 874.189 690.644C870.553 687.551 868.294 683.142 867.909 678.384C867.524 673.627 869.045 668.911 872.136 665.274C875.227 661.638 879.636 659.378 884.393 658.991C894.302 658.189 897.005 666.056 897.807 675.964C898.609 685.873 897.206 694.072 887.298 694.874Z" fill="white"/>
<path id="Vector_14" d="M53.464 361.025H495.957L564.56 394.447L673.866 447.699L745.334 313.887H947.574" stroke="#3F3D56" stroke-width="2" stroke-miterlimit="10"/>
<path id="Vector_15" d="M354.541 374.711C362.1 374.711 368.227 368.584 368.227 361.025C368.227 353.467 362.1 347.34 354.541 347.34C346.983 347.34 340.856 353.467 340.856 361.025C340.856 368.584 346.983 374.711 354.541 374.711Z" fill="#F96A42"/>
<path id="Vector_16" d="M564.384 408.164C571.942 408.164 578.069 402.037 578.069 394.478C578.069 386.92 571.942 380.793 564.384 380.793C556.825 380.793 550.698 386.92 550.698 394.478C550.698 402.037 556.825 408.164 564.384 408.164Z" fill="#F96A42"/>
<path id="Vector_17" d="M859.379 327.572C866.937 327.572 873.064 321.445 873.064 313.887C873.064 306.329 866.937 300.202 859.379 300.202C851.821 300.202 845.694 306.329 845.694 313.887C845.694 321.445 851.821 327.572 859.379 327.572Z" fill="#F96A42"/>
<path id="Vector_18" d="M716.443 380.793C724.001 380.793 730.128 374.666 730.128 367.108C730.128 359.55 724.001 353.422 716.443 353.422C708.885 353.422 702.758 359.55 702.758 367.108C702.758 374.666 708.885 380.793 716.443 380.793Z" fill="#F96A42"/>
<path id="Vector_19" d="M174 832.564C267.888 832.564 344 822.209 344 809.436C344 796.664 267.888 786.309 174 786.309C80.1116 786.309 4 796.664 4 809.436C4 822.209 80.1116 832.564 174 832.564Z" fill="#3F3D56"/>
<path id="Vector_20" d="M164.805 775.436C208.435 775.436 243.805 740.067 243.805 696.436C243.805 652.806 208.435 617.436 164.805 617.436C121.174 617.436 85.8046 652.806 85.8046 696.436C85.8046 740.067 121.174 775.436 164.805 775.436Z" fill="#2F2E41"/>
<path id="Vector_21" d="M152.805 758.436H128.805V801.436H152.805V758.436Z" fill="#2F2E41"/>
<path id="Vector_22" d="M200.805 758.436H176.805V801.436H200.805V758.436Z" fill="#2F2E41"/>
<path id="Vector_23" d="M148.805 809.436C159.85 809.436 168.805 806.079 168.805 801.936C168.805 797.794 159.85 794.436 148.805 794.436C137.759 794.436 128.805 797.794 128.805 801.936C128.805 806.079 137.759 809.436 148.805 809.436Z" fill="#2F2E41"/>
<path id="Vector_24" d="M196.805 808.436C207.85 808.436 216.805 805.079 216.805 800.936C216.805 796.794 207.85 793.436 196.805 793.436C185.759 793.436 176.805 796.794 176.805 800.936C176.805 805.079 185.759 808.436 196.805 808.436Z" fill="#2F2E41"/>
<path id="Vector_25" d="M166.805 703.436C181.716 703.436 193.805 691.348 193.805 676.436C193.805 661.525 181.716 649.436 166.805 649.436C151.893 649.436 139.805 661.525 139.805 676.436C139.805 691.348 151.893 703.436 166.805 703.436Z" fill="white"/>
<path id="Vector_26" d="M166.805 685.436C171.775 685.436 175.805 681.407 175.805 676.436C175.805 671.466 171.775 667.436 166.805 667.436C161.834 667.436 157.805 671.466 157.805 676.436C157.805 681.407 161.834 685.436 166.805 685.436Z" fill="#3F3D56"/>
<path id="Vector_27" d="M88.172 622.969C81.7931 594.401 102.184 565.535 133.716 558.494C165.248 551.453 195.981 568.904 202.36 597.471C208.739 626.039 187.841 636.575 156.309 643.616C124.777 650.657 94.5508 651.536 88.172 622.969Z" fill="#F96A42"/>
<g id="Man_01">
<path id="Vector_28" d="M222.407 414.207C230.196 393.83 231.324 375.328 224.927 372.883C218.53 370.438 207.03 384.975 199.241 405.353C191.453 425.73 190.324 444.232 196.722 446.677C203.119 449.122 214.619 434.585 222.407 414.207Z" fill="#2F2E41"/>
<path id="Vector_29" d="M226.811 388.711C234.37 388.711 240.497 382.584 240.497 375.025C240.497 367.467 234.37 361.34 226.811 361.34C219.253 361.34 213.126 367.467 213.126 375.025C213.126 382.584 219.253 388.711 226.811 388.711Z" fill="#F96A42"/>
<path id="Vector_30" d="M137.805 548.436C181.435 548.436 216.805 513.067 216.805 469.436C216.805 425.806 181.435 390.436 137.805 390.436C94.1741 390.436 58.8046 425.806 58.8046 469.436C58.8046 513.067 94.1741 548.436 137.805 548.436Z" fill="#2F2E41"/>
<path id="Vector_31" d="M125.805 531.436H101.805V574.436H125.805V531.436Z" fill="#2F2E41"/>
<path id="Vector_32" d="M173.805 531.436H149.805V574.436H173.805V531.436Z" fill="#2F2E41"/>
<path id="Vector_33" d="M121.805 582.436C132.85 582.436 141.805 579.079 141.805 574.936C141.805 570.794 132.85 567.436 121.805 567.436C110.759 567.436 101.805 570.794 101.805 574.936C101.805 579.079 110.759 582.436 121.805 582.436Z" fill="#2F2E41"/>
<path id="Vector_34" d="M169.805 581.436C180.85 581.436 189.805 578.079 189.805 573.936C189.805 569.794 180.85 566.436 169.805 566.436C158.759 566.436 149.805 569.794 149.805 573.936C149.805 578.079 158.759 581.436 169.805 581.436Z" fill="#2F2E41"/>
<path id="Vector_35" d="M139.805 476.436C154.716 476.436 166.805 464.348 166.805 449.436C166.805 434.525 154.716 422.436 139.805 422.436C124.893 422.436 112.805 434.525 112.805 449.436C112.805 464.348 124.893 476.436 139.805 476.436Z" fill="white"/>
<path id="Vector_36" d="M139.805 458.436C144.775 458.436 148.805 454.407 148.805 449.436C148.805 444.466 144.775 440.436 139.805 440.436C134.834 440.436 130.805 444.466 130.805 449.436C130.805 454.407 134.834 458.436 139.805 458.436Z" fill="#3F3D56"/>
<path id="Vector_37" d="M61.172 395.969C54.7931 367.401 75.1838 338.535 106.716 331.494C138.248 324.453 168.981 341.904 175.36 370.471C181.739 399.039 160.841 409.575 129.309 416.616C97.7771 423.657 67.5508 424.536 61.172 395.969Z" fill="#F96A42"/>
<path id="Vector_38" d="M84.5134 449.707C87.4482 443.519 73.8486 430.925 54.1379 421.576C34.4272 412.228 16.0695 409.665 13.1347 415.853C10.1999 422.041 23.7995 434.636 43.5102 443.984C63.2209 453.333 81.5786 455.895 84.5134 449.707Z" fill="#2F2E41"/>
<path id="Vector_39" d="M99 497.936C99 505.668 118.909 520.936 141 520.936C163.091 520.936 183.805 499.168 183.805 491.436C183.805 483.704 163.091 492.936 141 492.936C118.909 492.936 99 490.204 99 497.936Z" fill="white"/>
</g>
<path id="Vector_40" d="M965.603 564.71H839.474V628.871H965.603V564.71Z" fill="#F96A42"/>
<path id="Vector_41" d="M955.732 575.129H829.603V639.29H955.732V575.129Z" stroke="#3F3D56" stroke-width="2" stroke-miterlimit="10"/>
<path id="Vector_42" d="M266.603 199H230.603V235H266.603V199Z" fill="#FF6584"/>
<path id="Vector_43" d="M257.603 187H221.603V223H257.603V187Z" stroke="#3F3D56" stroke-width="2" stroke-miterlimit="10"/>
<g id="Man_02">
<path id="Vector_44" d="M910.052 268.47C953.683 268.47 989.052 233.101 989.052 189.47C989.052 145.84 953.683 110.47 910.052 110.47C866.422 110.47 831.052 145.84 831.052 189.47C831.052 233.101 866.422 268.47 910.052 268.47Z" fill="#2F2E41"/>
<path id="Vector_45" d="M940.561 290.649L964.178 286.374L956.518 244.061L932.902 248.336L940.561 290.649Z" fill="#2F2E41"/>
<path id="Vector_46" d="M893.332 299.204L916.948 294.928L909.288 252.616L885.672 256.891L893.332 299.204Z" fill="#2F2E41"/>
<path id="Vector_47" d="M905.869 308.108C914.298 300.969 918.961 292.62 916.284 289.459C913.607 286.298 904.604 289.523 896.175 296.661C887.745 303.8 883.082 312.149 885.759 315.31C888.436 318.471 897.44 315.246 905.869 308.108Z" fill="#2F2E41"/>
<path id="Vector_48" d="M952.117 299.736C960.546 292.597 965.209 284.248 962.532 281.087C959.855 277.926 950.852 281.151 942.423 288.289C933.994 295.428 929.331 303.777 932.008 306.938C934.685 310.099 943.688 306.874 952.117 299.736Z" fill="#2F2E41"/>
<path id="Vector_49" d="M904.521 197.146C919.433 197.146 931.521 185.058 931.521 170.146C931.521 155.235 919.433 143.146 904.521 143.146C889.61 143.146 877.521 155.235 877.521 170.146C877.521 185.058 889.61 197.146 904.521 197.146Z" fill="white"/>
<path id="Vector_50" d="M893.424 169.468C898.395 169.468 902.424 165.439 902.424 160.468C902.424 155.498 898.395 151.468 893.424 151.468C888.454 151.468 884.424 155.498 884.424 160.468C884.424 165.439 888.454 169.468 893.424 169.468Z" fill="#3F3D56"/>
<path id="Vector_51" d="M972.372 103.527C973.56 74.2795 948.353 49.5072 916.071 48.1959C883.789 46.8845 856.656 69.5308 855.468 98.7778C854.28 128.025 876.721 134.67 909.003 135.981C941.285 137.293 971.184 132.774 972.372 103.527Z" fill="#F96A42"/>
<path id="Vector_52" d="M875.608 183.903C877.138 177.227 861.141 167.865 839.877 162.991C818.613 158.117 800.135 159.577 798.605 166.252C797.075 172.928 813.072 182.29 834.336 187.164C855.6 192.038 874.078 190.578 875.608 183.903Z" fill="#2F2E41"/>
<path id="Vector_53" d="M1030.68 209.691C1032.21 203.016 1016.21 193.653 994.951 188.779C973.687 183.905 955.209 185.366 953.679 192.041C952.149 198.716 968.146 208.079 989.41 212.953C1010.67 217.827 1029.15 216.367 1030.68 209.691Z" fill="#2F2E41"/>
<path id="Vector_54" d="M931.749 220.603C932.171 222.929 932.129 225.315 931.628 227.625C931.127 229.935 930.176 232.124 928.829 234.066C927.482 236.009 925.766 237.667 923.778 238.946C921.79 240.225 919.57 241.1 917.244 241.522C914.918 241.943 912.532 241.901 910.222 241.4C907.911 240.899 905.723 239.948 903.78 238.601C901.838 237.254 900.18 235.538 898.9 233.55C897.621 231.562 896.746 229.342 896.325 227.016C894.554 217.234 902.118 213.772 911.9 212.001C921.682 210.23 929.979 210.821 931.749 220.603Z" fill="white"/>
<path id="Vector_55" d="M716.603 99L807.603 169" stroke="#3F3D56" stroke-width="2" stroke-miterlimit="10"/>
<path id="Vector_56" d="M673.603 136C711.159 136 741.603 105.555 741.603 68C741.603 30.4446 711.159 0 673.603 0C636.048 0 605.603 30.4446 605.603 68C605.603 105.555 636.048 136 673.603 136Z" fill="#FF6584"/>
</g>
<path id="Vector_57" d="M909.954 674.787C912.884 653.17 909.758 634.9 902.972 633.98C896.185 633.06 888.309 649.839 885.379 671.456C882.448 693.074 885.575 711.344 892.361 712.264C899.148 713.184 907.024 696.405 909.954 674.787Z" fill="#2F2E41"/>
<path id="Vector_58" d="M72.8115 799.711C80.3697 799.711 86.4968 793.584 86.4968 786.025C86.4968 778.467 80.3697 772.34 72.8115 772.34C65.2532 772.34 59.1261 778.467 59.1261 786.025C59.1261 793.584 65.2532 799.711 72.8115 799.711Z" fill="#F96A42"/>
<path id="Vector_59" d="M296.603 770H260.603V806H296.603V770Z" fill="#FF6584"/>
<path id="Vector_60" d="M260.811 807.711C268.37 807.711 274.497 801.584 274.497 794.025C274.497 786.467 268.37 780.34 260.811 780.34C253.253 780.34 247.126 786.467 247.126 794.025C247.126 801.584 253.253 807.711 260.811 807.711Z" fill="#F96A42"/>
<path id="Vector_61" d="M465.957 268.711C473.515 268.711 479.642 262.584 479.642 255.025C479.642 247.467 473.515 241.34 465.957 241.34C458.399 241.34 452.271 247.467 452.271 255.025C452.271 262.584 458.399 268.711 465.957 268.711Z" fill="#F96A42"/>
<path id="Vector_62" d="M731.721 685.788C735.33 685.788 738.256 682.862 738.256 679.252C738.256 675.643 735.33 672.717 731.721 672.717C728.111 672.717 725.185 675.643 725.185 679.252C725.185 682.862 728.111 685.788 731.721 685.788Z" fill="#FF6584"/>
<path id="Vector_63" d="M763.739 787.725V713.313" stroke="#3F3D56" stroke-width="2" stroke-miterlimit="10"/>
<path id="Vector_64" d="M763.739 723.836C769.551 723.836 774.262 719.125 774.262 713.313C774.262 707.502 769.551 702.79 763.739 702.79C757.928 702.79 753.216 707.502 753.216 713.313C753.216 719.125 757.928 723.836 763.739 723.836Z" fill="#3F3D56"/>
<path id="Vector_65" d="M763.739 759.175C763.739 759.175 762.236 726.843 731.419 730.601L763.739 759.175Z" fill="#3F3D56"/>
</g>
</svg>
